<svg version="1.1" id="Layer_1" xmlns="http://www.w3.org/2000/svg" xmlns:xlink="http://www.w3.org/1999/xlink" x="0px" y="0px" width="256px" height="168px" viewBox="0 0 256 168" enable-background="new 0 0 256 168" xml:space="preserve">
  <path fill="#CC2128" d="M255.8 105.03C209.61 89.61 127.66 66.41 0 99.23V74.58c126.97-34.98 225.14-6.88 256 4.81l-.2 25.65z"/>
  <path fill="#313588" d="M256 79.35V52.86l-.15-39.91C254.85 5.33 248.83 0 240.8 0H15.2C7.2 0 0 6.4 0 15.2v59.37c126.84-34.95 224.94-6.94 256 4.78z"/>
  <path fill="#FFF12D" d="M15.2 168h225.6c7.23 0 13.8-5.22 15-12.72v-50.25C209.62 89.61 127.66 66.41 0 99.23v53.57c0 8 6.4 15.2 15.2 15.2zM81.47 59.53c6.29-17.49 20.83-32.62 45.99-32.43s41.96 14.55 46.48 33.32c-32.43-3.34-54.05-3.93-92.47-.89z"/>
  <path fill="#313588" stroke="#313588" stroke-width=".22" stroke-miterlimit="22.93" d="M57.1 136.48l17.1-25.55h6.39l18.27 25.55h-6.68l-5.2-7.76H68.3l-4.91 7.76h-6.3zm12.87-10.51H85.1l-4.61-7.08a65.83 65.83 0 0 1-3.15-5.3 23.01 23.01 0 0 1-2.46 4.9l-4.9 7.48zm58.87 10.51v-2.75c-2.56 2.06-5.9 3.15-10.22 3.15-1.87 0-3.74-.2-5.31-.6a9.73 9.73 0 0 1-3.64-1.57 4.56 4.56 0 0 1-1.67-2.36c-.2-.59-.3-1.57-.3-2.94v-11.5h5.5v10.22c0 1.67.1 2.75.3 3.34a4.3 4.3 0 0 0 2.17 1.97c1.08.49 2.45.69 4.12.69s3.15-.2 4.62-.7a6.08 6.08 0 0 0 3.05-1.96c.59-.79.88-2.06.88-3.63v-9.93h5.5v18.47h-5v.1zm18.18 0v-18.47h4.91v2.75a10.53 10.53 0 0 1 3.54-2.56c1.08-.4 2.26-.59 3.53-.59 1.87 0 3.74.3 5.6.98l-1.86 2.95c-1.38-.49-2.65-.69-4.03-.69a8.6 8.6 0 0 0-3.24.6c-.98.39-1.67.97-2.06 1.66a7.65 7.65 0 0 0-.89 3.64v9.63h-5.5v.1zm46.67-2.26a26.53 26.53 0 0 1-5.9 2.07c-1.86.39-3.92.59-5.98.59-3.54 0-6.3-.5-8.16-1.48-1.87-.98-2.85-2.26-2.85-3.83 0-.89.4-1.77 1.08-2.46a6.42 6.42 0 0 1 2.85-1.77c1.18-.49 2.46-.78 3.93-.98 1.08-.2 2.66-.3 4.82-.5 4.42-.29 7.66-.68 9.73-1.07V124c0-1.27-.5-2.16-1.58-2.65-1.37-.69-3.44-1.08-6.19-1.08-2.55 0-4.52.3-5.7.78a5.37 5.37 0 0 0-2.75 2.76l-5.3-.4a6.85 6.85 0 0 1 2.35-3.14 12.28 12.28 0 0 1 4.82-1.87c2.06-.4 4.52-.69 7.37-.69 2.75 0 5 .2 6.68.6 1.77.39 2.95.88 3.83 1.37a4.5 4.5 0 0 1 1.67 2.16c.2.5.3 1.48.3 2.85v4.23c0 2.94.1 4.72.4 5.5.19.79.68 1.48 1.37 2.26h-5.7a5.9 5.9 0 0 1-1.09-2.46zm-.49-7.07c-1.96.48-5 .88-8.94 1.17-2.26.2-3.83.4-4.81.6-.99.2-1.67.58-2.16.98-.5.49-.79.98-.79 1.47 0 .89.59 1.57 1.67 2.06 1.08.6 2.75.79 4.82.79 2.06 0 4.02-.3 5.6-.79a7.62 7.62 0 0 0 3.63-2.16c.6-.69.89-1.77.89-3.14v-.98h.1z"/>
</svg>
