<svg version="1.1" id="Layer_1" xmlns="http://www.w3.org/2000/svg" xmlns:xlink="http://www.w3.org/1999/xlink" x="0px" y="0px" width="256px" height="168px" viewBox="0 0 256 168" enable-background="new 0 0 256 168" xml:space="preserve">
  <path fill="#FFF" d="M240 .8H16C8 .8.8 7.2.8 16v136.8c0 8 6.4 15.2 15.2 15.2h224c8 0 15.2-6.4 15.2-15.2V16C254.4 7.2 248 .8 240 .8z"/>
  <path fill="#8E8E8E" d="M240.8 2.4c7.2 0 12.8 5.6 12.8 12.8v137.6c0 7.2-5.6 12.8-12.8 12.8H15.2c-7.2 0-12.8-5.6-12.8-12.8V15.2C2.4 8 8 2.4 15.2 2.4h225.6m0-2.4H15.2C7.2 0 0 6.4 0 15.2v137.6c0 8 6.4 15.2 15.2 15.2h225.6c8 0 15.2-6.4 15.2-15.2V15.2C256 6.4 249.6 0 240.8 0z"/>
  <radialGradient id="a" cx="-212.7" cy="434.31" r="12.61" gradientTransform="matrix(11.0108 0 0 -11.0108 2423.24 4819.27)" gradientUnits="userSpaceOnUse">
    <stop offset="0" stop-color="#8ac6ec"/>
    <stop offset="1" stop-color="#2760ad"/>
  </radialGradient>
  <path fill="url(#a)" d="M114.06 110.88l-4.97-5.65-5.31 5.65H87.52V93.95h16.59l4.98 5.64 5.3-5.64h12.95c3.31 0 6.97 1 6.97 5.64 0 4.65-3.65 5.65-6.97 5.65h-4.98v5.64h-8.3zm-12.27-13.6H91.5v3.3h8.96v3.33H91.5v3.31h9.95l4.65-4.97-4.31-4.98zm15.92-1.67l-6.3 6.64 6.3 6.97v-13.6zm9.3 6.3c1.65 0 2.65-.66 2.65-2.31s-1-2-2.66-2h-5.3v4.32h5.3zm8.95 9.3V93.95h9.3c3.64 0 6.96.67 6.96 4.65a4.98 4.98 0 0 1-2.98 4.65c1.66.66 2.65 1.65 2.65 4.64v3.32h-3.98v-2c0-3.31-.66-3.97-3.65-3.97h-4.31v6.3l-3.99-.33zm9.3-9.96c1.65 0 2.98-.33 2.98-1.99s-1.33-1.99-2.65-1.99h-4.98v3.98h4.64zm23.22 6.3v3.66h-13.6V93.95h13.6v3.32h-9.62v3.32h9.29v3.32h-9.3v3.31l9.63.34zm10.95-6.96c4.65 0 5.97 2 5.97 4.98 0 3.65-2.32 5.3-6.3 5.3h-7.96v-3.64h7.96c1.66 0 2-.66 2-1.66 0-1-.67-1.66-2-1.66-3.98 0-8.63 0-8.63-5.3 0-2.33 1.66-4.99 5.98-4.99h8.3v3.65h-7.64c-1.33 0-2.32.34-2.32 1.66 0 2 4.64 1.66 4.64 1.66zm-11.28-18.91l-1.66-3.98h-8.63l-1.32 3.98h-4.65c-4.98 0-7.96-2.33-7.96-8.3 0-6.3 2.98-8.62 8.3-8.62h3.97v3.65h-3.98c-2.65 0-4.31.99-4.31 4.97 0 4.32 1.66 4.98 3.98 4.98h2l5.63-13.6h5.98L172.47 81V64.75h6.3l7.3 11.95V64.75h4.31v17.26h-5.64l-8.3-13.27v12.94h-8.29zm-5.97-14.27l-2.66 6.64h5.65l-3-6.64zm-24.89 14.27V64.42h4.32v17.26h-4.32zm-18.91 0V64.42h9.29c3.98 0 6.97.67 6.97 4.65a4.98 4.98 0 0 1-2.99 4.64c1.66.67 2.66 1.66 2.66 4.65v3.32h-3.99v-2.33c0-3.31-.66-3.98-3.65-3.98h-4.3v6.3h-4zm9.29-9.96c1.66 0 2.98-.33 2.98-1.99s-1.32-1.66-2.65-1.66h-4.98v3.65h4.65zm-11.95 6.3v3.66h-13.6V64.42h13.6v3.65h-9.62v2.99h9.3v3.65h-9.3v3.32h9.62zm-44.8 3.66l-1.65-3.65h-8.3l-1.66 3.65H55l7.3-17.26h5.97l6.97 16.26V64.42h6.64l5.3 11.62 4.98-11.62h6.97v17.26h-4.31V68.4l-5.97 13.28H85.2L79.21 68.4v13.28h-8.3zM64.96 67.4l-2.65 6.64h5.64l-2.98-6.64zm122.78 24.55v-1.32h-11.28c-1.66 0-3.98.33-4.98 1.32v-1.32h-19.91v1.32c-1.66-1.32-4.31-1.32-5.64-1.32h-13.27v1.32c-1-1.32-3.98-1.32-5.65-1.32h-14.93l-3.31 3.65-3.32-3.65h-21.9v23.89h21.56l3.32-3.65 3.32 3.65h13.27v-5.64s3.99 0 6.97-1v6.3h10.95v-6.3h.67c.66 0 .66 0 .66.66v5.65h33.51c2 0 4.32-.67 5.64-1.66v1.66h10.62c2.33 0 4.32-.34 5.98-1V157H54.67V85h6.97l1.66-3.65h3.65L68.6 85h13.61V82l1.33 2.98h7.3l1.32-2.98v2.98h34.18v-6.3h.33c.34 0 .67 0 .67.66v5.31h17.58v-1.32c1.33.66 3.65 1.32 6.64 1.32h7.3l1.66-3.65h3.65l1.66 3.65h14.27v-3.65l2.32 3.65h11.61V60.77h-11.28v2.66l-1.66-2.66h-11.61v2.66l-1.33-2.66h-15.93c-2.65 0-4.97.34-6.96 1.33v-1.33H134.3v1.33c-1.33-1-2.66-1.33-4.65-1.33H89.84l-2.65 6.3-2.66-6.3h-12.6v2.66l-1.67-2.33H59.65l-4.98 12.61V11h145.67v79.64h-7.63c-2.33 0-3.99.33-4.98 1.32zm6.97 18.92h-7.97v-3.65h7.97c1.65 0 1.99-.67 1.99-1.66 0-1-.67-1.66-2-1.66-3.98 0-8.62 0-8.62-5.31 0-2.32 1.66-4.98 5.97-4.98h8.3v3.65h-7.3c-1.33 0-2.33.33-2.33 1.66 0 1.66 4.65 1.66 4.65 1.66 5.64 0 5.97 2.98 5.97 4.98 0 1.33-.33 5.64-6.64 5.3z"/>
</svg>
