<svg version="1.1" id="Layer_1" xmlns="http://www.w3.org/2000/svg" xmlns:xlink="http://www.w3.org/1999/xlink" x="0px" y="0px" width="256px" height="168px" viewBox="0 0 256 168" enable-background="new 0 0 256 168" xml:space="preserve">
  <path fill="#3498D8" d="M240 0H16C7.2 0 0 7.2 0 16v136c0 8.8 7.2 16 16 16h224c8.8 0 16-7.2 16-16V16c0-8.8-7.2-16-16-16z"/>
  <path fill="#FFF" d="M53.6 86.4h12.8l-6.4-16-6.4 16zM232 56h-32.8l-8 8.8L184 56h-69.6L108 70.4 101.6 56h-28v6.4L70.4 56h-24l-23.2 56h28l3.2-8.8h8l3.2 8.8h31.2v-6.4l2.4 6.4h16l2.4-7.2v7.2h64l8-8.8 7.2 8.8h32.8l-20.8-28L232 56zm-96.8 48h-8.8V72.8L112.8 104h-8L91.2 72.8V104H72.8l-3.2-8.8H50.4l-3.2 8.8H36.8l16.8-40h13.6l15.2 37.6V64h15.2l12 27.2L120.8 64H136l-.8 40zm79.2 0h-12L192 90.4 180 104h-36V64h36.8L192 76.8 204 64h11.2l-17.6 20 16.8 20zm-61.6-32v7.2h20v8h-20v8h22.4l10.4-12L176 72h-23.2z"/>
</svg>
