<svg version="1.1" id="Layer_1" xmlns="http://www.w3.org/2000/svg" xmlns:xlink="http://www.w3.org/1999/xlink" x="0px" y="0px" width="256px" height="168px" viewBox="0 0 256 168" enable-background="new 0 0 256 168" xml:space="preserve">
  <path fill="#FFF" d="M240 .8H16C8 .8.8 7.2.8 16v136.8c0 8 6.4 15.2 15.2 15.2h224c8 0 15.2-6.4 15.2-15.2V16C254.4 7.2 248 .8 240 .8z"/>
  <path fill="#8E8E8E" d="M240.8 2.4c7.2 0 12.8 5.6 12.8 12.8v137.6c0 7.2-5.6 12.8-12.8 12.8H15.2c-7.2 0-12.8-5.6-12.8-12.8V15.2C2.4 8 8 2.4 15.2 2.4h225.6m0-2.4H15.2C7.2 0 0 6.4 0 15.2v137.6c0 8 6.4 15.2 15.2 15.2h225.6c8 0 15.2-6.4 15.2-15.2V15.2C256 6.4 249.6 0 240.8 0z"/>
  <g>
    <path fill="#033C83" d="M112.64 67.1l-5.42 37.31h7.68l.93-6.63.91-6.6c.32-2.26.61-4.52.95-6.77.32-2.14.44-4.31.98-6.41h.34l9.1 26.52c3.43-.07 6.7.13 10-.14l5.45-37.17h-7.57l-3.84 26.29-.36.01c-.61-1.7-1.23-3.39-1.82-5.1-2.34-6.62-4.66-13.26-6.99-19.9-.5-1.4-.5-1.4-2.04-1.41h-8.3zM202.58 82h-4.4c-1.36 0-2.73.02-4.1 0-1.39 0-2.78-.03-4.35-.05l1.2-8.52h14.4l.73-6.07c-1.63-.37-21.05-.31-22.27.05l-5.22 36.98h22.38c.55-1.64.98-5.14.75-6.2-4.65-.13-9.33.08-14.2-.13l1.35-9.74h12.92l.81-6.31zM143.06 104.4l5.22-37.1c.4-.08.68-.18.97-.18 4.2 0 8.4-.02 12.59.06 2.34.05 4.6.62 6.75 1.57 4.21 1.85 6.86 5.08 8.1 9.46a23.61 23.61 0 0 1 .18 12.6c-1.9 7.25-6.78 11.4-13.94 12.97-1.91.42-3.9.61-5.86.66-4.2.11-8.4.06-12.6.07-.39 0-.78-.06-1.4-.11zm8.94-6.36c3.16.21 6.01.17 8.8-.68 4-1.22 6.56-3.86 7.75-7.84.77-2.6.88-5.29.57-7.97a8.22 8.22 0 0 0-5.07-6.85c-2.7-1.24-5.55-1.4-8.64-1.15L152 98.04zM100.06 85.08c.52.31.97.54 1.38.82 2.3 1.5 3.29 3.78 3.56 6.4.55 5.2-1.68 8.8-6.56 10.69a20.76 20.76 0 0 1-6.95 1.42c-4.3.12-8.6.1-12.9.11-.34 0-.68-.1-1.2-.19l5.15-37.1c.5-.06.8-.14 1.1-.13 3.94 0 7.89 0 11.83.05 1.74.02 3.4.45 5 1.15 3.6 1.58 5.3 4.46 5.38 8.26.08 3.56-1.69 6.15-4.8 7.84l-.8.42c-.04.02-.06.08-.19.26zM85.99 98.05c1.71 0 3.22.07 4.7-.03 1.46-.1 2.91-.33 4.2-1.12 1.91-1.16 2.27-2.97 2.06-4.99-.2-1.77-1.28-2.8-2.92-3.3a16.96 16.96 0 0 0-6.7-.42L86 98.05zm2.25-16.17c2.68.17 5.1.2 7.42-.9.36-.17.68-.43 1-.67 1.67-1.33 1.97-5.47-1-6.38-2-.6-4.04-.5-6.22-.36l-1.2 8.31z"/>
    <path fill="#007B3D" d="M25.13 104.35c-.04-.55-.11-1.05-.11-1.54 0-5.67.02-11.34-.02-17 0-1.09.29-1.96 1-2.76 4.13-4.62 9.24-6.36 15.2-4.67 5.9 1.68 9.44 5.75 10.39 11.82.85 5.44-1.04 9.94-5.2 13.51a3 3 0 0 1-2.07.79c-5.97-.03-11.94-.02-17.91-.02-.4 0-.78-.08-1.29-.13z"/>
    <path fill="#007B3D" d="M66.65 104.38h-16.3c.96-1.34 2.14-2.27 3.17-3.34 1.1-1.13 2.22-2.22 3.33-3.33l3.21-3.23 3.33-3.32 3.08-3.07-24.9-24.97c-1.31 1.14-2.58 2.56-3.93 3.89-1.41 1.38-2.8 2.78-4.2 4.18l-4.08 4.08-4.24 4.25V63.16c1.27-.37 39.84-.42 41.53-.06v41.27z"/>
    <path fill="#033C83" d="M231 68.24l-1.4 6.48c-.56-.2-.97-.32-1.37-.49a15.52 15.52 0 0 0-7.08-1.35 9.56 9.56 0 0 0-3.2.78c-2.09.95-2.63 3.07-1.28 4.92.58.8 1.4 1.47 2.22 2.03 1.2.83 2.56 1.45 3.77 2.27 1.41.96 2.85 1.94 4.09 3.1a9.16 9.16 0 0 1 2.86 6.66c.03 1.21.04 2.45-.17 3.63a9.49 9.49 0 0 1-5.28 7c-1.87.97-3.88 1.5-5.94 1.7-4.71.5-9.28-.2-13.7-1.86-.1-.03-.16-.12-.38-.3l1.55-6.63 2.41 1c2.32.91 4.68 1.71 7.2 1.58a9.72 9.72 0 0 0 3.1-.64 4.64 4.64 0 0 0 1.45-7.91c-.92-.85-2.04-1.48-3.12-2.14-1.46-.9-3.03-1.64-4.44-2.6-3.85-2.66-5.3-6.61-4.22-11.15a9.03 9.03 0 0 1 4.22-5.7 13.35 13.35 0 0 1 5.84-1.98c3.8-.37 7.59-.18 11.27.97.47.15.92.36 1.6.63z"/>
  </g>
</svg>
