<svg version="1.1" id="Layer_1" xmlns="http://www.w3.org/2000/svg" xmlns:xlink="http://www.w3.org/1999/xlink" x="0px" y="0px" width="256px" height="168px" viewBox="0 0 256 168" enable-background="new 0 0 256 168" xml:space="preserve">
  <path fill="#FFF" d="M240 .8H16C8 .8.8 7.2.8 16v136.8c0 8 6.4 15.2 15.2 15.2h224c8 0 15.2-6.4 15.2-15.2V16C254.4 7.2 248 .8 240 .8z"/>
  <path fill="#8E8E8E" d="M240.8 2.4c7.2 0 12.8 5.6 12.8 12.8v137.6c0 7.2-5.6 12.8-12.8 12.8H15.2c-7.2 0-12.8-5.6-12.8-12.8V15.2C2.4 8 8 2.4 15.2 2.4h225.6m0-2.4H15.2C7.2 0 0 6.4 0 15.2v137.6c0 8 6.4 15.2 15.2 15.2h225.6c8 0 15.2-6.4 15.2-15.2V15.2C256 6.4 249.6 0 240.8 0z"/>
  <path d="M34.03 150.34v-34.36h12.89c2.62 0 4.73.35 6.31 1.05a8.14 8.14 0 0 1 3.73 3.2 8.47 8.47 0 0 1 1.35 4.54c0 1.47-.4 2.86-1.2 4.15-.8 1.3-2 2.34-3.6 3.14 2.07.61 3.67 1.65 4.79 3.12s1.67 3.2 1.67 5.2c0 1.61-.34 3.1-1.02 4.49s-1.52 2.45-2.52 3.2-2.25 1.31-3.76 1.7c-1.5.38-3.35.57-5.54.57h-13.1zm4.54-19.92H46c2.02 0 3.46-.13 4.34-.4 1.15-.34 2.03-.91 2.61-1.7s.88-1.8.88-3c0-1.15-.27-2.15-.82-3.02a4.15 4.15 0 0 0-2.34-1.78c-1.02-.32-2.76-.48-5.23-.48h-6.87v10.38zm0 15.87h8.56c1.47 0 2.5-.06 3.1-.17a7.41 7.41 0 0 0 2.62-.93c.7-.44 1.28-1.08 1.73-1.91s.68-1.8.68-2.9c0-1.28-.33-2.4-.98-3.34a5.2 5.2 0 0 0-2.73-2 16.97 16.97 0 0 0-5.03-.56h-7.94v11.8zm26.28-12.68c0-5.7 1.53-10.17 4.6-13.4 3.05-3.22 7-4.84 11.85-4.84 3.17 0 6.03.76 8.58 2.27a14.84 14.84 0 0 1 5.82 6.34c1.34 2.72 2 5.79 2 9.23 0 3.48-.7 6.6-2.1 9.35s-3.4 4.83-5.98 6.25-5.36 2.12-8.34 2.12c-3.24 0-6.13-.78-8.68-2.35s-4.47-3.7-5.78-6.4a19.4 19.4 0 0 1-1.97-8.57zm4.69.07c0 4.14 1.1 7.4 3.33 9.78a10.99 10.99 0 0 0 8.38 3.57c3.43 0 6.24-1.2 8.45-3.6 2.21-2.41 3.32-5.82 3.32-10.25 0-2.8-.47-5.23-1.42-7.32a10.9 10.9 0 0 0-10.28-6.57c-3.21 0-5.98 1.1-8.3 3.31-2.33 2.21-3.48 5.9-3.48 11.08zm33.84 16.66v-34.36h4.55v30.3h16.92v4.06h-21.47zm26.97 0v-34.36h24.85v4.06h-20.3v10.52h19.01v4.03h-19v11.7H156v4.05h-25.65zm40.67 0v-30.3H159.7v-4.06h27.23v4.06h-11.36v30.3h-4.55zm18.33-16.73c0-5.7 1.53-10.17 4.6-13.4 3.06-3.22 7-4.84 11.85-4.84 3.18 0 6.03.76 8.58 2.27a14.84 14.84 0 0 1 5.82 6.34c1.34 2.72 2 5.79 2 9.23 0 3.48-.7 6.6-2.1 9.35-1.4 2.75-3.4 4.83-5.98 6.25s-5.36 2.12-8.34 2.12c-3.24 0-6.13-.78-8.67-2.35a15.08 15.08 0 0 1-5.8-6.4 19.4 19.4 0 0 1-1.96-8.57zm4.69.07c0 4.14 1.1 7.4 3.34 9.78a10.99 10.99 0 0 0 8.37 3.57c3.43 0 6.24-1.2 8.45-3.6 2.21-2.41 3.32-5.82 3.32-10.25 0-2.8-.48-5.23-1.42-7.32a10.9 10.9 0 0 0-10.28-6.57c-3.22 0-5.99 1.1-8.3 3.31s-3.49 5.9-3.49 11.08zM216.2 17.07v88h-5.6v-88h5.6zm-10.4 0v88h-16v-88h16zm-24.8 0v88h-4.8v-88h4.8zm-9.6 0v88h-9.6v-88h9.6zm-17.6 0v88h-16v-88h16zm-21.6 0v88h-5.6v-88h5.6zm-12.8 0v88h-12.8v-88h12.8zm-20.8 0v88H85.8v-88h12.8zm-20.8 0v88h-5.6v-88h5.6zm-10.4 0v88h-16v-88h16zm-24 0v88h-9.6v-88h9.6z"/>
</svg>
