<svg version="1.1" id="Layer_1" xmlns="http://www.w3.org/2000/svg" xmlns:xlink="http://www.w3.org/1999/xlink" x="0px" y="0px" width="256px" height="168px" viewBox="0 0 256 168" enable-background="new 0 0 256 168" xml:space="preserve">
  <path fill="#FFF" d="M240 .8H16C8 .8.8 7.2.8 16v136.8c0 8 6.4 15.2 15.2 15.2h224c8 0 15.2-6.4 15.2-15.2V16C254.4 7.2 248 .8 240 .8z"/>
  <path fill="#8E8E8E" d="M240.8 2.4c7.2 0 12.8 5.6 12.8 12.8v137.6c0 7.2-5.6 12.8-12.8 12.8H15.2c-7.2 0-12.8-5.6-12.8-12.8V15.2C2.4 8 8 2.4 15.2 2.4h225.6m0-2.4H15.2C7.2 0 0 6.4 0 15.2v137.6c0 8 6.4 15.2 15.2 15.2h225.6c8 0 15.2-6.4 15.2-15.2V15.2C256 6.4 249.6 0 240.8 0z"/>
  <g>
    <path fill="#FFED00" d="M65 21h126v126H65V21z"/>
    <path fill-rule="evenodd" clip-rule="evenodd" fill="#005AA1" d="M158.14 47.08l10.4 7.13 10.18-6.8.02-13.98-20.6 13.65zM98 121.14l-10.36-7.07-10.38 7.08v13.7L98 121.13zm39.36-60.45l10.15 6.83-48.25 32.66 29.82 20.12 14-9.49-10.88-7.2 25.11-16.83 21 13.93-50.74 33.84-50.08-33.6 59.87-40.26zm-19.01 46.32l-10.15-6.83 48.25-32.65-29.82-20.13-14 9.5 10.88 7.2L98.4 80.93l-21-13.94 50.56-33.83 50.22 33.74-59.83 40.11z"/>
  </g>
</svg>
