<svg version="1.1" id="Layer_1" xmlns="http://www.w3.org/2000/svg" xmlns:xlink="http://www.w3.org/1999/xlink" x="0px" y="0px" width="256px" height="168px" viewBox="0 0 256 168" enable-background="new 0 0 256 168" xml:space="preserve">
  <path fill="#FFF" d="M240 .8H16C8 .8.8 7.2.8 16v136.8c0 8 6.4 15.2 15.2 15.2h224c8 0 15.2-6.4 15.2-15.2V16C254.4 7.2 248 .8 240 .8z"/>
  <path fill="#8E8E8E" d="M240.8 2.4c7.2 0 12.8 5.6 12.8 12.8v137.6c0 7.2-5.6 12.8-12.8 12.8H15.2c-7.2 0-12.8-5.6-12.8-12.8V15.2C2.4 8 8 2.4 15.2 2.4h225.6m0-2.4H15.2C7.2 0 0 6.4 0 15.2v137.6c0 8 6.4 15.2 15.2 15.2h225.6c8 0 15.2-6.4 15.2-15.2V15.2C256 6.4 249.6 0 240.8 0z"/>
  <g>
    <g fill="#007B3D">
      <path d="M89.22 98.73c-.07-1.04-.2-1.97-.2-2.9-.01-10.61.03-21.23-.04-31.85a7.2 7.2 0 0 1 1.89-5.16c7.73-8.67 17.3-11.91 28.47-8.75 11.05 3.13 17.69 10.77 19.47 22.15 1.6 10.18-1.96 18.62-9.76 25.31a5.6 5.6 0 0 1-3.86 1.47c-11.19-.05-22.38-.02-33.56-.03-.74 0-1.47-.14-2.41-.24z"/>
      <path d="M167.02 98.78h-30.53c1.79-2.51 4-4.25 5.94-6.26 2.04-2.11 4.16-4.15 6.23-6.23l6.02-6.05 6.24-6.23 5.78-5.76L120 21.48c-2.43 2.13-4.82 4.79-7.35 7.28-2.64 2.58-5.24 5.21-7.85 7.83l-7.65 7.64-7.95 7.96V21.56c2.38-.68 74.64-.77 77.8-.1v77.32z"/>
    </g>
    <g fill="#033C83">
      <path d="M86.45 108.97l-5.42 37.31h7.67c.32-2.24.64-4.43.94-6.63l.91-6.61c.31-2.26.61-4.51.95-6.76.32-2.14.44-4.31.98-6.41h.33c3.03 8.82 6.07 17.65 9.1 26.52 3.44-.07 6.7.13 10-.14l5.46-37.17h-7.57l-3.84 26.28-.36.02c-.61-1.7-1.23-3.4-1.82-5.1-2.34-6.63-4.66-13.26-6.99-19.9-.5-1.4-.5-1.4-2.04-1.41h-8.3zM176.4 123.88h-8.5l-4.36-.07 1.2-8.51h14.4l.73-6.07c-1.63-.37-21.06-.32-22.27.05l-5.22 36.98h22.38c.55-1.64.98-5.14.75-6.2-4.65-.13-9.34.08-14.2-.13l1.35-9.75h12.92l.81-6.3zM116.87 146.27l5.22-37.1c.39-.08.68-.18.97-.18 4.2 0 8.4-.02 12.59.06 2.34.05 4.6.62 6.75 1.57 4.21 1.85 6.85 5.08 8.1 9.46a23.61 23.61 0 0 1 .18 12.6c-1.9 7.25-6.78 11.4-13.94 12.97-1.92.42-3.9.61-5.86.66-4.2.11-8.4.06-12.6.07-.4 0-.79-.06-1.41-.11zm8.94-6.36c3.16.21 6.01.17 8.8-.68 4-1.22 6.56-3.86 7.74-7.84.78-2.6.89-5.3.58-7.97a8.22 8.22 0 0 0-5.08-6.86c-2.69-1.23-5.54-1.39-8.63-1.14l-3.41 24.49zM73.87 126.95c.52.3.97.54 1.38.81 2.3 1.52 3.28 3.79 3.56 6.4.55 5.2-1.69 8.8-6.56 10.7a20.76 20.76 0 0 1-6.96 1.42c-4.3.12-8.6.09-12.9.1-.33 0-.67-.1-1.2-.18l5.16-37.1c.5-.07.8-.14 1.09-.14 3.95.01 7.9.01 11.84.06 1.74.02 3.4.45 5 1.15 3.6 1.57 5.3 4.46 5.38 8.26.08 3.56-1.69 6.15-4.8 7.83l-.8.43c-.04.02-.06.08-.2.26zm-14.08 12.96c1.72 0 3.22.08 4.71-.02 1.46-.1 2.91-.33 4.2-1.12 1.9-1.16 2.27-2.97 2.05-5-.18-1.76-1.27-2.79-2.9-3.28a16.96 16.96 0 0 0-6.7-.43l-1.35 9.85zm2.26-16.16c2.68.17 5.1.2 7.42-.9.36-.17.68-.43 1-.68 1.67-1.32 1.97-5.46-1-6.37-2-.61-4.04-.51-6.22-.36l-1.2 8.3zM204.8 110.11l-1.4 6.48c-.55-.2-.96-.33-1.36-.49a15.52 15.52 0 0 0-7.08-1.36 9.57 9.57 0 0 0-3.2.79c-2.09.95-2.63 3.07-1.28 4.92.58.8 1.4 1.46 2.22 2.02 1.2.83 2.56 1.45 3.77 2.28 1.41.96 2.85 1.94 4.09 3.1a9.14 9.14 0 0 1 2.86 6.66c.03 1.2.04 2.44-.17 3.63a9.5 9.5 0 0 1-5.28 7c-1.87.97-3.88 1.5-5.94 1.7-4.71.5-9.28-.2-13.7-1.86-.1-.03-.16-.12-.38-.3l1.55-6.63 2.42 1c2.31.9 4.67 1.71 7.2 1.57a9.73 9.73 0 0 0 3.09-.63 4.64 4.64 0 0 0 1.45-7.92c-.91-.84-2.04-1.47-3.12-2.13-1.46-.9-3.03-1.64-4.44-2.61-3.85-2.65-5.3-6.6-4.22-11.14a9.03 9.03 0 0 1 4.22-5.7 13.35 13.35 0 0 1 5.85-1.98c3.8-.37 7.58-.18 11.26.97.47.15.92.36 1.6.63z"/>
    </g>
  </g>
</svg>
