<svg version="1.1" id="Layer_1" xmlns="http://www.w3.org/2000/svg" xmlns:xlink="http://www.w3.org/1999/xlink" x="0px" y="0px" width="256px" height="168px" viewBox="0 0 256 168" enable-background="new 0 0 256 168" xml:space="preserve">
  <path fill="#FFED00" d="M240 0H16C7.2 0 0 7.2 0 16v136c0 8.8 7.2 16 16 16h224c8.8 0 16-7.2 16-16V16c0-8.8-7.2-16-16-16z"/>
  <path fill-rule="evenodd" clip-rule="evenodd" fill="#005AA1" d="M165.35 38.26l12.89 8.82 12.6-8.42.03-17.32-25.52 16.92zm-74.52 91.76L78 121.26l-12.86 8.77V147l25.7-16.98zm48.77-74.9l12.58 8.46-59.8 40.46 36.96 24.94 17.35-11.76-13.48-8.93 31.11-20.85 26.03 17.27-62.89 41.92L65.41 105l74.19-49.88zm-23.56 57.4l-12.58-8.47 59.8-40.46-36.95-24.94-17.36 11.76 13.48 8.93-31.1 20.85-26.04-17.27L127.96 21l62.21 41.81-74.13 49.7z"/>
</svg>
