<svg version="1.1" id="Layer_1" xmlns="http://www.w3.org/2000/svg" xmlns:xlink="http://www.w3.org/1999/xlink" x="0px" y="0px" width="256px" height="168px" viewBox="0 0 256 168" enable-background="new 0 0 256 168" xml:space="preserve">
  <path fill="#FFF" d="M240 .4H16C8 .4.8 6.8.8 15.6v136.8c0 8 6.4 15.2 15.2 15.2h224c8 0 15.2-6.4 15.2-15.2V15.6C254.4 6.8 248 .4 240 .4z"/>
  <path fill="#8E8E8E" d="M240.8 2.4c7.2 0 12.8 5.6 12.8 12.8v137.6c0 7.2-5.6 12.8-12.8 12.8H15.2c-7.2 0-12.8-5.6-12.8-12.8V15.2C2.4 8 8 2.4 15.2 2.4h225.6m0-2.4H15.2C7.2 0 0 6.4 0 15.2v137.6c0 8 6.4 15.2 15.2 15.2h225.6c8 0 15.2-6.4 15.2-15.2V15.2C256 6.4 249.6 0 240.8 0z"/>
  <path fill="#DB0034" d="M191 147H92.58S65 147 65 119.42V21h98.42S191 21 191 48.58V147z"/>
  <path fill="#FFF" d="M122.32 129.3h-6.2V97.5h6.2zM138.12 129.3h-10.16V85.65h10.16z"/>
  <path fill="#FFF" d="M110.55 55.27s10.24-10.01 27.5-6.72c0 0 7.6 1.19 13.43 6.36 0 0 .86.8 1.53.14 0 0 .84-.66-.1-1.65 0 0-5-6.95-14.9-10.02 0 0-13.56-4.86-27.51 1.71 0 0-8.59 3.56-13.35 13.25 0 0-6.78 2.2-11.87 5.05 0 0-1.5.6-.94 1.76 0 0 .49.84 1.8.22 0 0 4.73-1.63 9.28-2.65 0 0-3.66 9.5.17 21.3 1.7 5.24 4.8 10.59 9.55 14.88 0 0 .77.82 1.62.26 0 0 .73-.53.22-1.4 0 0-3.79-5.7-5.26-13.8-1.23-6.6-.65-15.73 3.94-22.96 0 0 17.47-2.44 32.36 3.17 0 0 25.29 8.25 18.92 23.56 0 0-1.85 5.32-8.83 10.12 0 0-1.17.69-.53 1.66 0 0 .52.76 1.72.28 0 0 10.7-3.48 15.3-12.07 0 0 9.37-14.32-12.7-26.01 0 0-6.07-3.25-13.88-4.98 0 0-14.05-3.48-27.47-1.46"/>
</svg>
