<svg version="1.1" id="Layer_1" xmlns="http://www.w3.org/2000/svg" xmlns:xlink="http://www.w3.org/1999/xlink" x="0px" y="0px" width="256px" height="168px" viewBox="0 0 256 168" enable-background="new 0 0 256 168" xml:space="preserve">
  <path fill="#FFF" d="M240 .8H16C8 .8 1.6 7.2 1.6 16v136c0 8 6.4 15.2 15.2 15.2h224c8 0 15.2-6.4 15.2-15.2V16c-1.6-8.8-8-15.2-16-15.2z"/>
  <path fill="#8E8E8E" d="M240.8 2.4c7.2 0 12.8 5.6 12.8 12.8v137.6c0 7.2-5.6 12.8-12.8 12.8H15.2c-7.2 0-12.8-5.6-12.8-12.8V15.2C2.4 8 8 2.4 15.2 2.4h225.6m0-2.4H15.2C6.4 0 0 6.4 0 15.2v137.6c0 8 6.4 15.2 15.2 15.2h225.6c8 0 15.2-6.4 15.2-15.2V15.2C256 6.4 249.6 0 240.8 0z"/>
  <g>
    <path fill="#0270B7" d="M60.46 79.51a12.57 12.57 0 0 0-3.84-3 9.78 9.78 0 0 0-4.45-.98c-2.53 0-4.65.78-6.44 2.3a10.03 10.03 0 0 0-3.24 6.2c-.37 2.5.03 4.52 1.28 6 1.22 1.52 3.07 2.26 5.53 2.26 1.49 0 3.04-.33 4.66-.94a28.6 28.6 0 0 0 5.46-3.04l-2.97 16.09a32.68 32.68 0 0 1-5.26 1.55c-1.72.34-3.4.5-5.09.5-2.1 0-4.08-.23-5.9-.7A17.9 17.9 0 0 1 27.96 95.5c-1.42-3.34-1.82-7.15-1.15-11.47.5-3.2 1.48-6.17 3.04-8.9a25.7 25.7 0 0 1 5.9-7.18 25.69 25.69 0 0 1 8.09-4.79 27.1 27.1 0 0 1 9.34-1.62 22.54 22.54 0 0 1 9.71 2.16l-2.43 15.81zm21.21 10.26h6.38l-.54-4.83a75.5 75.5 0 0 1-.47-5.7c-.04-1.3.03-2.56.13-3.7h-.23c-.27 1.14-.61 2.4-1.02 3.7-.47 1.36-1.18 3.24-2.19 5.7l-2.06 4.83zM58.88 105.3L80.7 62.55h17.13l8.36 42.76H89.67l-.54-5.36h-11.6l-2.16 5.36H58.88zm51.26 0l6.57-42.76h15.62l-6.55 42.76h-15.64zM205 89.77h6.36l-.57-4.83c-.23-2.46-.4-4.34-.44-5.7-.03-1.3.04-2.56.14-3.7h-.24c-.23 1.14-.6 2.4-1 3.7a91.02 91.02 0 0 1-2.2 5.7L205 89.77zm-22.8 15.54L204 62.55h17.13l8.37 42.76h-16.53l-.53-5.36h-11.6l-2.16 5.36h-16.5zM178.9 105.92h-19.13l-11-20.94h19.13z"/>
    <path fill="#F4812A" d="M189.21 61.98H170.1l-19.72 20.94h19.11z"/>
    <path fill="#0270B7" d="M139.24 61.98h19.11l11 20.94h-19.12z"/>
    <path fill="#F4812A" d="M128.88 105.92h19.16l19.72-20.94h-19.11z"/>
  </g>
</svg>
