<svg version="1.1" id="Layer_1" xmlns="http://www.w3.org/2000/svg" xmlns:xlink="http://www.w3.org/1999/xlink" x="0px" y="0px" width="256px" height="168px" viewBox="0 0 256 168" enable-background="new 0 0 256 168" xml:space="preserve">
  <path fill="#FFF" d="M240 .8H16C8 .8.8 7.2.8 16v136.8c0 8 6.4 15.2 15.2 15.2h224c8 0 15.2-6.4 15.2-15.2V16C254.4 7.2 248 .8 240 .8z"/>
  <path fill="#8E8E8E" d="M240.8 2.4c7.2 0 12.8 5.6 12.8 12.8v137.6c0 7.2-5.6 12.8-12.8 12.8H15.2c-7.2 0-12.8-5.6-12.8-12.8V15.2C2.4 8 8 2.4 15.2 2.4h225.6m0-2.4H15.2C7.2 0 0 6.4 0 15.2v137.6c0 8 6.4 15.2 15.2 15.2h225.6c8 0 15.2-6.4 15.2-15.2V15.2C256 6.4 249.6 0 240.8 0z"/>
  <g>
    <path d="M62.81 66.25l4.01 1.23c-.88 4.12-2.43 7.2-4.64 9.22a11.5 11.5 0 0 1-8.08 3.04c-2.78 0-5.17-.68-7.14-2.03-1.98-1.36-3.6-3.55-4.86-6.55-1.26-3-1.9-6.56-1.9-10.65 0-4.04.64-7.47 1.9-10.26a14.48 14.48 0 0 1 5.13-6.34 12.82 12.82 0 0 1 7.21-2.14c2.9 0 5.4.9 7.5 2.7 2.08 1.81 3.54 4.46 4.38 7.96l-3.9 1.13c-1.34-5.1-4.02-7.64-8.05-7.64-2 0-3.75.52-5.22 1.54-1.47 1.03-2.64 2.63-3.52 4.8-.88 2.18-1.32 4.92-1.32 8.24 0 5.04.89 8.8 2.66 11.32a8.24 8.24 0 0 0 7.06 3.77c2.17 0 4.04-.77 5.62-2.31 1.58-1.55 2.63-3.89 3.16-7.03zM70.68 61.24c0-6.25 1.38-11.06 4.13-14.43 2.76-3.36 6.19-5.04 10.29-5.04 2.66 0 5.08.75 7.27 2.25a15.21 15.21 0 0 1 5.19 6.55c1.27 2.87 1.91 6.27 1.91 10.22 0 5.45-1.23 9.88-3.7 13.3-2.73 3.77-6.29 5.65-10.7 5.65-4.43 0-8-1.93-10.7-5.8-2.47-3.5-3.7-7.74-3.7-12.7zm4.1.07c0 4.53 1 8.04 3 10.53 1.99 2.5 4.42 3.75 7.27 3.75 2.92 0 5.37-1.26 7.35-3.78 1.98-2.52 2.97-6.23 2.97-11.13 0-3.15-.51-5.98-1.53-8.47a10.42 10.42 0 0 0-3.54-4.57 9 9 0 0 0-12.6 2.05c-1.95 2.5-2.92 6.38-2.92 11.62zM104.4 79.12v-36.7h4.09l15.82 28.87V42.42h3.8v36.7h-4.07l-15.8-28.88v28.88h-3.84zM142.59 79.12V46.75h-9.92v-4.33h23.86v4.33h-9.97v32.37h-3.97zM160.54 79.12v-36.7h13.34c2.8 0 4.84.34 6.17 1.02a7.85 7.85 0 0 1 3.27 3.42 11.57 11.57 0 0 1 1.28 5.54c0 2.77-.72 5.01-2.17 6.73-1.44 1.72-3.54 2.82-6.3 3.28 1.12.67 1.98 1.35 2.56 2.04a25.92 25.92 0 0 1 3.13 4.68l5.26 10h-5.01l-4.02-7.64c-1.55-2.99-2.73-5-3.52-6.03a7 7 0 0 0-2.3-2.1 7.32 7.32 0 0 0-3.1-.54h-4.61v16.3h-3.98zm3.98-20.5h8.56c1.87 0 3.29-.23 4.25-.68a5.12 5.12 0 0 0 2.3-2.13c.57-.96.86-2.1.86-3.38a5.8 5.8 0 0 0-1.63-4.36c-1.09-1.06-2.7-1.6-4.83-1.6h-9.52v12.15zM187.6 79.12l11.6-36.7h4.27l12.32 36.7h-4.55l-3.5-11.11h-12.67l-3.27 11.11h-4.2zm8.64-15.06h10.25l-3.13-10.17c-.97-3.12-1.68-5.66-2.12-7.62-.4 2.36-.95 4.7-1.65 7.02l-3.35 10.77z"/>
    <g>
      <path d="M28 125.61v-36.7h21.76v4.32H31.98v11.22h16.65v4.33H31.98v12.5h18.48v4.33H28zM55.84 125.61v-36.7h4.09l15.82 28.87V88.9h3.8v36.71h-4.07l-15.8-28.88v28.88h-3.84zM94.03 125.61V93.23H84.1V88.9h23.86v4.33H98v32.38h-3.98zM111.98 125.61v-36.7h13.34c2.8 0 4.85.34 6.18 1.02a7.86 7.86 0 0 1 3.26 3.41c.85 1.6 1.28 3.45 1.28 5.55 0 2.77-.72 5.01-2.17 6.73-1.43 1.72-3.54 2.81-6.3 3.28a10.5 10.5 0 0 1 2.57 2.04 25.4 25.4 0 0 1 3.12 4.68l5.26 10h-5l-4.02-7.64c-1.56-2.98-2.73-5-3.53-6.03a6.87 6.87 0 0 0-2.3-2.1 7.22 7.22 0 0 0-3.1-.54h-4.6v16.3h-4zm3.98-20.5h8.56c1.87 0 3.29-.23 4.26-.69a5.15 5.15 0 0 0 2.3-2.12c.57-.97.85-2.1.85-3.39a5.8 5.8 0 0 0-1.63-4.36c-1.08-1.06-2.7-1.59-4.83-1.59h-9.51v12.14zM142.42 125.61v-36.7h21.76v4.32H146.4v11.22h16.65v4.33H146.4v12.5h18.48v4.33h-22.46zM184.56 111.21v-4.33l12.74-.03v13.65a21.64 21.64 0 0 1-6.06 4.3 15.29 15.29 0 0 1-6.43 1.43c-2.94 0-5.55-.73-7.87-2.2a15.13 15.13 0 0 1-5.46-6.44c-1.35-2.83-2.02-6.21-2.02-10.17 0-4 .68-7.5 2.03-10.48s3.12-5.16 5.3-6.57a14 14 0 0 1 7.77-2.12c2.2 0 4.13.41 5.78 1.23 1.65.82 3.02 1.98 4.08 3.48 1.07 1.5 1.87 3.56 2.4 6.18l-3.57 1.2a13.5 13.5 0 0 0-1.83-4.64 7.58 7.58 0 0 0-2.9-2.42 9.28 9.28 0 0 0-4.06-.87c-2.19 0-4.07.53-5.64 1.6a10.87 10.87 0 0 0-3.81 4.94 20.68 20.68 0 0 0-1.44 8.2c0 4.9 1.03 8.59 3.08 11.03a9.97 9.97 0 0 0 8 3.67c1.58 0 3.18-.37 4.83-1.12a12.24 12.24 0 0 0 3.92-2.68v-6.83h-8.84zM199.81 125.61l11.6-36.7h4.26L228 125.6h-4.56l-3.5-11.12h-12.66l-3.27 11.12h-4.2zm8.63-15.07h10.25l-3.12-10.17c-.97-3.12-1.68-5.66-2.13-7.61a53.7 53.7 0 0 1-1.65 7.01l-3.34 10.77z"/>
    </g>
  </g>
</svg>
