<svg version="1.1" id="Layer_1" xmlns="http://www.w3.org/2000/svg" xmlns:xlink="http://www.w3.org/1999/xlink" x="0px" y="0px" width="256px" height="168px" viewBox="0 0 256 168" enable-background="new 0 0 256 168" xml:space="preserve">
  <path fill="#FFF" d="M240 .8H16C8 .8.8 7.2.8 16v136.8c0 8 6.4 15.2 15.2 15.2h224c8 0 15.2-6.4 15.2-15.2V16C254.4 7.2 248 .8 240 .8z"/>
  <path fill="#8E8E8E" d="M240.8 2.4c7.2 0 12.8 5.6 12.8 12.8v137.6c0 7.2-5.6 12.8-12.8 12.8H15.2c-7.2 0-12.8-5.6-12.8-12.8V15.2C2.4 8 8 2.4 15.2 2.4h225.6m0-2.4H15.2C7.2 0 0 6.4 0 15.2v137.6c0 8 6.4 15.2 15.2 15.2h225.6c8 0 15.2-6.4 15.2-15.2V15.2C256 6.4 249.6 0 240.8 0z"/>
  <g>
    <g transform="translate(-65.55 -385.39) scale(3.5433)">
      <path fill="none" d="M36.58 137.64c-3.55 3.24-8.03.1-7.84-3.47.14-2.65 2.87-5.45 6.35-4.08l1.26-2.92c-7.53-2.46-11.54 3.98-10.68 8.32 1.38 7.02 8.94 8.34 13.1 4.45l-2.19-2.3zm6.7-5.53c.1-2.83-2.8-3.41-4.35-4.03l-1.27 2.9 2.56 1.13.07 9.7h2.96l.03-9.7zm5.62 8.77l1.67-2.66m0 0c2.17 1.15 4.05.95 5.65-.6l2.3 2.3c-3.4 2.64-5.88 2.82-9.62.96m-2.32-2.32a7.72 7.72 0 0 1 3.14-11.28 7.88 7.88 0 0 1 10.92 5.29l-14.06 5.99z"/>
      <path fill="none" d="M48.42 134.88c-.05-5.28 5.52-6.66 8.05-3.46l-8.05 3.46zm16.68 3.21l-.07-15.03h-2.92l.03 15.2c-.01 2.82 2.9 3.2 4.32 3.86l1.17-2.9-2.53-1.13zm13.93-.33c-2.93 3.2-9.63-.44-7.21-5.36l-2.93-1.46c-3.26 7.39 5.07 14.88 12.24 9.15l-2.1-2.33zm1.05-1.41a4.56 4.56 0 0 0-7.22-5.36l-2.16-2.4a7.8 7.8 0 0 1 12.27 9.12l-2.89-1.37z"/>
      <ellipse fill="none" cx="41.77" cy="124.92" rx="2.11" ry="2.1"/>
      <path d="M36.58 137.64c-3.55 3.24-8.03.1-7.84-3.47.14-2.65 2.87-5.45 6.35-4.08l1.26-2.92c-7.53-2.46-11.54 3.98-10.68 8.32 1.38 7.02 8.94 8.34 13.1 4.45l-2.19-2.3zm3.65-5.53l.06 9.7h2.96l.03-9.7c.1-2.83-2.8-3.41-4.35-4.03l-1.26 2.9 2.55 1.13zm9.5-4.83a7.72 7.72 0 0 0-3.15 11.28l14.06-5.99a7.88 7.88 0 0 0-10.92-5.29zm-1.3 7.6c-.06-5.28 5.51-6.66 8.04-3.46l-8.05 3.46zm7.79 2.75c-1.6 1.54-3.48 1.74-5.65.6l-1.67 2.66c3.74 1.86 6.21 1.67 9.61-.97l-2.3-2.3zm5.88-14.57l.04 15.2c-.01 2.82 2.9 3.2 4.32 3.86l1.17-2.9-2.53-1.13-.07-15.03H62.1zm6.8 7.88c-3.27 7.39 5.06 14.88 12.23 9.15l-2.1-2.33c-2.93 3.2-9.63-.44-7.21-5.35l-2.93-1.47z"/>
      <path fill="#01AEF0" d="M72.86 131a4.56 4.56 0 0 1 7.22 5.35l2.9 1.36a7.8 7.8 0 0 0-12.28-9.11l2.16 2.4zm-31.09-3.98a2.1 2.1 0 0 0 2.11-2.1 2.1 2.1 0 0 0-2.1-2.1 2.1 2.1 0 0 0-2.12 2.1c0 1.16.95 2.1 2.11 2.1z"/>
    </g>
  </g>
</svg>
