<svg version="1.1" id="Layer_1" xmlns="http://www.w3.org/2000/svg" xmlns:xlink="http://www.w3.org/1999/xlink" x="0px" y="0px" width="256px" height="168px" viewBox="0 0 256 168" enable-background="new 0 0 256 168" xml:space="preserve">
  <path fill="#FFF" d="M240 .8H16C8 .8.8 7.2.8 16v136.8c0 8 6.4 15.2 15.2 15.2h224c8 0 15.2-6.4 15.2-15.2V16C254.4 7.2 248 .8 240 .8z"/>
  <path fill="#8E8E8E" d="M240.8 2.4c7.2 0 12.8 5.6 12.8 12.8v137.6c0 7.2-5.6 12.8-12.8 12.8H15.2c-7.2 0-12.8-5.6-12.8-12.8V15.2C2.4 8 8 2.4 15.2 2.4h225.6m0-2.4H15.2C7.2 0 0 6.4 0 15.2v137.6c0 8 6.4 15.2 15.2 15.2h225.6c8 0 15.2-6.4 15.2-15.2V15.2C256 6.4 249.6 0 240.8 0z"/>
  <g>
    <path fill="#01A7DB" d="M92.43 54.31V24.04A3.05 3.05 0 0 1 95.47 21h32.76a3.04 3.04 0 0 1 3.04 3.04v30.27c0 .56-.45 1.02-1.01 1.02H93.44c-.56 0-1.01-.46-1.01-1.02zm26.93 10.37a6.32 6.32 0 1 1-12.63 0 6.32 6.32 0 0 1 12.63 0zm-3.16 0a3.16 3.16 0 1 0-6.31 0 3.16 3.16 0 0 0 6.31 0zm-8.6-6.31H93.45c-.56 0-1.02.45-1.02 1.01v3.08c0 .56.46 1.02 1.02 1.02h11.34a8.33 8.33 0 0 1 2.81-5.11zm44.8 6.31a6.32 6.32 0 1 1-12.62 0 6.32 6.32 0 0 1 12.63 0zm-3.15 0a3.16 3.16 0 1 0-6.31 0 3.16 3.16 0 0 0 6.31 0zm14.32-5.3v3.08c0 .56-.45 1.02-1.01 1.02h-8.22a8.35 8.35 0 0 0-8.25-7.14c-4.2 0-7.66 3.1-8.25 7.14H121.3a8.34 8.34 0 0 0-2.8-5.11h15.68V29.33c0-1.12.91-2.03 2.03-2.03h9.59c2.7 0 5.22 1.34 6.73 3.58l6.18 9.15a8.13 8.13 0 0 1 1.39 4.54v13.8h2.47c.56 0 1.01.45 1.01 1.01zm-10.3-19.12l-4.93-7.02c-.2-.27-.5-.43-.83-.43h-7.71c-.56 0-1.02.45-1.02 1.01v7.03c0 .56.46 1.01 1.02 1.01h12.65c.82 0 1.3-.92.83-1.6z"/>
    <path d="M73.08 97.63l3.37 1.04c-.75 3.47-2.05 6.06-3.91 7.77a9.68 9.68 0 0 1-6.8 2.56c-2.35 0-4.36-.57-6.03-1.72-1.66-1.14-3.03-2.98-4.09-5.52a23.1 23.1 0 0 1-1.6-8.97c0-3.4.54-6.28 1.6-8.64a12.22 12.22 0 0 1 4.32-5.34c1.82-1.2 3.84-1.81 6.08-1.81 2.45 0 4.56.76 6.32 2.28 1.76 1.52 2.99 3.76 3.7 6.7l-3.3.96c-1.13-4.3-3.39-6.44-6.78-6.44-1.7 0-3.16.43-4.4 1.3s-2.22 2.21-2.96 4.04-1.11 4.15-1.11 6.95c0 4.24.74 7.41 2.23 9.53a6.93 6.93 0 0 0 5.95 3.18c1.83 0 3.4-.65 4.74-1.95 1.33-1.3 2.22-3.27 2.67-5.92zM79.7 93.41c0-5.27 1.16-9.32 3.48-12.16C85.5 78.42 88.4 77 91.85 77c2.24 0 4.28.63 6.12 1.9 1.84 1.26 3.3 3.1 4.38 5.52a21.08 21.08 0 0 1 1.61 8.61c0 4.59-1.04 8.32-3.12 11.2-2.3 3.18-5.3 4.77-9 4.77-3.75 0-6.76-1.63-9.04-4.9-2.06-2.95-3.1-6.51-3.1-10.69zm3.46.05c0 3.82.84 6.78 2.52 8.88 1.68 2.1 3.73 3.16 6.13 3.16 2.46 0 4.52-1.06 6.2-3.19 1.66-2.13 2.5-5.25 2.5-9.37 0-2.66-.44-5.04-1.3-7.14a8.8 8.8 0 0 0-2.98-3.85 7.58 7.58 0 0 0-10.61 1.72c-1.64 2.11-2.46 5.38-2.46 9.8zM108.12 108.48V77.55h3.43l13.34 24.33V77.55h3.2v30.93h-3.43l-13.31-24.34v24.34h-3.23zM140.29 108.48V81.2h-8.35v-3.65h20.1v3.65h-8.4v27.28h-3.35zM155.41 108.48V77.55h11.25c2.35 0 4.08.29 5.2.87a6.57 6.57 0 0 1 2.75 2.87 9.74 9.74 0 0 1 1.07 4.67c0 2.34-.6 4.23-1.82 5.67-1.22 1.45-2.99 2.37-5.3 2.77a8.63 8.63 0 0 1 2.15 1.72c1 1.17 1.87 2.49 2.63 3.94l4.43 8.42h-4.22l-3.38-6.44a40.69 40.69 0 0 0-2.97-5.08 5.85 5.85 0 0 0-1.93-1.76c-.63-.31-1.5-.46-2.63-.46h-3.87v13.73h-3.36zm3.36-17.28h7.21c1.58 0 2.77-.2 3.59-.57a4.36 4.36 0 0 0 1.94-1.8c.48-.8.72-1.76.72-2.84 0-1.56-.46-2.8-1.37-3.68-.92-.9-2.27-1.34-4.08-1.34h-8.01V91.2zM178.22 108.48L188 77.55h3.59l10.38 30.93h-3.84l-2.95-9.37h-10.67l-2.75 9.37h-3.54zm7.28-12.7h8.63l-2.63-8.57a93.7 93.7 0 0 1-1.8-6.41c-.32 1.98-.78 3.95-1.38 5.9l-2.82 9.08z"/>
    <g>
      <path d="M43.76 146.47v-30.92h18.33v3.65H47.1v9.45h14.03v3.65H47.1v10.52h15.56v3.65H43.75zM67.21 146.47v-30.92h3.44l13.33 24.33v-24.33h3.2v30.92h-3.43l-13.31-24.33v24.33H67.2zM99.38 146.47V119.2h-8.36v-3.65h20.1v3.65h-8.39v27.27h-3.36zM114.5 146.47v-30.92h11.24c2.35 0 4.08.29 5.2.87a6.58 6.58 0 0 1 2.75 2.88 9.72 9.72 0 0 1 1.08 4.66c0 2.34-.61 4.23-1.83 5.67-1.21 1.45-2.98 2.37-5.3 2.77a8.74 8.74 0 0 1 2.16 1.72c1 1.17 1.87 2.49 2.63 3.94l4.43 8.41h-4.22l-3.38-6.43a40.53 40.53 0 0 0-2.97-5.08 5.83 5.83 0 0 0-1.94-1.77c-.62-.3-1.5-.45-2.62-.45h-3.88v13.73h-3.35zm3.36-17.27h7.2a8.8 8.8 0 0 0 3.6-.57 4.36 4.36 0 0 0 1.93-1.8c.48-.81.72-1.76.72-2.84a4.9 4.9 0 0 0-1.37-3.68c-.91-.9-2.27-1.34-4.07-1.34h-8.02v10.23zM140.15 146.47v-30.92h18.33v3.65H143.5v9.45h14.03v3.65H143.5v10.52h15.57v3.65h-18.92zM175.65 134.35v-3.65l10.74-.02v11.5c-1.65 1.6-3.35 2.8-5.1 3.6s-3.57 1.22-5.43 1.22c-2.47 0-4.68-.62-6.62-1.85a12.7 12.7 0 0 1-4.61-5.43 19.79 19.79 0 0 1-1.7-8.57c0-3.38.57-6.32 1.7-8.82 1.15-2.51 2.64-4.35 4.48-5.54a11.78 11.78 0 0 1 6.54-1.79c1.85 0 3.48.34 4.87 1.04 1.4.69 2.54 1.66 3.44 2.93.9 1.26 1.58 3 2.02 5.2l-3 1.02a11.32 11.32 0 0 0-1.55-3.91 6.42 6.42 0 0 0-2.45-2.04 7.72 7.72 0 0 0-3.41-.73c-1.85 0-3.43.44-4.76 1.34a9.17 9.17 0 0 0-3.2 4.17 17.44 17.44 0 0 0-1.22 6.9c0 4.13.87 7.24 2.6 9.3a8.39 8.39 0 0 0 6.74 3.1c1.32 0 2.68-.33 4.07-.96a10.41 10.41 0 0 0 3.3-2.25v-5.76h-7.45zM188.5 146.47l9.77-30.92h3.59l10.39 30.92h-3.84l-2.95-9.36h-10.67l-2.76 9.36h-3.53zm7.27-12.7h8.64l-2.64-8.56a92.66 92.66 0 0 1-1.79-6.41c-.32 1.98-.79 3.95-1.39 5.9l-2.82 9.08z"/>
    </g>
  </g>
</svg>
