<svg version="1.1" id="Layer_1" xmlns="http://www.w3.org/2000/svg" xmlns:xlink="http://www.w3.org/1999/xlink" x="0px" y="0px" width="256px" height="168px" viewBox="0 0 256 168" enable-background="new 0 0 256 168" xml:space="preserve">
  <path fill="#FFF" d="M240 .8H16C8 .8 1.6 7.2 1.6 16v136c0 8 6.4 15.2 15.2 15.2h224c8 0 15.2-6.4 15.2-15.2V16c-1.6-8.8-8-15.2-16-15.2z"/>
  <path fill="#8E8E8E" d="M240.8 2.4c7.2 0 12.8 5.6 12.8 12.8v137.6c0 7.2-5.6 12.8-12.8 12.8H15.2c-7.2 0-12.8-5.6-12.8-12.8V15.2C2.4 8 8 2.4 15.2 2.4h225.6m0-2.4H15.2C6.4 0 0 6.4 0 15.2v137.6c0 8 6.4 15.2 15.2 15.2h225.6c8 0 15.2-6.4 15.2-15.2V15.2C256 6.4 249.6 0 240.8 0z"/>
  <g>
    <path fill="#0270B7" d="M184.9 147h-54.83L98.55 86.95h54.83z"/>
    <path fill="#F4812A" d="M214.5 21h-54.84l-56.55 60.06h54.82z"/>
    <path fill="#0270B7" d="M71.2 21H126l31.52 60.06h-54.82z"/>
    <path fill="#F4812A" d="M41.5 147h54.92L153 86.95H98.17z"/>
  </g>
</svg>
