<svg version="1.1" id="Layer_1" xmlns="http://www.w3.org/2000/svg" xmlns:xlink="http://www.w3.org/1999/xlink" x="0px" y="0px" width="256px" height="168px" viewBox="0 0 256 168" enable-background="new 0 0 256 168" xml:space="preserve">
  <path fill="#FFF" d="M240 .8H16C8 .8.8 7.2.8 16v136.8c0 8 6.4 15.2 15.2 15.2h224c8 0 15.2-6.4 15.2-15.2V16C254.4 7.2 248 .8 240 .8z"/>
  <path fill="#8E8E8E" d="M240.8 2.4c7.2 0 12.8 5.6 12.8 12.8v137.6c0 7.2-5.6 12.8-12.8 12.8H15.2c-7.2 0-12.8-5.6-12.8-12.8V15.2C2.4 8 8 2.4 15.2 2.4h225.6m0-2.4H15.2C7.2 0 0 6.4 0 15.2v137.6c0 8 6.4 15.2 15.2 15.2h225.6c8 0 15.2-6.4 15.2-15.2V15.2C256 6.4 249.6 0 240.8 0z"/>
  <path fill="#0064A7" d="M137.6 111.2c24.8 0 48-20 48-44.8 0-27.2-22.4-45.6-48-45.6H116c-25.6 0-45.6 18.4-45.6 45.6 0 24.8 20.8 45.6 45.6 44.8h21.6z"/>
  <path fill="#FFF" d="M125.6 89.6V40c9.6 4 16.8 13.6 16.8 24.8 0 12-6.4 21.6-16.8 24.8m-36-24.8c0-11.2 7.2-20.8 16.8-24.8v49.6c-9.6-3.2-16.8-12.8-16.8-24.8M116 23.2c-23.2 0-41.6 18.4-41.6 41.6s18.4 41.6 41.6 41.6 41.6-18.4 41.6-41.6c0-22.4-18.4-41.6-41.6-41.6"/>
  <path d="M12.16 148v-.87h1.2c1.34 0 2.3-.43 2.86-1.29.34-.51.51-1.67.51-3.46v-20.54c0-1.98-.22-3.22-.66-3.72-.6-.7-1.51-1.03-2.72-1.03h-1.19v-.87H25.1c4.75 0 8.36.54 10.84 1.62a12.9 12.9 0 0 1 5.98 5.39 16.63 16.63 0 0 1 2.26 8.72c0 4.42-1.35 8.11-4.03 11.08-3.02 3.32-7.61 4.97-13.78 4.97H12.16zm9.07-2.3c1.99.44 3.65.66 5 .66 3.62 0 6.63-1.27 9.02-3.82 2.39-2.55 3.58-6 3.58-10.36 0-4.4-1.2-7.85-3.58-10.38-2.4-2.53-5.46-3.8-9.21-3.8-1.41 0-3.01.23-4.8.68v27.02h-.01zm33.68-19.8v17.25c0 1.34.1 2.23.3 2.68.19.45.48.78.86 1s1.08.33 2.1.33v.84H47.74v-.84c1.05 0 1.75-.1 2.1-.3.37-.21.65-.55.86-1.02a7.6 7.6 0 0 0 .32-2.7v-8.26c0-2.33-.07-3.84-.21-4.53-.11-.5-.28-.85-.52-1.04-.24-.2-.56-.3-.96-.3-.44 0-.97.12-1.6.36l-.32-.85 6.47-2.62h1.03zm-1.94-11.23c.65 0 1.21.23 1.67.7s.7 1.01.7 1.67-.24 1.22-.7 1.69c-.46.47-1.02.7-1.67.7a2.3 2.3 0 0 1-1.7-.7c-.46-.47-.7-1.03-.7-1.69s.24-1.22.7-1.68 1.02-.69 1.7-.69zm14.13 15.77c2.52-3.03 4.91-4.54 7.2-4.54 1.17 0 2.17.3 3.02.88a5.89 5.89 0 0 1 2.01 2.9c.35.93.52 2.37.52 4.3v9.17c0 1.36.1 2.28.33 2.76.17.4.46.71.83.92.38.22 1.09.33 2.12.33v.84H72.5v-.84h.45c1 0 1.7-.16 2.1-.46.4-.3.67-.75.83-1.35.06-.23.1-.97.1-2.2v-8.8c0-1.94-.26-3.36-.77-4.24-.5-.89-1.36-1.33-2.57-1.33-1.86 0-3.7 1.02-5.55 3.05v11.32c0 1.45.09 2.35.26 2.7.22.45.52.78.9.99a5.6 5.6 0 0 0 2.33.32v.84H59.97v-.84h.47c1.1 0 1.84-.28 2.22-.84.38-.55.57-1.61.57-3.17v-7.97c0-2.58-.06-4.15-.17-4.71-.12-.57-.3-.95-.54-1.15-.24-.2-.57-.3-.98-.3-.43 0-.96.11-1.56.35l-.36-.85 6.47-2.62h1.01v4.55zm21.35 4.18c-.02 3.18.76 5.68 2.32 7.5 1.56 1.8 3.4 2.72 5.5 2.72 1.41 0 2.64-.4 3.67-1.16 1.04-.78 1.91-2.1 2.62-3.98l.73.47a11.18 11.18 0 0 1-2.86 5.85 7.65 7.65 0 0 1-5.93 2.64c-2.58 0-4.79-1-6.62-3.01-1.84-2.01-2.76-4.71-2.76-8.1 0-3.67.94-6.54 2.82-8.6s4.25-3.07 7.1-3.07c2.4 0 4.38.79 5.93 2.37 1.54 1.6 2.32 3.71 2.32 6.37H88.45zm0-1.36h9.94a9.18 9.18 0 0 0-.5-2.9 4.65 4.65 0 0 0-4.17-2.82c-1.3 0-2.45.5-3.48 1.51a6.55 6.55 0 0 0-1.8 4.2zm23.98-7.36v4.83c1.8-3.22 3.64-4.83 5.53-4.83.86 0 1.57.26 2.13.78.56.52.85 1.13.85 1.82 0 .6-.2 1.12-.61 1.54-.41.43-.9.64-1.46.64-.54 0-1.16-.27-1.84-.81-.68-.54-1.18-.8-1.5-.8-.29 0-.6.15-.92.46-.7.64-1.43 1.7-2.18 3.16V143c0 1.18.14 2.08.44 2.69.2.42.56.77 1.08 1.05s1.26.42 2.23.42v.85h-11v-.84c1.1 0 1.91-.18 2.44-.52a2 2 0 0 0 .82-1.2c.08-.26.12-1.02.12-2.27v-8.32c0-2.5-.05-3.99-.15-4.46s-.29-.83-.56-1.05a1.58 1.58 0 0 0-1.02-.32 4.6 4.6 0 0 0-1.64.35l-.24-.85 6.5-2.62h.98zm23.57 0v7.31h-.77c-.6-2.3-1.35-3.86-2.28-4.69a5.14 5.14 0 0 0-3.55-1.24c-1.1 0-1.98.29-2.65.87s-1.01 1.22-1.01 1.92c0 .87.25 1.62.75 2.25.48.64 1.47 1.32 2.95 2.04l3.42 1.66c3.18 1.55 4.76 3.59 4.76 6.12 0 1.95-.74 3.53-2.21 4.72a7.68 7.68 0 0 1-4.96 1.8c-1.31 0-2.81-.24-4.5-.7a4.58 4.58 0 0 0-1.26-.24c-.36 0-.65.2-.85.6h-.77v-7.66h.77c.44 2.2 1.27 3.84 2.51 4.95a6.05 6.05 0 0 0 4.15 1.66c1.07 0 1.95-.31 2.63-.95a3.01 3.01 0 0 0 1.02-2.28c0-1.08-.37-1.98-1.13-2.72s-2.27-1.66-4.54-2.79c-2.26-1.12-3.75-2.14-4.45-3.04a5.29 5.29 0 0 1-1.06-3.38c0-1.77.6-3.24 1.82-4.43a6.42 6.42 0 0 1 4.7-1.78c.84 0 1.86.18 3.07.54.8.23 1.33.35 1.6.35.24 0 .44-.06.58-.16.14-.11.3-.36.49-.73h.77zm44.2-10.4l.73 10.8h-.72c-.97-3.24-2.36-5.57-4.15-6.99a10.1 10.1 0 0 0-6.47-2.13c-2.1 0-4.01.53-5.72 1.6-1.7 1.07-3.04 2.78-4.02 5.12-.98 2.35-1.46 5.26-1.46 8.75 0 2.87.46 5.36 1.38 7.47s2.3 3.73 4.16 4.85a11.96 11.96 0 0 0 6.34 1.7c2.06 0 3.88-.45 5.46-1.33 1.58-.88 3.31-2.64 5.2-5.26l.73.47c-1.6 2.82-3.45 4.9-5.58 6.2s-4.65 1.98-7.57 1.98c-5.26 0-9.34-1.95-12.23-5.86a16.76 16.76 0 0 1-3.24-10.27c0-3.17.71-6.08 2.14-8.74a15.46 15.46 0 0 1 5.87-6.17c2.49-1.47 5.21-2.2 8.17-2.2 2.3 0 4.56.57 6.8 1.7a3.7 3.7 0 0 0 1.4.51c.42 0 .79-.15 1.1-.45.4-.42.7-1 .87-1.76h.82zm12-.83v28.48c0 1.34.1 2.23.3 2.67.2.44.5.77.9 1 .4.23 1.17.34 2.27.34v.84h-10.52v-.84c.99 0 1.66-.1 2.02-.3s.64-.55.84-1.02c.2-.47.3-1.36.3-2.7v-19.5c0-2.42-.05-3.9-.16-4.46-.1-.55-.28-.93-.52-1.14a1.4 1.4 0 0 0-.93-.3c-.4 0-.92.13-1.55.38l-.4-.83 6.4-2.62h1.06zm24.78 11.86v13c0 2.5.06 4.01.18 4.57.11.55.3.94.56 1.16.25.22.57.33.9.33a4.2 4.2 0 0 0 1.64-.4l.33.82-6.42 2.65h-1.06v-4.55c-1.84 2-3.25 3.26-4.22 3.77-.97.52-1.99.77-3.07.77a4.9 4.9 0 0 1-3.13-1.04 5.39 5.39 0 0 1-1.84-2.68c-.34-1.1-.51-2.65-.51-4.65v-9.58a4.7 4.7 0 0 0-.33-2.11c-.22-.39-.54-.7-.97-.9s-1.21-.31-2.34-.3v-.86h7.53v14.36c0 2 .34 3.32 1.04 3.94.7.63 1.53.94 2.52.94.67 0 1.43-.21 2.29-.63a12.4 12.4 0 0 0 3.03-2.42v-12.16c0-1.22-.22-2.04-.67-2.47-.44-.43-1.37-.66-2.78-.7v-.86h7.32zm11.06 3.7c2.08-2.89 4.32-4.33 6.73-4.33 2.2 0 4.13.94 5.77 2.82 1.64 1.89 2.46 4.46 2.46 7.73 0 3.8-1.27 6.88-3.8 9.2a10.48 10.48 0 0 1-11.07 2.33 17.53 17.53 0 0 1-3.95-2.04V123.7c0-2.44-.06-3.94-.18-4.5-.12-.57-.3-.95-.55-1.15s-.56-.3-.94-.3c-.44 0-.98.12-1.64.37l-.33-.82 6.45-2.63h1.05v15.56zm0 1.5v12.85c.8.78 1.62 1.37 2.48 1.77.85.4 1.72.6 2.6.6 1.43 0 2.76-.78 3.98-2.35 1.23-1.56 1.84-3.83 1.84-6.82 0-2.75-.61-4.86-1.84-6.34-1.22-1.48-2.62-2.21-4.18-2.21-.83 0-1.66.2-2.49.63-.62.31-1.42.94-2.39 1.87z"/>
</svg>
