<svg version="1.1" id="Layer_1" xmlns="http://www.w3.org/2000/svg" xmlns:xlink="http://www.w3.org/1999/xlink" x="0px" y="0px" width="256px" height="168px" viewBox="0 0 256 168" enable-background="new 0 0 256 168" xml:space="preserve">
  <path fill="#FFF" d="M240 .8H16C8 .8.8 7.2.8 16v136.8c0 8 6.4 15.2 15.2 15.2h224c8 0 15.2-6.4 15.2-15.2V16C254.4 7.2 248 .8 240 .8z"/>
  <path fill="#8E8E8E" d="M240.8 2.4c7.2 0 12.8 5.6 12.8 12.8v137.6c0 7.2-5.6 12.8-12.8 12.8H15.2c-7.2 0-12.8-5.6-12.8-12.8V15.2C2.4 8 8 2.4 15.2 2.4h225.6m0-2.4H15.2C7.2 0 0 6.4 0 15.2v137.6c0 8 6.4 15.2 15.2 15.2h225.6c8 0 15.2-6.4 15.2-15.2V15.2C256 6.4 249.6 0 240.8 0z"/>
  <g>
    <path fill="#0064A7" d="M140.31 141.97c31.82 0 61.58-25.65 61.58-57.47 0-34.9-28.73-58.5-61.58-58.5h-27.7c-32.85 0-58.5 23.6-58.5 58.5 0 31.81 26.68 58.5 58.5 57.47h27.7z"/>
    <path fill="#FFF" d="M124.92 114.26V50.63c12.32 5.13 21.55 17.45 21.55 31.82 0 15.4-8.2 27.7-21.55 31.81M78.74 82.45c0-14.37 9.24-26.69 21.55-31.82v63.63c-12.32-4.1-21.55-16.42-21.55-31.81m33.87-53.37a53 53 0 0 0-53.37 53.37c0 29.76 23.6 53.36 53.37 53.36s53.36-23.6 53.36-53.36c0-28.74-23.6-53.37-53.36-53.37"/>
  </g>
</svg>
