<svg version="1.1" id="Layer_1" xmlns="http://www.w3.org/2000/svg" xmlns:xlink="http://www.w3.org/1999/xlink" x="0px" y="0px" width="256px" height="168px" viewBox="0 0 256 168" enable-background="new 0 0 256 168" xml:space="preserve">
  <path fill="#FFF" d="M240 .8H16C8 .8.8 7.2.8 16v136.8c0 8 6.4 15.2 15.2 15.2h224c8 0 15.2-6.4 15.2-15.2V16C254.4 7.2 248 .8 240 .8z"/>
  <path fill="#8E8E8E" d="M240.8 2.4c7.2 0 12.8 5.6 12.8 12.8v137.6c0 7.2-5.6 12.8-12.8 12.8H15.2c-7.2 0-12.8-5.6-12.8-12.8V15.2C2.4 8 8 2.4 15.2 2.4h225.6m0-2.4H15.2C7.2 0 0 6.4 0 15.2v137.6c0 8 6.4 15.2 15.2 15.2h225.6c8 0 15.2-6.4 15.2-15.2V15.2C256 6.4 249.6 0 240.8 0z"/>
  <g>
    <path d="M36.84 110.72V79.08h8.95c2.22 0 3.9.2 5.05.58a8.59 8.59 0 0 1 3.93 2.77 14.41 14.41 0 0 1 2.59 5.06c.61 2.03.92 4.45.92 7.24 0 3.58-.52 6.62-1.57 9.11-1.05 2.5-2.4 4.27-4.05 5.31-1.64 1.04-3.8 1.56-6.46 1.56h-9.36zm3.43-3.74h5.52c2.23 0 3.92-.36 5.07-1.09a6.89 6.89 0 0 0 2.66-3.5 21.63 21.63 0 0 0 1.23-7.7c0-3.21-.44-5.74-1.31-7.57-.87-1.83-1.99-3.06-3.36-3.68-.92-.42-2.38-.63-4.37-.63h-5.44v24.17zm22.87 3.74V79.08H81.9v3.73H66.57v9.67h14.35v3.73H66.57v10.77h15.92v3.74H63.14zm24.08 0V79.08H97c2.3 0 4 .2 5.1.6a6.89 6.89 0 0 1 3.58 3.05c.89 1.48 1.33 3.3 1.33 5.46 0 2.85-.72 5.17-2.18 6.97-1.45 1.8-3.96 2.7-7.53 2.7h-6.64v12.85h-3.43zm3.43-16.6h6.7c2.12 0 3.67-.48 4.65-1.43.98-.96 1.47-2.4 1.47-4.33 0-1.25-.24-2.32-.73-3.21A4.07 4.07 0 0 0 101 83.3c-.69-.33-1.92-.5-3.7-.5h-6.65v11.31zm19.79 1.19c0-5.4 1.19-9.54 3.56-12.44 2.37-2.9 5.33-4.35 8.87-4.35 2.28 0 4.37.65 6.25 1.94a13.11 13.11 0 0 1 4.48 5.65 21.5 21.5 0 0 1 1.65 8.8c0 4.7-1.06 8.52-3.2 11.46-2.34 3.26-5.4 4.88-9.2 4.88-3.83 0-6.9-1.67-9.24-5-2.12-3.02-3.17-6.67-3.17-10.94zm3.53.05c0 3.9.86 6.93 2.58 9.08 1.72 2.16 3.81 3.23 6.27 3.23 2.52 0 4.63-1.09 6.33-3.26 1.7-2.17 2.56-5.37 2.56-9.59 0-2.72-.44-5.15-1.31-7.3a9 9 0 0 0-3.06-3.94 7.75 7.75 0 0 0-10.85 1.76c-1.68 2.16-2.52 5.5-2.52 10.02zm5.85-18.43l2.35-6.05h4.17l-3.89 6.05h-2.63zm18.62 23.6l3.24-.34a9.4 9.4 0 0 0 1.17 4.06 6.61 6.61 0 0 0 2.63 2.35 8.2 8.2 0 0 0 3.84.88c2.04 0 3.62-.5 4.76-1.5 1.12-1 1.69-2.29 1.69-3.88 0-.94-.2-1.75-.62-2.45a4.59 4.59 0 0 0-1.85-1.7 34.8 34.8 0 0 0-5.37-1.9c-2.44-.72-4.18-1.45-5.22-2.18a7.62 7.62 0 0 1-2.41-2.8 8.35 8.35 0 0 1-.87-3.83c0-2.56.83-4.65 2.48-6.28 1.66-1.62 3.89-2.44 6.7-2.44 1.92 0 3.6.38 5.05 1.15a8.14 8.14 0 0 1 3.37 3.28c.8 1.42 1.23 3.1 1.28 5.03l-3.3.3c-.17-2.06-.79-3.58-1.85-4.58s-2.54-1.49-4.45-1.49c-1.94 0-3.42.44-4.45 1.3s-1.53 2-1.53 3.39c0 1.27.38 2.27 1.12 2.98s2.44 1.41 5.05 2.14a33.2 33.2 0 0 1 5.4 1.84 8.72 8.72 0 0 1 3.58 3.19 8.83 8.83 0 0 1 1.21 4.7 9.8 9.8 0 0 1-1.27 4.95 8.56 8.56 0 0 1-3.47 3.4 11.1 11.1 0 0 1-5.27 1.16c-3.2 0-5.77-.96-7.67-2.89-1.9-1.93-2.9-4.55-2.97-7.84zm25.98 10.19V79.08h3.43v31.64h-3.43zm16.08 0v-27.9h-8.55v-3.74h20.56v3.73h-8.59v27.9h-3.42zm13.89-15.41c0-5.4 1.19-9.54 3.56-12.44 2.38-2.9 5.33-4.35 8.87-4.35 2.29 0 4.37.65 6.26 1.94a13.1 13.1 0 0 1 4.47 5.65c1.1 2.46 1.66 5.4 1.66 8.8 0 4.7-1.07 8.52-3.2 11.46-2.34 3.26-5.41 4.88-9.21 4.88-3.83 0-6.9-1.67-9.24-5-2.11-3.02-3.17-6.67-3.17-10.94zm3.54.05c0 3.9.86 6.93 2.58 9.08 1.72 2.16 3.8 3.23 6.27 3.23 2.51 0 4.63-1.09 6.33-3.26s2.56-5.37 2.56-9.59c0-2.72-.44-5.15-1.32-7.3a8.98 8.98 0 0 0-3.05-3.94 7.76 7.76 0 0 0-10.85 1.76c-1.68 2.16-2.52 5.5-2.52 10.02zM35.5 152.34V120.7h9.74c1.97 0 3.54.3 4.69.92a7.08 7.08 0 0 1 2.83 2.86 8.56 8.56 0 0 1 1.1 4.29 8.1 8.1 0 0 1-.95 3.92 7.33 7.33 0 0 1-2.67 2.8 7.02 7.02 0 0 1 3.55 2.8 8.67 8.67 0 0 1 1.3 4.87c0 1.91-.4 3.6-1.18 5.04a7.24 7.24 0 0 1-3.13 3.15c-1.32.66-3.11.98-5.4.98H35.5zM38.93 134h5.62c1.47 0 2.52-.1 3.14-.3.9-.31 1.58-.82 2.06-1.53.48-.7.73-1.68.73-2.9a5.6 5.6 0 0 0-.66-2.84 3.48 3.48 0 0 0-1.75-1.56c-.73-.29-2.04-.43-3.93-.43h-5.2V134zm0 14.6h6.47c1.42 0 2.47-.13 3.15-.38a4.3 4.3 0 0 0 2.23-1.85 6.2 6.2 0 0 0 .77-3.23c0-1.2-.24-2.2-.73-3.03a4.38 4.38 0 0 0-1.98-1.81c-.83-.38-2.13-.57-3.9-.57h-6v10.87zm18.02 3.74l10-31.64h3.67l10.62 31.64h-3.92l-3.02-9.58H63.39l-2.82 9.58h-3.62zm7.44-13h8.83l-2.69-8.75a95.94 95.94 0 0 1-1.83-6.57 46.23 46.23 0 0 1-1.43 6.05l-2.88 9.28zm19.46 13V120.7h3.52l13.64 24.89V120.7h3.28v31.64h-3.52l-13.62-24.9v24.9h-3.3zm44.67-11.1l3.45 1.06c-.76 3.56-2.1 6.2-4 7.95a9.92 9.92 0 0 1-6.96 2.62c-2.4 0-4.46-.58-6.16-1.76-1.7-1.17-3.1-3.05-4.19-5.64a23.64 23.64 0 0 1-1.63-9.18c0-3.48.55-6.43 1.63-8.84a12.5 12.5 0 0 1 4.42-5.46 11.02 11.02 0 0 1 6.22-1.85c2.5 0 4.66.78 6.46 2.34 1.8 1.55 3.06 3.84 3.78 6.85l-3.37.98c-1.15-4.4-3.47-6.59-6.94-6.59-1.73 0-3.23.45-4.5 1.33a8.95 8.95 0 0 0-3.03 4.14 19.1 19.1 0 0 0-1.13 7.1c0 4.33.76 7.58 2.29 9.75a7.09 7.09 0 0 0 6.08 3.25 6.7 6.7 0 0 0 4.84-2c1.37-1.32 2.28-3.34 2.74-6.05zm4.9 11.1l10-31.64h3.67l10.62 31.64h-3.93l-3.02-9.58h-10.9l-2.83 9.58h-3.62zm7.44-13h8.83l-2.7-8.75a95.17 95.17 0 0 1-1.83-6.57 46.71 46.71 0 0 1-1.42 6.05l-2.89 9.28zm1.06-20.8l2.35-6.03h4.16l-3.88 6.04h-2.63zm18.49 33.8V120.7h11.5c2.4 0 4.17.3 5.31.89a6.7 6.7 0 0 1 2.82 2.94 10 10 0 0 1 1.1 4.78c0 2.38-.62 4.31-1.86 5.8-1.25 1.48-3.06 2.42-5.43 2.82.96.58 1.7 1.17 2.2 1.76a22.2 22.2 0 0 1 2.7 4.03l4.52 8.61h-4.31l-3.46-6.57a41.49 41.49 0 0 0-3.03-5.2 5.92 5.92 0 0 0-1.99-1.8 6.23 6.23 0 0 0-2.68-.47h-3.97v14.05h-3.43zm3.43-17.68h7.38c1.6 0 2.83-.19 3.67-.58.83-.39 1.5-1 1.98-1.83.49-.84.73-1.8.73-2.91 0-1.6-.47-2.86-1.4-3.77-.93-.91-2.32-1.37-4.16-1.37h-8.2v10.46zm23.39 17.68V120.7h3.43v31.64h-3.43zm8.46-15.41c0-5.4 1.18-9.54 3.56-12.44 2.37-2.9 5.33-4.35 8.86-4.35 2.3 0 4.38.65 6.26 1.94a13.17 13.17 0 0 1 4.48 5.65 21.5 21.5 0 0 1 1.65 8.8c0 4.7-1.06 8.52-3.2 11.47-2.34 3.25-5.4 4.87-9.2 4.87-3.83 0-6.91-1.66-9.24-5-2.12-3.02-3.17-6.67-3.17-10.94zm3.53.05c0 3.9.86 6.93 2.58 9.08 1.72 2.16 3.81 3.23 6.27 3.23 2.52 0 4.63-1.08 6.33-3.26 1.7-2.17 2.56-5.37 2.56-9.59 0-2.72-.44-5.15-1.31-7.3a8.94 8.94 0 0 0-3.06-3.94 7.76 7.76 0 0 0-10.85 1.76c-1.68 2.16-2.52 5.5-2.52 10.02z"/>
    <path fill="#01A7DB" d="M129.19 38.2c-2.83-1.13-3.64-1.82-3.64-3.06 0-.99.75-2.14 2.86-2.14 1.87 0 3.3.73 3.31.74.15.08.32.12.49.12.41 0 .77-.24.92-.63l.52-1.31a.81.81 0 0 0-.44-1.04c-1.15-.5-3.4-.9-3.43-.9-.03 0-.16-.03-.16-.18v-1.9c0-.58-.48-1.04-1.07-1.04h-.92c-.59 0-1.07.46-1.07 1.04v2c0 .15-.16.22-.22.23-2.84.68-4.62 2.76-4.62 5.38 0 3.27 2.7 4.75 5.63 5.86 2.33.92 3.28 1.85 3.28 3.2 0 1.49-1.35 2.53-3.28 2.53-1.65 0-3.88-1.05-3.9-1.06-.14-.07-.3-.1-.45-.1a1 1 0 0 0-.94.65l-.5 1.33c-.17.5.1.9.44 1.08 1.38.71 4.03 1.13 4.15 1.15.03 0 .2.06.2.2v2c0 .57.47 1.04 1.06 1.04h.95c.59 0 1.06-.47 1.06-1.04v-2.1c0-.2.15-.21.18-.22 3.02-.68 4.89-2.9 4.89-5.67 0-2.85-1.59-4.7-5.3-6.16zm0 0"/>
    <path fill="#01A7DB" d="M128 15.13a25 25 0 1 0 0 50 25 25 0 0 0 0-50zm0 45.16a20.17 20.17 0 1 1 0-40.33 20.17 20.17 0 0 1 0 40.33zm0 0"/>
  </g>
</svg>
