<svg version="1.1" id="Layer_1" xmlns="http://www.w3.org/2000/svg" xmlns:xlink="http://www.w3.org/1999/xlink" x="0px" y="0px" width="256px" height="168px" viewBox="0 0 256 168" enable-background="new 0 0 256 168" xml:space="preserve">
  <path fill="#FFF" d="M240 .8H16C8 .8.8 7.2.8 16v136.8c0 8 6.4 15.2 15.2 15.2h224c8 0 15.2-6.4 15.2-15.2V16C254.4 7.2 248 .8 240 .8z"/>
  <path fill="#8E8E8E" d="M240.8 2.4c7.2 0 12.8 5.6 12.8 12.8v137.6c0 7.2-5.6 12.8-12.8 12.8H15.2c-7.2 0-12.8-5.6-12.8-12.8V15.2C2.4 8 8 2.4 15.2 2.4h225.6m0-2.4H15.2C7.2 0 0 6.4 0 15.2v137.6c0 8 6.4 15.2 15.2 15.2h225.6c8 0 15.2-6.4 15.2-15.2V15.2C256 6.4 249.6 0 240.8 0z"/>
  <g>
    <path d="M36.81 148.46v-31.63h8.96c2.21 0 3.9.2 5.05.58a8.57 8.57 0 0 1 3.93 2.76 14.4 14.4 0 0 1 2.59 5.06c.61 2.04.92 4.45.92 7.24 0 3.58-.52 6.62-1.57 9.12-1.05 2.5-2.4 4.26-4.05 5.3s-3.8 1.57-6.46 1.57h-9.37zm3.44-3.73h5.52c2.23 0 3.92-.36 5.07-1.1a6.88 6.88 0 0 0 2.65-3.5 21.6 21.6 0 0 0 1.23-7.7c0-3.2-.43-5.73-1.3-7.56-.87-1.84-2-3.07-3.36-3.68-.92-.42-2.38-.63-4.38-.63h-5.43v24.17zm22.87 3.73v-31.63h18.75v3.73H66.55v9.67H80.9v3.73H66.55v10.77h15.92v3.73H63.12zm24.08 0v-31.63h9.77c2.3 0 4 .2 5.1.6a6.89 6.89 0 0 1 3.58 3.05 10.4 10.4 0 0 1 1.33 5.45c0 2.85-.73 5.17-2.18 6.98-1.45 1.8-3.96 2.69-7.53 2.69h-6.64v12.86H87.2zm3.43-16.6h6.7c2.12 0 3.67-.47 4.65-1.43.97-.96 1.46-2.4 1.46-4.33 0-1.25-.23-2.32-.72-3.2a4.07 4.07 0 0 0-1.75-1.84c-.68-.33-1.91-.5-3.7-.5h-6.64v11.3zm19.79 1.2c0-5.4 1.18-9.55 3.56-12.45 2.37-2.9 5.33-4.34 8.86-4.34 2.3 0 4.38.64 6.26 1.94a13.11 13.11 0 0 1 4.48 5.64c1.1 2.47 1.65 5.4 1.65 8.81 0 4.7-1.06 8.51-3.2 11.46-2.34 3.25-5.4 4.88-9.2 4.88-3.83 0-6.91-1.67-9.24-5-2.12-3.03-3.17-6.67-3.17-10.95zm3.53.05c0 3.9.86 6.93 2.58 9.08 1.72 2.15 3.81 3.23 6.27 3.23 2.52 0 4.63-1.1 6.33-3.27 1.7-2.17 2.56-5.36 2.56-9.59 0-2.72-.44-5.15-1.31-7.3a8.97 8.97 0 0 0-3.06-3.93 7.76 7.76 0 0 0-10.85 1.76c-1.68 2.16-2.52 5.5-2.52 10.02zm5.85-18.44l2.35-6.04h4.17l-3.89 6.04h-2.63zm18.62 23.6l3.23-.34a9.4 9.4 0 0 0 1.18 4.06 6.61 6.61 0 0 0 2.62 2.35c1.14.59 2.42.88 3.84.88 2.05 0 3.63-.5 4.76-1.5 1.13-.99 1.7-2.29 1.7-3.88 0-.94-.2-1.75-.62-2.44a4.59 4.59 0 0 0-1.85-1.72 35.1 35.1 0 0 0-5.37-1.88c-2.44-.73-4.18-1.46-5.22-2.2a7.62 7.62 0 0 1-2.42-2.79 8.35 8.35 0 0 1-.86-3.83c0-2.56.83-4.65 2.48-6.27 1.66-1.63 3.89-2.44 6.7-2.44 1.92 0 3.6.38 5.05 1.14a8.14 8.14 0 0 1 3.37 3.28c.8 1.42 1.22 3.1 1.28 5.02l-3.3.31c-.18-2.06-.79-3.58-1.85-4.58-1.06-.99-2.54-1.48-4.45-1.48-1.95 0-3.43.43-4.45 1.3-1.02.87-1.53 2-1.53 3.38 0 1.28.37 2.27 1.12 2.98s2.44 1.42 5.05 2.14c2.56.7 4.36 1.32 5.4 1.84a8.74 8.74 0 0 1 3.58 3.2 8.8 8.8 0 0 1 1.2 4.7c0 1.81-.42 3.46-1.26 4.95a8.57 8.57 0 0 1-3.47 3.4 11.1 11.1 0 0 1-5.27 1.16c-3.2 0-5.76-.97-7.67-2.9-1.91-1.93-2.9-4.54-2.97-7.84zm25.98 10.2v-31.64h3.43v31.63h-3.43zm16.07 0v-27.9h-8.54v-3.74h20.56v3.73h-8.59v27.9h-3.43zm13.9-15.42c0-5.4 1.19-9.54 3.56-12.44s5.33-4.34 8.87-4.34c2.28 0 4.37.64 6.26 1.94a13.11 13.11 0 0 1 4.47 5.64 21.5 21.5 0 0 1 1.65 8.81c0 4.7-1.06 8.51-3.19 11.46-2.35 3.25-5.42 4.88-9.22 4.88-3.82 0-6.9-1.67-9.23-5-2.12-3.03-3.17-6.67-3.17-10.95zm3.54.06c0 3.9.86 6.93 2.57 9.08 1.72 2.15 3.81 3.23 6.27 3.23 2.52 0 4.63-1.1 6.34-3.27 1.7-2.17 2.55-5.36 2.55-9.59 0-2.72-.43-5.15-1.3-7.3a8.95 8.95 0 0 0-3.06-3.93 7.76 7.76 0 0 0-10.85 1.76c-1.68 2.16-2.52 5.5-2.52 10.02z"/>
    <path fill="#01A7DB" d="M129.9 55.9c-4.52-1.8-5.82-2.9-5.82-4.88 0-1.58 1.2-3.43 4.58-3.43 2.99 0 5.28 1.18 5.3 1.19.25.13.52.2.78.2.66 0 1.24-.4 1.48-1.01l.82-2.1a1.3 1.3 0 0 0-.7-1.67c-1.85-.8-5.44-1.43-5.48-1.43-.06-.01-.26-.06-.26-.3l-.01-3.04c0-.92-.77-1.66-1.7-1.66h-1.48c-.94 0-1.7.74-1.7 1.66v3.2c0 .25-.27.36-.37.38-4.54 1.08-7.38 4.41-7.38 8.6 0 5.24 4.33 7.6 9 9.38 3.73 1.47 5.25 2.95 5.25 5.13 0 2.38-2.15 4.03-5.24 4.03-2.64 0-6.21-1.67-6.25-1.69-.23-.1-.47-.16-.72-.16a1.6 1.6 0 0 0-1.5 1.05l-.8 2.12c-.27.8.16 1.44.7 1.72 2.2 1.15 6.45 1.82 6.63 1.85.06 0 .31.1.31.33v3.19c0 .92.77 1.66 1.71 1.66h1.52c.94 0 1.7-.74 1.7-1.66V75.2c0-.31.24-.34.3-.35 4.83-1.09 7.81-4.63 7.81-9.07 0-4.57-2.54-7.52-8.48-9.87zm0 0"/>
    <path fill="#01A7DB" d="M128 19a40 40 0 1 0 0 80 40 40 0 0 0 0-80zm0 70.72a30.73 30.73 0 1 1 0-61.46 30.73 30.73 0 0 1 0 61.46zm0 0"/>
  </g>
</svg>
