<svg version="1.1" id="Layer_1" xmlns="http://www.w3.org/2000/svg" xmlns:xlink="http://www.w3.org/1999/xlink" x="0px" y="0px" width="256px" height="168px" viewBox="0 0 256 168" enable-background="new 0 0 256 168" xml:space="preserve">
  <path fill="#FFF" d="M240 .8H16C8 .8 1.6 7.2 1.6 16v136c0 8 6.4 15.2 15.2 15.2h224c8 0 15.2-6.4 15.2-15.2V16c-1.6-8.8-8-15.2-16-15.2z"/>
  <path fill="#8E8E8E" d="M240.8 2.4c7.2 0 12.8 5.6 12.8 12.8v137.6c0 7.2-5.6 12.8-12.8 12.8H15.2c-7.2 0-12.8-5.6-12.8-12.8V15.2C2.4 8 8 2.4 15.2 2.4h225.6m0-2.4H15.2C6.4 0 0 6.4 0 15.2v137.6c0 8 6.4 15.2 15.2 15.2h225.6c8 0 15.2-6.4 15.2-15.2V15.2C256 6.4 249.6 0 240.8 0z"/>
  <g>
    <path fill="#050013" d="M128 21c34.48 0 63 28.52 63 63s-28.52 63-63 63-63-28.52-63-63 28.52-63 63-63z"/>
    <path fill="#FFF" d="M100.81 67.42a19.24 19.24 0 0 0-19.23 19.23c0 3.98 1.33 7.3 2.65 10.61l19.23-8.62 7.96-3.31 7.96-3.32c-1.99-7.96-9.28-14.59-18.57-14.59zM90.2 87.32v-1.33c0-5.97 4.64-11.28 11.27-11.28 2.66.67 5.97 2 7.96 4.65L90.2 87.32zM114.74 100.58c-6.63 6.63-15.92 7.3-23.88 2.65l4.65-6.63c4.64 2.65 9.28 1.99 13.92-1.33l5.3 5.3zM122.03 95.27V58.8h6.63v35.81c0 .67 0 .67.67.67l5.96 2.65-2.65 7.29-7.3-3.31c-1.98-1.33-3.3-2.66-3.3-6.64z"/>
    <path fill="#009DD7" d="M148.56 94.61c-2.65-1.99-3.98-5.3-3.98-8.62 0-3.32 1.32-5.97 3.31-7.96l-4.64-7.3c-4.64 3.32-7.3 9.3-7.3 15.26 0 6.63 3.32 12.6 8.63 15.91l3.98-7.29z"/>
    <path fill="#FFF200" d="M151.21 76.04c1.33-.66 2.65-.66 3.98-.66 4.64 0 8.62 2.65 10.61 7.3l8.62-.67c-1.99-8.62-9.95-14.59-19.23-14.59-2.65 0-5.3.66-7.3 1.33l3.32 7.3z"/>
    <path fill="#E33206" d="M166.46 86.65c0 5.97-5.3 10.61-11.27 10.61-.67 0-1.99 0-2.65-.66l-3.32 7.96c1.99.66 3.98.66 5.97.66 10.61 0 19.23-8.62 19.23-18.57h-7.96z"/>
  </g>
</svg>
