<svg version="1.1" id="Layer_1" xmlns="http://www.w3.org/2000/svg" xmlns:xlink="http://www.w3.org/1999/xlink" x="0px" y="0px" width="256px" height="168px" viewBox="0 0 256 168" enable-background="new 0 0 256 168" xml:space="preserve">
  <path fill="#FFF" d="M240 .8H16C8 .8.8 7.2.8 16v136.8c0 8 6.4 15.2 15.2 15.2h224c8 0 15.2-6.4 15.2-15.2V16C254.4 7.2 248 .8 240 .8z"/>
  <path fill="#8E8E8E" d="M240.8 2.4c7.2 0 12.8 5.6 12.8 12.8v137.6c0 7.2-5.6 12.8-12.8 12.8H15.2c-7.2 0-12.8-5.6-12.8-12.8V15.2C2.4 8 8 2.4 15.2 2.4h225.6m0-2.4H15.2C7.2 0 0 6.4 0 15.2v137.6c0 8 6.4 15.2 15.2 15.2h225.6c8 0 15.2-6.4 15.2-15.2V15.2C256 6.4 249.6 0 240.8 0z"/>
  <g>
    <path fill="#7F181A" d="M80.07 37.76H58.04c-9.72.46-17.64 4.38-19.98 12.47-1.2 4.22-1.88 8.85-2.8 13.23-4.75 22.19-8.96 45-13.51 66.78H193.2c13.27 0 22.36-2.8 24.82-13.3a596.96 596.96 0 0 0 3.34-15.82c4.25-20.9 8.55-41.84 12.89-63.36H80.07z"/>
    <path fill="#FFF" d="M78.36 70.63c.91-.63 2.12-3.5.75-4.71-.42-.38-1.17-.5-2.17-.34-.92.17-1.46.46-1.84.96-.58.8-1.12 3.21-.2 4.09.91.88 2.87.42 3.46 0zm-13.1-4.71c-.67 4.3-1.42 8.47-2.17 12.68-4.75.04-9.64.2-14.27-.13.88-4.09 1.5-8.47 2.38-12.55h-5.17c-1.84 10.47-3.55 21.1-5.6 31.37h5.27c.83-5.26 1.58-10.6 2.66-15.56 4.51-.13 9.9-.3 14.19.12-.88 5.22-1.96 10.22-2.8 15.48h5.26a700.97 700.97 0 0 1 5.59-31.37h-5.34v-.04zm74.46 9c-4.09-1.66-7.3 1.13-8.8 3.76.33-1.17.46-2.54.75-3.75h-4.09c-1 7.76-2.46 15.01-3.88 22.36h4.63c.67-4.34.92-10.22 2.38-14.4 1.17-3.33 4.17-6.17 8.47-4.63.04-1.25.42-2.17.54-3.33zm2.59 17.1a11.01 11.01 0 0 1-.42-4.29c.25-3.08 1.38-6.88 3.13-8.59 2.42-2.38 7.18-1.96 10.97-.63.13-1.29.38-2.42.55-3.67-6.22-1-12.14-.37-15.27 2.92-3.05 3.21-5.1 10.6-3.67 15.27 1.66 5.43 9.09 5.76 15.14 3.67.25-1.08.42-2.3.62-3.42-3.3 1.63-9.59 2.5-11.05-1.25zm51.9-16.97c-4.1-2.04-7.48 1.38-8.81 3.42.38-1.04.42-2.46.75-3.54h-4.09a327.33 327.33 0 0 1-3.96 22.36h4.71c.05-2.97.63-5.18 1.09-8.06 1-6.21 2.42-13.01 9.68-10.97.2-1.04.29-2.25.62-3.2zm-120.57-.12c-.12 0-.12.16-.12.33-1 7.6-2.38 14.85-3.88 22.03h4.63a317.25 317.25 0 0 1 3.96-22.36h-4.59zm40.6-.42c-3.34.25-6.18 1.21-8.18 3.34-2.46 2.58-4.47 8.3-3.88 13.56.83 7.42 10.1 7.17 17.52 5.38.12-1.3.46-2.42.62-3.68-3.04 1.13-8.34 2.76-11.51.76-2.38-1.5-2.38-5.3-1.63-8.6 4.97-.16 10.18-.12 15.15 0 .33-2.33 1.2-4.88.41-7.22-.96-3.04-4.67-3.83-8.5-3.54zm4.42 8.18H107.8a6.38 6.38 0 0 1 6.13-5.38c3.3-.13 5.72 1.2 4.72 5.38zm-21.9-7.76c-3.93-1.46-8.68.29-10.73 1.96 0 .08-.04.08-.12.08.04-.04.08-.04.12-.08.04-.71.3-1.21.34-1.92H82.4a810.25 810.25 0 0 1-5.67 32.33h4.63c.67-4.13 1.13-8.47 2.04-12.35 1.05 4.09 7.93 3.3 10.85 1.71 5.93-3.25 10.56-18.69 2.5-21.73zm-3.68 18.14c-2.46 2.63-8.55 2.59-9-1.83-.21-1.92.5-3.93.87-5.93s.63-3.92.96-5.71c2.42-2.97 9.6-3.34 10.3 1.62.63 4.34-1.08 9.68-3.13 11.85zM211.4 65.25c-.38 3.46-.92 6.8-1.63 10.01-11.34-3.59-18.27 4.76-18.14 15.06.04 2 .37 3.96 1.62 5.38 2.13 2.42 8.3 3 11.4.96.57-.37 1.2-1.13 1.62-1.63.29-.37.8-1.37.87-1.08-.16 1.08-.41 2.08-.41 3.34h4.17c.8-11.6 3.3-21.49 5.17-32h-4.67v-.04zm-10.34 29.58c-3.13.08-4.68-1.88-4.72-5.05-.13-5.6 2.34-11.81 7.3-12.35 2.34-.25 4 .29 5.72.87-1.59 6.22-1 16.36-8.3 16.53zm-39.84-19.9c-.21 1.29-.59 2.42-.88 3.67 2.71-.67 11.22-2.8 12.01.88.3 1.2-.2 2.5-.54 3.42-7.67-.71-13.93.54-15.56 6-1.08 3.67.13 7.26 2.46 8.26 4.5 1.92 10.01-.29 11.93-3.33-.2 1.04-.37 2.13-.33 3.42h3.96c.05-3.8.59-6.89 1.17-10.3.5-2.93 1.42-5.8 1.3-8.4-.3-5.88-10.06-3.79-15.52-3.62zm7.5 18.06c-2.37 2.34-9.05 3-8.38-2.59.58-4.63 5.59-5.59 11.05-4.92-.37 2.5-.83 5.71-2.66 7.5z"/>
  </g>
</svg>
