<svg version="1.1" id="Layer_1" xmlns="http://www.w3.org/2000/svg" xmlns:xlink="http://www.w3.org/1999/xlink" x="0px" y="0px" width="256px" height="168px" viewBox="0 0 256 168" enable-background="new 0 0 256 168" xml:space="preserve">
  <path fill="#ED7F00" d="M240 0H16C7.2 0 0 7.2 0 16v136c0 8.8 7.2 16 16 16h224c8.8 0 16-7.2 16-16V16c0-8.8-7.2-16-16-16z"/>
  <g fill-rule="evenodd" clip-rule="evenodd">
    <path fill="#172982" d="M85.93 21h84.14c5.85 0 10.75 2.08 14.76 6.1A20.1 20.1 0 0 1 191.08 42v84.06c0 5.77-2.08 10.74-6.25 14.83a20.09 20.09 0 0 1-14.76 6.1H85.93a20.58 20.58 0 0 1-14.91-6.1 20.53 20.53 0 0 1-6.1-14.83V42c0-5.85 2.08-10.82 6.1-14.91A20.58 20.58 0 0 1 85.93 21z"/>
    <path fill="#FFEC00" d="M161.24 92.46h6.82l8.42-8.5h-9.22l-6.02 8.5zm-2.48 2.17h-9.79v18.2c0 4.9 1.29 8.5 3.61 10.91 2.17 2.09 4.9 3.05 8.42 3.05 4.9 0 8.5-1.93 10.75-5.7h.08v4.98h8.66V94.63h-9.78v18.36c0 .8-.08 1.53-.24 1.93-1.12 2.65-3.05 4.09-6.02 4.09-3.77 0-5.7-2.65-5.7-7.86V94.63zm-25.1 10.42c-6.42 0-11.31.97-14.68 3.05-3.45 2.09-5.3 5.22-5.3 9.23a9.44 9.44 0 0 0 2.81 6.57c2.09 1.93 4.73 2.89 7.94 2.89 4.33 0 7.54-1.36 9.79-4.01h.24v3.29h8.98v-18.53c0-4.17-1.12-7.38-3.21-9.7-2.57-2.65-6.34-4.1-11.3-4.1-5.14 0-9.47.97-12.84 3.05l1.84 6.18a17.37 17.37 0 0 1 9.3-2.49c4.34 0 6.42 1.37 6.42 4.25v.32zm-23.83-10.42h-6.01V83.96h-9.46v10.67h-4.5v7.22h4.5v12.67c0 4.33.8 7.54 2.64 9.38 1.77 1.93 4.41 2.89 7.62 2.89 2.09 0 3.77-.24 5.3-.8l-.09-7.38c-.32.24-.88.4-1.84.4-1.52 0-2.65-.56-3.37-1.69-.56-.8-.8-2.24-.8-4.33v-11.14h6.01v-7.22zm12.92 21.9c0-3.78 3.77-5.46 11.14-5.38v3.37l-.08 1.84a5.32 5.32 0 0 1-2.4 2.89 6 6 0 0 1-4.01 1.44c-3.05 0-4.65-1.44-4.65-4.17zm-47.4-32.57v42.1h9.94v-42.1h-9.94z"/>
  </g>
</svg>
