<svg version="1.1" id="Layer_1" xmlns="http://www.w3.org/2000/svg" xmlns:xlink="http://www.w3.org/1999/xlink" x="0px" y="0px" width="256px" height="168px" viewBox="0 0 256 168" enable-background="new 0 0 256 168" xml:space="preserve">
  <path fill="#FFF" d="M240 .4H16C8 .4.8 6.8.8 15.6v136.8c0 8 6.4 15.2 15.2 15.2h224c8 0 15.2-6.4 15.2-15.2V15.6C254.4 6.8 248 .4 240 .4z"/>
  <path fill="#8E8E8E" d="M240.8 2.4c7.2 0 12.8 5.6 12.8 12.8v137.6c0 7.2-5.6 12.8-12.8 12.8H15.2c-7.2 0-12.8-5.6-12.8-12.8V15.2C2.4 8 8 2.4 15.2 2.4h225.6m0-2.4H15.2C7.2 0 0 6.4 0 15.2v137.6c0 8 6.4 15.2 15.2 15.2h225.6c8 0 15.2-6.4 15.2-15.2V15.2C256 6.4 249.6 0 240.8 0z"/>
  <g>
    <path fill="#003888" d="M219.03 80.54C219.03 47.74 178.27 21 128 21S36.98 47.74 36.98 80.54l-.01 3.48c0 34.8 35.62 62.98 91.02 62.98 55.74 0 91.04-28.18 91.04-62.97v-3.5z"/>
    <ellipse fill="#009DDF" cx="128.02" cy="80.51" rx="87.52" ry="55.99"/>
    <g fill="#FFF">
      <path d="M98.96 62.84c-.05.1-.92 1-.35 1.72 1.38 1.76 5.64 2.77 9.96 1.81 2.57-.58 5.86-3.2 9.05-5.73 3.46-2.74 6.88-5.5 10.33-6.59 3.65-1.16 5.99-.66 7.53-.2 1.7.51 3.7 1.63 6.87 4.02 5.99 4.5 30.07 25.52 34.23 29.15a207.65 207.65 0 0 1 38.48-12.39c-1.76-10.78-8.32-20.66-18.27-28.74-13.88 5.83-30.83 8.87-47.4.77-.1-.03-9.06-4.28-17.91-4.07-13.16.3-18.86 6-24.89 12.02l-7.63 8.23z"/>
      <path d="M175.6 89.3c-.28-.25-28.3-24.77-34.66-29.55-3.68-2.75-5.72-3.46-7.87-3.73-1.11-.14-2.66.06-3.74.36-2.95.8-6.81 3.38-10.24 6.1-3.55 2.83-6.9 5.5-10 6.2-3.98.88-8.82-.17-11.04-1.67a4.9 4.9 0 0 1-1.83-2c-.81-1.9.7-3.41.94-3.66l7.74-8.37c.9-.9 1.8-1.8 2.73-2.68-2.5.33-4.8.96-7.05 1.59-2.8.78-5.5 1.54-8.23 1.53-1.13 0-7.24-1-8.4-1.31-7-1.92-13.14-3.78-22.32-8.07-11 8.19-18.35 18.42-20.47 29.7 1.58.42 4.12 1.18 5.2 1.41C71.23 80.7 78.98 86.4 80.4 87.58a8.27 8.27 0 0 1 6.17-2.77 8.28 8.28 0 0 1 6.74 3.52 9.4 9.4 0 0 1 5.93-2.08c1.16 0 2.35.21 3.56.62a8.18 8.18 0 0 1 5.01 4.52c.94-.42 2.1-.73 3.46-.73 1.34 0 2.74.3 4.14.91 4.6 1.98 5.3 6.48 4.89 9.88a9.88 9.88 0 0 1 9.67 14.47c1.48.83 5.26 2.72 8.57 2.3 2.64-.34 3.65-1.24 4.01-1.75.25-.35.5-.76.27-1.05l-7.02-7.8s-1.16-1.1-.78-1.52c.4-.43 1.11.19 1.62.6 3.57 3 7.93 7.5 7.93 7.5.08.05.37.62 1.98.9 1.4.26 3.85.11 5.55-1.29.43-.35.86-.8 1.22-1.25-.03.02-.05.06-.08.06 1.8-2.3-.2-4.62-.2-4.62l-8.2-9.2s-1.17-1.09-.77-1.52c.36-.38 1.11.19 1.63.62 2.6 2.17 6.26 5.85 9.78 9.29.68.5 3.77 2.41 7.86-.27 2.48-1.63 2.98-3.63 2.91-5.14a5.88 5.88 0 0 0-1.73-3.42l-11.2-11.26s-1.18-1-.77-1.52c.35-.43 1.11.2 1.62.61a645.28 645.28 0 0 1 13.22 11.84c.14.1 3.48 2.48 7.6-.15a5.07 5.07 0 0 0 2.5-4.01c.13-2.86-1.89-4.56-1.89-4.56z"/>
      <path d="M121.29 103.58c-1.74-.02-3.64 1-3.89.86-.13-.1.11-.79.27-1.2.17-.4 2.46-7.27-3.12-9.66-4.26-1.84-6.87.23-7.77 1.16-.23.24-.34.22-.36-.09-.09-1.24-.64-4.59-4.33-5.71-5.26-1.61-8.64 2.06-9.5 3.38a6.09 6.09 0 0 0-12.14.78 6.1 6.1 0 0 0 10.33 4.4c.04.03.05.1.03.2-.25 1.52-.73 7 5.02 9.24 2.3.9 4.27.23 5.9-.9.48-.35.56-.2.49.25-.21 1.41.05 4.43 4.29 6.15 3.22 1.31 5.13-.03 6.38-1.19.54-.5.7-.41.72.36a7.66 7.66 0 0 0 7.67 7.33 7.67 7.67 0 1 0 0-15.36z"/>
    </g>
    <path fill="#003888" d="M176.69 86.37c-8.64-7.54-28.6-24.89-34-28.94-3.09-2.33-5.2-3.55-7.04-4.1-.83-.26-1.98-.54-3.46-.54-1.38 0-2.85.25-4.4.74-3.49 1.1-6.97 3.87-10.33 6.54l-.18.14c-3.13 2.5-6.37 5.07-8.82 5.62-1.08.24-2.18.36-3.27.36-2.75 0-5.22-.8-6.14-1.97-.16-.2-.06-.51.3-.97l.05-.06L107 55c5.94-5.95 11.56-11.56 24.5-11.86l.65-.01c8.05 0 16.1 3.6 17 4.03a52.7 52.7 0 0 0 23.18 5.56c8.16 0 16.58-2.02 25.44-6.1a67.36 67.36 0 0 0-3.08-2.44c-7.78 3.37-15.19 5.08-22.34 5.08a49.3 49.3 0 0 1-21.7-5.22c-.37-.18-9.25-4.37-18.5-4.37h-.73c-10.87.26-16.99 4.12-21.1 7.5-4 .1-7.46 1.06-10.53 1.92-2.75.76-5.11 1.42-7.42 1.42-.95 0-2.67-.09-2.82-.1-2.66-.07-16.04-3.35-26.68-7.38a69.08 69.08 0 0 0-3.15 2.37c11.12 4.56 24.65 8.08 28.92 8.36 1.19.08 2.45.21 3.72.21 2.83 0 5.65-.79 8.38-1.55 1.6-.45 3.39-.95 5.26-1.3l-1.5 1.48-7.72 8.35c-.6.61-1.93 2.25-1.05 4.27.34.8 1.04 1.59 2.02 2.25 1.84 1.24 5.14 2.07 8.2 2.08 1.15 0 2.25-.12 3.26-.35 3.24-.72 6.63-3.43 10.23-6.28 2.86-2.28 6.93-5.17 10.05-6.02.87-.23 1.94-.38 2.8-.38.25 0 .5 0 .72.04 2.06.26 4.05.96 7.6 3.63 6.34 4.76 34.38 29.28 34.65 29.53.02.01 1.8 1.56 1.68 4.12a4.49 4.49 0 0 1-2.23 3.58 6.81 6.81 0 0 1-3.68 1.14c-1.88 0-3.17-.88-3.25-.94-.1-.08-9.71-8.89-13.25-11.85-.56-.47-1.1-.89-1.66-.89-.3 0-.56.13-.73.35-.56.69.07 1.64.8 2.26l11.22 11.28c.02.01 1.4 1.3 1.55 3.04.09 1.86-.8 3.43-2.66 4.65a7.23 7.23 0 0 1-3.98 1.31 5.75 5.75 0 0 1-3.2-.97l-1.61-1.59c-2.94-2.9-5.98-5.88-8.2-7.74-.54-.45-1.12-.87-1.67-.87-.28 0-.52.1-.71.3-.25.28-.43.8.2 1.63.26.35.57.63.57.63l8.19 9.2c.06.08 1.68 2 .18 3.93l-.29.36c-.24.27-.5.52-.76.74a6.55 6.55 0 0 1-5.1 1.17c-.82-.15-1.36-.37-1.62-.68l-.1-.1c-.45-.47-4.57-4.68-7.99-7.53-.45-.38-1.01-.85-1.6-.85a.97.97 0 0 0-.73.33c-.68.74.34 1.84.77 2.25l6.98 7.7c0 .07-.1.23-.26.47-.25.34-1.1 1.2-3.63 1.51a7 7 0 0 1-.93.06c-2.61 0-5.4-1.27-6.84-2.03a10.43 10.43 0 0 0-9.8-14.85c.2-2.62-.18-7.6-5.28-9.78a10.93 10.93 0 0 0-4.35-.96c-1.12 0-2.19.2-3.2.58a8.77 8.77 0 0 0-5.1-4.33 11.42 11.42 0 0 0-3.74-.66c-2.12 0-4.07.63-5.82 1.87a8.82 8.82 0 0 0-6.85-3.31c-2.33 0-4.56.93-6.22 2.57-2.18-1.66-10.8-7.13-33.88-12.38-1.12-.25-3.68-.98-5.25-1.44a37.23 37.23 0 0 0-.59 3.78l5.1 1.21C69.3 83.23 77.1 88.67 78.41 89.7a8.85 8.85 0 0 0 9.77 12.09 10.3 10.3 0 0 0 6.66 7.7c1.05.4 2.11.6 3.15.6.67 0 1.35-.08 2.01-.25.66 1.68 2.15 3.78 5.48 5.13 1.17.47 2.34.72 3.47.72a7.8 7.8 0 0 0 2.7-.48 10.42 10.42 0 0 0 17.1 3.3c1.68.93 5.22 2.62 8.81 2.63.47 0 .9-.03 1.34-.09 3.56-.45 5.22-1.84 5.98-2.92.14-.2.26-.4.37-.6.84.24 1.76.44 2.82.44 1.94 0 3.81-.67 5.7-2.04 1.85-1.34 3.17-3.26 3.36-4.89l.01-.07c.63.13 1.27.2 1.9.2 2.01 0 3.98-.63 5.86-1.86 3.63-2.39 4.26-5.5 4.2-7.53.64.13 1.29.2 1.93.2 1.89 0 3.73-.56 5.49-1.69a8.02 8.02 0 0 0 3.81-6.2c.14-1.74-.29-3.5-1.2-5.01 6.08-2.62 19.98-7.7 36.36-11.39-.1-1.27-.28-2.52-.51-3.77a208.84 208.84 0 0 0-38.3 12.45zm-55.4 32.02c-3.85 0-6.98-3-7.12-6.8-.01-.33-.04-1.2-.78-1.2-.3 0-.56.19-.87.46a5 5 0 0 1-3.5 1.58c-.7 0-1.48-.17-2.3-.5-4.06-1.65-4.12-4.44-3.95-5.56.04-.3.06-.61-.15-.85l-.25-.23h-.25c-.2 0-.42.08-.7.29a5.94 5.94 0 0 1-3.46 1.22c-.63 0-1.27-.12-1.92-.37-5.35-2.08-4.93-7.13-4.67-8.65.04-.31-.04-.55-.23-.7l-.38-.32-.35.34a5.57 5.57 0 0 1-9.4-4 5.55 5.55 0 1 1 11.04-.7l.2 1.49.81-1.27c.1-.14 2.34-3.54 6.47-3.53.78 0 1.6.12 2.4.37 3.3 1.01 3.86 4 3.94 5.23.06.73.58.76.68.76.28 0 .49-.18.64-.33a5.6 5.6 0 0 1 4.09-1.73c.97 0 2 .23 3.06.7 5.23 2.24 2.86 8.88 2.83 8.95-.45 1.1-.47 1.59-.04 1.87l.2.1h.15c.24 0 .53-.1 1.02-.27a9 9 0 0 1 2.79-.62 7.2 7.2 0 0 1 7.14 7.14c0 3.94-3.2 7.13-7.14 7.13z"/>
  </g>
</svg>
