<svg version="1.1" id="Layer_1" xmlns="http://www.w3.org/2000/svg" xmlns:xlink="http://www.w3.org/1999/xlink" x="0px" y="0px" width="256px" height="168px" viewBox="0 0 256 168" enable-background="new 0 0 256 168" xml:space="preserve">
  <path fill="#00336F" d="M240 0H16C7.2 0 0 7.2 0 16v136c0 8.8 7.2 16 16 16h224c8.8 0 16-7.2 16-16V16c0-8.8-7.2-16-16-16z"/>
  <g fill-rule="evenodd" clip-rule="evenodd">
    <path fill="#0097D5" d="M128 131.03a63.16 63.16 0 0 0 20.88-46.97A63.63 63.63 0 0 0 128 36.96a62.87 62.87 0 0 0-42.5-16.4A63.53 63.53 0 0 0 22 84.06c0 35.04 28.46 63.38 63.5 63.38 16.4 0 31.32-6.22 42.5-16.4z"/>
    <path fill="#0097D5" d="M128 131.03a63.16 63.16 0 0 0 20.88-46.97A63.63 63.63 0 0 0 128 36.96v94.07z"/>
    <path fill="#E20025" d="M170.62 20.56A63.43 63.43 0 0 0 128 36.96a81.08 81.08 0 0 0-6.34 6.71h12.8a83.25 83.25 0 0 1 4.85 6.71h-22.5a90.46 90.46 0 0 0-3.72 6.71h29.82c1 2.24 1.99 4.48 2.73 6.71h-35.16a61.85 61.85 0 0 0-1.87 6.84h38.9a67.38 67.38 0 0 1 1.37 13.42c0 6.96-1.12 13.8-3.24 20.13h-35.16a74.74 74.74 0 0 0 2.6 6.71h29.83c-1.12 2.24-2.24 4.6-3.6 6.71h-22.5c1.5 2.36 3.11 4.6 4.85 6.71h12.8a65.73 65.73 0 0 1-6.46 6.71 63.42 63.42 0 0 0 42.62 16.4A63.32 63.32 0 0 0 234 84.07c0-35.04-28.33-63.5-63.38-63.5z"/>
    <path fill="#FFF" d="M77.55 99.84h-7.96l4.73-24.73L63.5 99.84H56.3l-1.24-24.6-4.73 24.6h-7.2l6.08-32.18h12.43l.62 19.88 8.7-19.88h12.8l-6.21 32.18zM165.78 99.47c-2.24.62-3.86.87-5.72.87-3.98 0-6.21-1.99-6.21-5.72 0-.74.12-1.49.24-2.36l.5-2.6.38-2 3.6-20h7.83l-1.12 5.96h4.1l-1.12 6.34h-4.1l-1.99 10.94c-.12.5-.24.87-.24 1.12 0 1.36.87 1.98 2.73 1.98.87 0 1.61-.12 2.11-.25l-1 5.72zM188.77 73.87c-.63-.25-.75-.25-.87-.25-.38-.12-.62-.12-.62-.25h-.88c-2.6 0-4.47 1.12-6.83 4.23l.75-3.98h-7.21l-4.85 26.22h7.95c2.86-16.03 3.98-18.88 7.83-18.88.25 0 .63.12 1 .12l.87.25 2.86-7.46zM134.46 81.95c0 3.23 1.87 5.6 6.1 7.2 3.22 1.37 3.72 1.75 3.72 2.99 0 1.61-1.49 2.36-4.6 2.36-2.36 0-4.6-.37-7.2-1.12l-1 6.1h.37l1.37.36c.5 0 1.24.13 2.11.13 1.86.25 3.36.25 4.47.25 8.33 0 12.3-2.74 12.3-8.7 0-3.6-1.6-5.72-5.7-7.33-3.36-1.25-3.74-1.62-3.74-2.86 0-1.37 1.37-2.11 3.98-2.11 1.5 0 3.73.12 5.72.37l1.11-5.97c-2.1-.37-5.21-.5-6.95-.5-8.95 0-12.06 3.98-12.06 8.83zM103.15 99.84h-6.47l.13-2.73c-1.99 2.11-4.72 3.1-8.33 3.1-4.22 0-7.2-2.85-7.2-7.08 0-6.33 5.1-10.06 13.92-10.06.86 0 1.98 0 3.23.12.24-.87.24-1.24.24-1.61 0-1.74-1.36-2.36-5.1-2.36-2.23 0-4.72.24-6.45.62L86 80.2l-.75.12 1.12-5.84c3.98-.99 6.46-1.36 9.45-1.36 6.83 0 10.3 2.6 10.3 7.58 0 1.37-.12 2.36-.61 5.22l-1.62 9.32-.25 1.61-.24 1.37-.13.87-.12.74zm-5.72-11.68c-.87-.12-1.24-.12-1.74-.12-4.47 0-6.71 1.37-6.71 3.98 0 1.61 1 2.73 2.73 2.73 3.24 0 5.6-2.73 5.72-6.59zM129.12 99.22a30.14 30.14 0 0 1-8.08 1.12c-8.82 0-13.42-4.1-13.42-11.8 0-8.95 5.84-15.54 13.8-15.54 6.46 0 10.56 3.73 10.56 9.45 0 1.98-.25 3.85-.87 6.46h-15.79v.87c0 2.98 2.24 4.6 6.84 4.6 2.86 0 5.47-.5 8.2-1.62l-1.24 6.46zm-4.23-15.53v-1.37c0-2.1-1.36-3.35-3.73-3.35-2.48 0-4.22 1.74-4.97 4.72h8.7zM213.37 87.91c-1.24 8.7-7.33 12.56-15.4 12.56-8.83 0-12.43-5.35-12.43-12.06 0-9.2 6.09-15.53 15.53-15.53 8.2 0 12.55 5.22 12.55 11.8 0 1.62 0 1.74-.25 3.23zm-8.2-3.35c0-2.74-1.12-5.22-4.35-5.22-3.98 0-6.46 4.72-6.46 8.95 0 3.48 1.74 5.84 4.47 5.84 1.74 0 5.47-2.36 6.1-6.34.24-1 .24-2.11.24-3.23z"/>
  </g>
</svg>
