<svg version="1.1" id="Layer_1" xmlns="http://www.w3.org/2000/svg" xmlns:xlink="http://www.w3.org/1999/xlink" x="0px" y="0px" width="256px" height="168px" viewBox="0 0 256 168" enable-background="new 0 0 256 168" xml:space="preserve">
  <path fill="#FFF" d="M240 .4H16C8 .4.8 6.8.8 15.6v136.8c0 8 6.4 15.2 15.2 15.2h224c8 0 15.2-6.4 15.2-15.2V15.6C254.4 6.8 248 .4 240 .4z"/>
  <path fill="#8E8E8E" d="M240.8 2.4c7.2 0 12.8 5.6 12.8 12.8v137.6c0 7.2-5.6 12.8-12.8 12.8H15.2c-7.2 0-12.8-5.6-12.8-12.8V15.2C2.4 8 8 2.4 15.2 2.4h225.6m0-2.4H15.2C7.2 0 0 6.4 0 15.2v137.6c0 8 6.4 15.2 15.2 15.2h225.6c8 0 15.2-6.4 15.2-15.2V15.2C256 6.4 249.6 0 240.8 0z"/>
  <g>
    <path fill="#004675" d="M149.83 57.4c.56.56 1.2 1.01 1.92 1.35a5.17 5.17 0 0 0 4.44 0 6.71 6.71 0 0 0 3.27-3.27 5.17 5.17 0 0 0 0-4.45 6.79 6.79 0 0 0-3.27-3.26 5.16 5.16 0 0 0-4.44 0 6.75 6.75 0 0 0-3.27 3.26 5.16 5.16 0 0 0 0 4.45 6.7 6.7 0 0 0 1.35 1.92M139.34 80.02c-1.23-3-2.9-5.63-5.05-7.87a23.29 23.29 0 0 0-17.04-7.18 23.17 23.17 0 0 0-16.97 7.18 24.79 24.79 0 0 0-5.04 7.87c-1.23 3-1.84 6.27-1.84 9.79 0 3.51.62 6.77 1.84 9.78 1.22 3 2.9 5.63 5.04 7.87a23.21 23.21 0 0 0 16.97 7.18 23.43 23.43 0 0 0 17.04-7.18 24.81 24.81 0 0 0 5.05-7.87c1.22-3 1.83-6.27 1.83-9.78s-.61-6.78-1.83-9.79M128 94.88a12.03 12.03 0 0 1-6.12 6.58c-1.4.66-2.89.99-4.5.99a10.2 10.2 0 0 1-4.42-1 11.97 11.97 0 0 1-6.12-6.57c-.61-1.51-.92-3.12-.92-4.82s.3-3.3.92-4.8a12.03 12.03 0 0 1 6.12-6.58c1.4-.67 2.87-1 4.43-1 1.6 0 3.1.33 4.5.99a12.1 12.1 0 0 1 6.11 6.58c.62 1.51.93 3.12.93 4.81s-.31 3.3-.93 4.82M212.4 80.25l-.07-.15a24.84 24.84 0 0 0-5.07-7.95 23.44 23.44 0 0 0-17.04-7.18 23.18 23.18 0 0 0-16.98 7.18 24.84 24.84 0 0 0-5.04 7.87c-1.22 3-1.83 6.27-1.83 9.79l.01.09.01.09v44.23l-.02.3v3.02c0 1.13.91 2.05 2.05 2.05h.34c.11.02.22.03.34.03h6.57c.12 0 .24-.01.35-.03h.61c1.13 0 2.05-.92 2.05-2.05v-1.22l.01-.17v-22.43c0-1.88 2.1-.68 2.1-.68a23.53 23.53 0 0 0 26.57-5.31 24.82 24.82 0 0 0 5.04-7.9c1.22-3 1.83-6.27 1.83-9.79 0-3.52-.61-6.78-1.84-9.79zm-11.04 14.8a12.56 12.56 0 0 1-6.37 6.86 10.78 10.78 0 0 1-4.69 1.03c-1.62 0-3.16-.34-4.6-1.03a12.5 12.5 0 0 1-6.39-6.86 13.2 13.2 0 0 1-.96-5.01c0-1.77.32-3.45.96-5.02a12.58 12.58 0 0 1 6.38-6.86 10.61 10.61 0 0 1 4.61-1.03c1.67 0 3.23.34 4.69 1.03a12.55 12.55 0 0 1 6.37 6.86c.64 1.57.96 3.25.96 5.02 0 1.76-.32 3.44-.96 5zM159.56 109.6V76.26c0-3.64-1.49-6.87-4.05-8.94a10.34 10.34 0 0 0-6-2.37c-1.03 0-1.56 1.27-1.56 2.36v42.3c-.02.11-.04.23-.04.34v3.03c0 1.13.92 2.05 2.05 2.05h7.59c1.13 0 2.05-.92 2.05-2.05v-3.03c0-.12-.02-.23-.04-.35zM87.16 109.63V83.98c0-2.7-.54-5.21-1.48-7.53a19.01 19.01 0 0 0-3.9-6.04 17.63 17.63 0 0 0-5.81-4.01c-.17-.08-.35-.14-.51-.2a11.94 11.94 0 0 0-3.14-1 23.8 23.8 0 0 0-3.63-.26c-2.44 0-4.75.46-6.91 1.38-1.09.46-2.11 1-3.08 1.65l-.77.55a3.45 3.45 0 0 1-3.87.02l-.27-.17s-2.26-1.4-3.55-1.93a17.1 17.1 0 0 0-6.86-1.27c-1.33 0-2.53-.02-3.63.15 0 0-1.88.31-3.63 1.11a18.5 18.5 0 0 0-5.8 4 18.94 18.94 0 0 0-3.89 6.03A19.9 19.9 0 0 0 25 83.98V112.98c0 1.13.92 2.05 2.05 2.05h7.22c1.13 0 2.05-.92 2.05-2.05v-3.03l-.02-.11-.04-26.2c0-3.93 3.2-7.12 7.12-7.12s7 3.24 7 7.17l-.1.52v27.36l.01.36v1.05c0 1.13.92 2.05 2.05 2.05H59.93c1.13 0 2.05-.92 2.05-2.05v-1.15l.01-.14-.05-28.32a6.85 6.85 0 0 1 6.85-6.85c3.78 0 6.8 3.11 6.8 6.9l-.05.8v25.36c-.02.12-.03.25-.03.37v3.03c0 1.13.91 2.05 2.04 2.05H85.14c1.13 0 2.05-.92 2.05-2.05v-3.03l-.03-.32z"/>
    <path fill="#3E94CC" d="M207.34 28.99c-6.58 3.61-7.03 27.25-.06 30.05 6.51 2.61 23.68-8 23.72-15.03.04-7-17.51-18.39-23.66-15.02zm4.04 20.68c-.63.63-1.67.63-2.3 0l-.14-.13a1.63 1.63 0 0 1 0-2.3l2.17-2.17c.63-.64.63-1.68 0-2.31l-2.17-2.17a1.63 1.63 0 0 1 0-2.3l.13-.13a1.63 1.63 0 0 1 2.3 0l4.61 4.6c.64.63.64 1.67 0 2.3l-4.6 4.6zm12.36-4.6l-4.6 4.6c-.64.63-1.68.63-2.31 0l-.13-.13a1.64 1.64 0 0 1 0-2.3l2.16-2.17c.64-.64.64-1.68 0-2.31l-2.16-2.17a1.63 1.63 0 0 1 0-2.3l.13-.13a1.64 1.64 0 0 1 2.3 0l4.6 4.6c.64.63.64 1.67 0 2.3z"/>
  </g>
</svg>
