<svg version="1.1" id="Layer_1" xmlns="http://www.w3.org/2000/svg" xmlns:xlink="http://www.w3.org/1999/xlink" x="0px" y="0px" width="256px" height="168px" viewBox="0 0 256 168" enable-background="new 0 0 256 168" xml:space="preserve">
  <path fill="#FFF" d="M240 .8H16C8 .8.8 7.2.8 16v136.8c0 8 6.4 15.2 15.2 15.2h224c8 0 15.2-6.4 15.2-15.2V16C254.4 7.2 248 .8 240 .8z"/>
  <path fill="#8E8E8E" d="M240.8 2.4c7.2 0 12.8 5.6 12.8 12.8v137.6c0 7.2-5.6 12.8-12.8 12.8H15.2c-7.2 0-12.8-5.6-12.8-12.8V15.2C2.4 8 8 2.4 15.2 2.4h225.6m0-2.4H15.2C7.2 0 0 6.4 0 15.2v137.6c0 8 6.4 15.2 15.2 15.2h225.6c8 0 15.2-6.4 15.2-15.2V15.2C256 6.4 249.6 0 240.8 0z"/>
  <g>
    <path fill="#010101" d="M73.86 149.65v-8.77c0-3.3-2.1-5.52-5.5-5.55a5.41 5.41 0 0 0-4.9 2.48 5.12 5.12 0 0 0-4.62-2.48c-1.5 0-2.95.44-4.1 2.08v-1.73h-3.03v13.97h3.07v-7.74c0-2.43 1.34-3.72 3.42-3.72 2.01 0 3.03 1.32 3.03 3.69v7.77h3.07v-7.74c0-2.43 1.4-3.72 3.42-3.72 2.08 0 3.07 1.32 3.07 3.69v7.77h3.06zm45.4-13.97h-4.97v-4.23h-3.06v4.23h-2.84v2.78h2.84v6.37c0 3.24 1.25 5.17 4.85 5.17a7.1 7.1 0 0 0 3.8-1.08l-.88-2.6c-.9.52-1.9.78-2.69.78-1.52 0-2.01-.93-2.01-2.33v-6.32h4.96v-2.77zm25.92-.35c-1.75 0-2.9.82-3.68 2.05v-1.7h-3.01v13.97h3.03v-7.83c0-2.3 1-3.6 2.98-3.6.62 0 1.26.1 1.9.36l.94-2.87a6.5 6.5 0 0 0-2.16-.38m-39.19 1.46a10.42 10.42 0 0 0-5.69-1.46c-3.54 0-5.81 1.7-5.81 4.47 0 2.28 1.69 3.69 4.81 4.12l1.44.2c1.66.24 2.45.68 2.45 1.47 0 1.08-1.1 1.7-3.18 1.7-2.1 0-3.63-.68-4.65-1.47l-1.43 2.36a10.07 10.07 0 0 0 6.05 1.82c4.03 0 6.37-1.9 6.37-4.56 0-2.45-1.84-3.74-4.88-4.18l-1.44-.2c-1.3-.18-2.36-.44-2.36-1.38 0-1.02.99-1.64 2.66-1.64a9 9 0 0 1 4.35 1.2l1.31-2.45zm81.4-1.46c-1.74 0-2.88.82-3.67 2.05v-1.7h-3.01v13.97h3.03v-7.83c0-2.3 1-3.6 2.98-3.6.61 0 1.26.1 1.9.36l.93-2.87a6.44 6.44 0 0 0-2.15-.38m-39.15 7.34c0 4.23 2.95 7.33 7.45 7.33 2.1 0 3.5-.47 5.02-1.67l-1.46-2.45a6.14 6.14 0 0 1-3.65 1.26c-2.43-.03-4.21-1.78-4.21-4.47 0-2.7 1.78-4.44 4.21-4.47 1.31 0 2.51.43 3.65 1.25l1.46-2.45a7.31 7.31 0 0 0-5.02-1.67c-4.5 0-7.45 3.1-7.45 7.34m28.45 0v-6.99h-3.04v1.7a5.29 5.29 0 0 0-4.4-2.05c-3.92 0-6.98 3.07-6.98 7.34 0 4.26 3.06 7.33 6.98 7.33a5.3 5.3 0 0 0 4.4-2.04v1.69h3.04v-6.98zm-11.3 0c0-2.46 1.6-4.48 4.23-4.48 2.52 0 4.21 1.93 4.21 4.48 0 2.54-1.7 4.47-4.2 4.47-2.64 0-4.24-2.02-4.24-4.47m-36.67-7.34c-4.1 0-6.95 2.98-6.95 7.34 0 4.43 2.98 7.33 7.16 7.33a8.5 8.5 0 0 0 5.72-1.96l-1.48-2.25a6.64 6.64 0 0 1-4.07 1.46c-1.96 0-3.74-.9-4.18-3.41h10.38c.03-.39.06-.77.06-1.17-.04-4.36-2.72-7.34-6.64-7.34m-.06 2.72c1.96 0 3.21 1.23 3.54 3.39h-7.25c.32-2.02 1.55-3.4 3.7-3.4m76.24 4.63v-12.6h-3.04v7.3a5.28 5.28 0 0 0-4.4-2.04c-3.93 0-7 3.07-7 7.34 0 4.26 3.07 7.33 7 7.33a5.3 5.3 0 0 0 4.4-2.04v1.69h3.04v-6.98zm-11.3 0c0-2.46 1.6-4.48 4.23-4.48 2.51 0 4.2 1.93 4.2 4.48 0 2.54-1.69 4.47-4.2 4.47-2.63 0-4.24-2.02-4.24-4.47m-102.61 0v-6.99h-3.04v1.7a5.3 5.3 0 0 0-4.4-2.05c-3.93 0-7 3.07-7 7.34 0 4.26 3.07 7.33 7 7.33 1.97 0 3.44-.79 4.4-2.04v1.69h3.04v-6.98zm-11.3 0c0-2.46 1.6-4.48 4.23-4.48 2.51 0 4.2 1.93 4.2 4.48 0 2.54-1.69 4.47-4.2 4.47-2.63 0-4.24-2.02-4.24-4.47"/>
    <path fill="#F16522" d="M104.99 29.25H151v82.7H105v-82.7z"/>
    <path fill="#E41B24" d="M107.9 70.6A52.5 52.5 0 0 1 128 29.25a52.6 52.6 0 1 0 0 82.7 52.52 52.52 0 0 1-20.1-41.35"/>
    <path fill="#F89E1C" d="M213.1 70.6a52.6 52.6 0 0 1-85.1 41.35 52.5 52.5 0 0 0 20.1-41.35A52.51 52.51 0 0 0 128 29.25a52.6 52.6 0 0 1 85.1 41.35"/>
  </g>
</svg>
