<svg version="1.1" id="Layer_1" xmlns="http://www.w3.org/2000/svg" xmlns:xlink="http://www.w3.org/1999/xlink" x="0px" y="0px" width="256px" height="168px" viewBox="0 0 256 168" enable-background="new 0 0 256 168" xml:space="preserve">
  <path fill="#FFF" d="M240 .8H16C8 .8.8 7.2.8 16v136.8c0 8 6.4 15.2 15.2 15.2h224c8 0 15.2-6.4 15.2-15.2V16C254.4 7.2 248 .8 240 .8z"/>
  <path fill="#8E8E8E" d="M240.8 2.4c7.2 0 12.8 5.6 12.8 12.8v137.6c0 7.2-5.6 12.8-12.8 12.8H15.2c-7.2 0-12.8-5.6-12.8-12.8V15.2C2.4 8 8 2.4 15.2 2.4h225.6m0-2.4H15.2C7.2 0 0 6.4 0 15.2v137.6c0 8 6.4 15.2 15.2 15.2h225.6c8 0 15.2-6.4 15.2-15.2V15.2C256 6.4 249.6 0 240.8 0z"/>
  <g>
    <path fill="#0066CB" d="M128 128.8A60.22 60.22 0 0 0 147.86 84 60.2 60.2 0 0 0 128 39.2a60.43 60.43 0 1 0 0 89.59"/>
    <path fill="#0066CB" d="M128 128.8A60.22 60.22 0 0 0 147.86 84 60.2 60.2 0 0 0 128 39.2"/>
    <path fill="none" stroke="#0066CB" stroke-width=".31" d="M128 128.8A60.22 60.22 0 0 0 147.86 84 60.2 60.2 0 0 0 128 39.2"/>
    <path fill="#CC0001" d="M168.62 23.57a60.22 60.22 0 0 0-46.73 22.04h12.22a49.73 49.73 0 0 1 4.59 6.4h-21.4a75.41 75.41 0 0 0-3.5 6.4h28.4c.99 2.07 1.8 4.2 2.52 6.4h-33.43a50.83 50.83 0 0 0-1.8 6.4h37.02c.9 4.12 1.35 8.4 1.35 12.79 0 6.7-1.08 13.16-3.14 19.2h-33.43c.72 2.19 1.53 4.32 2.51 6.4h28.4a56.57 56.57 0 0 1-3.5 6.4h-21.4a61.03 61.03 0 0 0 4.6 6.39h12.21a65.98 65.98 0 0 1-6.1 6.4A60.41 60.41 0 0 0 229 84a60.41 60.41 0 0 0-60.4-60.42"/>
    <path fill="#FFF" d="M79.92 99.04h-7.54l4.49-23.55-10.34 23.55h-6.82l-1.26-23.4-4.5 23.4h-6.82l5.84-30.63h11.77l.54 18.97 8.35-18.97h12.22l-5.92 30.63M163.94 98.75c-2.06.56-3.68.8-5.39.8-3.86 0-5.93-1.93-5.93-5.46 0-.7.09-1.45.18-2.24l.45-2.44.35-1.98 3.51-19.02h7.46l-1.08 5.72h3.87l-1.08 6.06h-3.87l-1.97 10.4c-.1.45-.1.8-.1 1.03 0 1.29.82 1.84 2.61 1.84.81 0 1.44-.07 1.98-.23l-.99 5.52M185.87 74.33c-.63-.24-.72-.24-.8-.27l-.64-.14a5.79 5.79 0 0 0-.81-.07c-2.43 0-4.22 1.11-6.56 4.06l.72-3.78h-6.83l-4.58 24.91h7.55c2.7-15.23 3.86-17.9 7.45-17.9.27 0 .54.02.9.06l.9.18 2.7-7.05M134.1 82c0 3.15 1.8 5.32 5.85 6.95 3.06 1.24 3.5 1.61 3.5 2.76 0 1.54-1.34 2.24-4.3 2.24-2.34 0-4.41-.3-6.84-.98l-1.07 5.74.35.06 1.35.25a59.19 59.19 0 0 0 6.2.43c8.09 0 11.77-2.63 11.77-8.31 0-3.43-1.52-5.43-5.39-6.94-3.14-1.26-3.5-1.54-3.5-2.71 0-1.34 1.25-2.03 3.68-2.03 1.53 0 3.5.14 5.48.37l1.08-5.77c-1.98-.27-4.94-.49-6.74-.49-8.44 0-11.41 3.83-11.41 8.44M98.89 87.95c-.81-.09-1.17-.1-1.71-.1-4.23 0-6.38 1.27-6.38 3.79 0 1.55.99 2.54 2.7 2.54 3.05 0 5.2-2.55 5.39-6.23zm5.48 11.1h-6.3l.19-2.58c-1.89 2.04-4.5 3-7.91 3-4.05 0-6.83-2.77-6.83-6.8 0-6.06 4.85-9.6 13.2-9.6.82 0 1.9.06 3.06.19.18-.83.27-1.17.27-1.62 0-1.65-1.35-2.26-4.85-2.26-2.16 0-4.59.26-6.2.69l-1.08.27-.63.16.99-5.61c3.77-.96 6.2-1.31 8.98-1.31 6.47 0 9.89 2.52 9.89 7.3 0 1.23-.09 2.16-.54 4.93L105 94.66l-.27 1.59-.18 1.26-.09.86-.08.67M125.03 83.69V82.4c0-2.02-1.25-3.2-3.5-3.2-2.43 0-4.13 1.58-4.85 4.47h8.35zM129 98.5c-2.52.68-5.03 1.01-7.64 1.01-8.45 0-12.85-3.83-12.85-11.17 0-8.54 5.57-14.84 13.12-14.84 6.2 0 10.15 3.52 10.15 9.05 0 1.84-.27 3.63-.9 6.16h-14.91c-.1.38-.1.55-.1.78 0 2.89 2.25 4.36 6.57 4.36 2.7 0 5.12-.49 7.81-1.58L129 98.5M201.5 84.56c0-2.6-1.07-5.07-4.13-5.07-3.86 0-6.2 4.54-6.2 8.55 0 3.38 1.62 5.65 4.32 5.6 1.61 0 5.12-2.22 5.75-6.1.18-.9.26-1.9.26-2.98zm7.82 3.2c-1.17 8.27-6.92 11.96-14.64 11.96-8.54 0-11.96-5.17-11.96-11.5 0-8.82 5.84-14.8 14.83-14.8 7.82 0 11.95 4.92 11.95 11.24 0 1.54 0 1.64-.18 3.1"/>
  </g>
</svg>
