<svg version="1.1" id="Layer_1" xmlns="http://www.w3.org/2000/svg" xmlns:xlink="http://www.w3.org/1999/xlink" x="0px" y="0px" width="256px" height="168px" viewBox="0 0 256 168" enable-background="new 0 0 256 168" xml:space="preserve">
  <path fill="#FFF" d="M240 .8H16C8 .8.8 7.2.8 16v136.8c0 8 6.4 15.2 15.2 15.2h224c8 0 15.2-6.4 15.2-15.2V16C254.4 7.2 248 .8 240 .8z"/>
  <path fill="#8E8E8E" d="M240.8 2.4c7.2 0 12.8 5.6 12.8 12.8v137.6c0 7.2-5.6 12.8-12.8 12.8H15.2c-7.2 0-12.8-5.6-12.8-12.8V15.2C2.4 8 8 2.4 15.2 2.4h225.6m0-2.4H15.2C7.2 0 0 6.4 0 15.2v137.6c0 8 6.4 15.2 15.2 15.2h225.6c8 0 15.2-6.4 15.2-15.2V15.2C256 6.4 249.6 0 240.8 0z"/>
  <g>
    <path fill="#F9AC28" d="M128 131.32c11.32 10.16 26.13 16.55 42.67 16.55 35.13 0 63.58-28.45 63.58-63.87 0-35.12-28.45-63.86-63.58-63.86A63.74 63.74 0 0 0 107.1 84c0 18.86 8.13 35.7 20.9 47.3z"/>
    <path fill="#E61E28" d="M148.61 77.32c-.29-2.32-.58-4.64-1.16-6.67h-38.9c.58-2.33 1.16-4.65 1.74-6.68h35.13c-.87-2.32-1.74-4.65-2.61-6.68H113.2c1.16-2.32 2.32-4.65 3.77-6.68h22.64c-1.74-2.9-3.48-4.93-5.22-7.25h-12.77c2.03-2.33 4.06-4.65 6.38-6.68-11.32-10.16-26.12-16.55-42.67-16.55-35.13 0-63.58 28.74-63.58 63.87 0 35.41 28.45 63.86 63.58 63.86 16.54 0 31.35-6.38 42.67-16.54 2.32-2.04 4.36-4.36 6.39-6.68h-12.77a56.55 56.55 0 0 1-4.94-6.68h22.65a48.97 48.97 0 0 0 3.77-6.68h-29.9a31.8 31.8 0 0 1-2.61-6.68h35.12a28.31 28.31 0 0 0 1.74-6.67c.58-2.33.88-4.36 1.16-6.68.3-2.32.3-4.35.3-6.68-.01-2.9-.01-5.21-.3-7.25z"/>
    <path fill="#FFF" d="M222.78 100.26h-6.1l.59-2.62s-2.62 2.9-6.1 2.9c-3.48 0-8.42-3.19-8.42-9.86s5.52-13.65 11.61-13.65c4.06 0 6.1 3.2 6.1 3.2l1.16-8.42h6.1l-4.94 28.45zm-7.25-18.3c-5.52 0-7.84 12.78-2.04 12.78 5.81 0 7.84-12.77 2.03-12.77zm-17.71 4.36c-.58 2.03-2.32 13.94-2.32 13.94h-6.4l4.07-23.23h6.39l-.87 3.49c2.6-4.36 7.55-3.78 7.55-3.78-1.16 1.16-2.33 6.1-2.33 6.1s-4.93-.58-6.1 3.48zm-16.55 13.94l.29-2.62s-3.2 2.9-6.97 2.9c-2.03 0-6.68-.86-6.68-6.38 0-10.45 15.39-9 15.39-9s1.45-3.77-4.06-3.77c-4.36 0-7.55 1.16-7.55 1.16l1.45-5.23s2.32-.87 7.55-.87c7.55 0 9.29 4.07 9.29 6.1 0 1.74-3.2 17.42-3.2 17.42l-5.5.29zm-6.68-6.97c0 4.06 7.55 2.9 7.55-4.06.3 0-7.55 0-7.55 4.06zm-20.32-5.8c0 5.51 3.77 6.96 7.26 6.96 3.77 0 5.52-1.45 5.52-1.45l-1.17 5.23s-.58 2.03-6.38 2.03-12.2-3.78-12.2-13.07c0-9.28 6.1-16.54 15.4-16.54 3.48 0 7.54 1.45 7.54 1.45l-1.16 6.1c-11.03-5.23-14.8 3.77-14.8 9.28zm-14.22-1.17c-.58 2.03-2.32 13.94-2.32 13.94h-6.4l4.07-23.23h6.39l-.87 3.49c2.6-4.36 7.55-3.78 7.55-3.78-1.17 1.16-2.33 6.1-2.33 6.1.3 0-4.93-.58-6.1 3.48zM117.4 90.1c1.16 9.58 13.36 3.77 13.36 3.77l-.87 5.23s-18.58 5.8-18.58-9.3c0-7.83 4.35-13.35 12.2-13.35s8.7 6.39 8.7 8.71c0 2.32-.29 5.23-.29 5.23l-14.52-.3zm5.81-9c-4.64 0-5.23 4.64-5.23 4.64h8.42c0 .3.87-4.64-3.19-4.64zm-11.03.58h-3.78s-2.32 11.6-2.32 12.48c0 2.32 4.65.87 4.65.87l-.58 4.06s-10.16 2.9-10.16-2.6c0-2.04 4.06-25.26 4.06-25.26h6.1l-.87 5.51h3.77l-.87 4.94zM90.12 83.7c0 3.48 8.7.58 8.7 8.7 0 12.2-18 6.98-18 6.98l.88-4.65s10.16 3.2 10.16-1.74c0-3.77-8.71-1.45-8.71-9 0-11.03 16.55-6.68 16.55-6.68l-.87 4.65c.28 0-8.71-2.03-8.71 1.74zm-16.84 16.55l.29-2.62s-3.2 2.9-6.97 2.9c-2.03 0-6.67-.86-6.67-6.38 0-10.45 15.38-9 15.38-9s1.45-3.77-4.06-3.77c-4.36 0-7.55 1.16-7.55 1.16l1.45-5.23s2.32-.87 7.55-.87c7.55 0 9.29 4.07 9.29 6.1 0 1.74-3.2 17.42-3.2 17.42l-5.51.29zm-6.68-6.97c0 4.06 7.55 2.9 7.55-4.06.29 0-7.55 0-7.55 4.06zm-15.67 6.97l3.77-21.77-9.3 21.77h-6.09l-1.45-21.77-3.77 21.77h-5.8l4.64-28.74h10.45l.87 16.84 6.96-16.84h10.45l-5.22 28.74h-5.51z"/>
  </g>
</svg>
