<svg version="1.1" id="Layer_1" xmlns="http://www.w3.org/2000/svg" xmlns:xlink="http://www.w3.org/1999/xlink" x="0px" y="0px" width="256px" height="168px" viewBox="0 0 256 168" enable-background="new 0 0 256 168" xml:space="preserve">
  <path fill="#00336F" d="M240 0H16C7.2 0 0 7.2 0 16v136c0 8.8 7.2 16 16 16h224c8.8 0 16-7.2 16-16V16c0-8.8-7.2-16-16-16z"/>
  <path fill="#F7981D" d="M234.25 84.36c0 35.19-28.45 63.73-63.58 63.74-35.12.02-63.6-28.52-63.61-63.7v-.04c-.01-35.2 28.46-63.74 63.58-63.75 35.12-.01 63.6 28.52 63.61 63.72v.03z"/>
  <path fill="#CB2026" d="M84.94 20.62c-34.92.23-63.19 28.7-63.19 63.74 0 35.18 28.49 63.73 63.6 63.73 16.47 0 31.49-6.3 42.79-16.6v-.01a62.77 62.77 0 0 0 6.46-6.83h-13.02a61.65 61.65 0 0 1-4.75-6.56h22.47c1.37-2.2 2.6-4.47 3.71-6.82h-29.88a63.1 63.1 0 0 1-2.66-6.7h35.2a64.27 64.27 0 0 0 1.8-33.87H108.6a65.7 65.7 0 0 1 1.81-6.68h35.22a64.9 64.9 0 0 0-2.74-6.83h-29.77a62.19 62.19 0 0 1 3.65-6.7h22.45a63.99 63.99 0 0 0-4.93-6.82h-12.52a58.93 58.93 0 0 1 6.38-6.43 63.27 63.27 0 0 0-42.8-16.61h-.4z"/>
  <path fill="#FFF" d="M108.21 100.58l.86-5.76c-.47 0-1.15.2-1.75.2-2.36 0-2.62-1.27-2.46-2.2l1.9-11.76h3.58l.86-6.39h-3.37l.69-3.96h-6.78c-.14.14-4 22.31-4 25 0 4 2.24 5.78 5.4 5.76 2.47-.02 4.4-.7 5.07-.89zM110.36 89.58c0 9.6 6.31 11.88 11.7 11.88 4.96 0 7.14-1.12 7.14-1.12l1.2-6.55s-3.78 1.68-7.2 1.68c-7.26 0-5.98-5.43-5.98-5.43h13.76s.88-4.4.88-6.2c0-4.46-2.22-9.91-9.65-9.91-6.81 0-11.85 7.34-11.85 15.65zM122.24 80c3.82 0 3.11 4.3 3.11 4.65h-7.52c0-.44.71-4.65 4.4-4.65zM165.11 100.58l1.22-7.4s-3.33 1.68-5.6 1.68c-4.82 0-6.74-3.69-6.74-7.63 0-8.02 4.13-12.42 8.74-12.42 3.44 0 6.22 1.94 6.22 1.94l1.1-7.19s-4.1-1.66-7.62-1.66c-7.82 0-15.43 6.79-15.43 19.56 0 8.45 4.11 14.05 12.19 14.05 2.29 0 5.92-.93 5.92-.93zM70.97 74.03c-4.64 0-8.2 1.5-8.2 1.5l-.98 5.84s2.94-1.19 7.38-1.19c2.52 0 4.36.28 4.36 2.34 0 1.24-.22 1.7-.22 1.7s-1.99-.16-2.91-.16c-5.86 0-12 2.5-12 10.05 0 5.95 4.03 7.32 6.53 7.32 4.77 0 6.83-3.1 6.94-3.12l-.22 2.6h5.96l2.66-18.7c0-7.92-6.9-8.18-9.3-8.18zm1.46 15.21c.12 1.15-.72 6.5-4.8 6.5-2.1 0-2.65-1.61-2.65-2.57 0-1.85 1-4.08 5.97-4.08 1.15 0 1.28.12 1.48.15zM86.61 101.28c1.52 0 10.24.4 10.24-8.62 0-8.43-8.06-6.77-8.06-10.15 0-1.68 1.3-2.22 3.71-2.22.96 0 4.63.31 4.63.31l.86-6s-2.38-.53-6.25-.53c-5.02 0-10.1 2-10.1 8.86 0 7.77 8.48 6.99 8.48 10.26 0 2.19-2.37 2.37-4.2 2.37-3.15 0-6-1.09-6-1.04l-.9 5.93c.15.05 1.91.83 7.6.83zM221.2 68.65l-1.46 9.08s-2.55-3.52-6.54-3.52c-6.2 0-11.37 7.5-11.37 16.11 0 5.56 2.75 11 8.4 11 4.05 0 6.3-2.83 6.3-2.83l-.3 2.42h6.59l5.17-32.27-6.8.01zm-3.14 17.72c0 3.58-1.78 8.36-5.44 8.36-2.44 0-3.58-2.05-3.58-5.27 0-5.26 2.35-8.73 5.32-8.73 2.45 0 3.7 1.68 3.7 5.64zM34.3 100.94l4.13-24.36.6 24.36h4.67l8.7-24.36-3.85 24.36h6.93l5.34-32.3H50.1l-6.67 19.81-.35-19.82H33.2l-5.42 32.3h6.53zM138.64 100.98c1.97-11.23 2.33-20.35 7.04-18.69.82-4.34 1.62-6.02 2.51-7.86 0 0-.42-.1-1.3-.1-3.03 0-5.28 4.16-5.28 4.16l.6-3.81h-6.3l-4.23 26.3h6.96zM180.73 74.03c-4.64 0-8.2 1.5-8.2 1.5l-.98 5.84s2.94-1.19 7.38-1.19c2.52 0 4.36.28 4.36 2.34 0 1.24-.22 1.7-.22 1.7s-1.99-.16-2.92-.16c-5.85 0-12 2.5-12 10.05 0 5.95 4.03 7.32 6.54 7.32 4.77 0 6.83-3.1 6.94-3.12l-.22 2.6h5.96l2.66-18.7c0-7.92-6.9-8.18-9.3-8.18zm1.46 15.21c.13 1.15-.71 6.5-4.8 6.5-2.1 0-2.64-1.61-2.64-2.57 0-1.85 1-4.08 5.96-4.08 1.16 0 1.28.12 1.48.15zM195.48 100.98c1.97-11.23 2.34-20.35 7.04-18.69.83-4.34 1.62-6.02 2.52-7.86 0 0-.42-.1-1.3-.1-3.04 0-5.28 4.16-5.28 4.16l.6-3.81h-6.31l-4.22 26.3h6.95z"/>
</svg>
