<svg version="1.1" id="Layer_1" xmlns="http://www.w3.org/2000/svg" xmlns:xlink="http://www.w3.org/1999/xlink" x="0px" y="0px" width="256px" height="168px" viewBox="0 0 256 168" enable-background="new 0 0 256 168" xml:space="preserve">
  <path fill="#FFF" d="M240 .8H16C8 .8.8 7.2.8 16v136.8c0 8 6.4 15.2 15.2 15.2h224c8 0 15.2-6.4 15.2-15.2V16C254.4 7.2 248 .8 240 .8z"/>
  <path fill="#8E8E8E" d="M240.8 2.4c7.2 0 12.8 5.6 12.8 12.8v137.6c0 7.2-5.6 12.8-12.8 12.8H15.2c-7.2 0-12.8-5.6-12.8-12.8V15.2C2.4 8 8 2.4 15.2 2.4h225.6m0-2.4H15.2C7.2 0 0 6.4 0 15.2v137.6c0 8 6.4 15.2 15.2 15.2h225.6c8 0 15.2-6.4 15.2-15.2V15.2C256 6.4 249.6 0 240.8 0z"/>
  <g>
    <path fill="#6C6BBD" d="M151 111.9h-46V29.25h46v82.65z"/>
    <path fill="#EB001B" d="M107.95 70.57c0-16.77 7.85-31.7 20.07-41.33a52.57 52.57 0 1 0 0 82.66 52.49 52.49 0 0 1-20.07-41.33"/>
    <path fill="#0099DF" d="M213.03 70.57a52.56 52.56 0 0 1-85.06 41.33 52.47 52.47 0 0 0 20.08-41.33c0-16.77-7.85-31.7-20.08-41.33a52.56 52.56 0 0 1 85.05 41.33"/>
    <path fill="#231F20" d="M166.5 135.25c.62 0 1.5.11 2.16.38l-.93 2.86a4.95 4.95 0 0 0-1.9-.36c-1.98 0-2.98 1.29-2.98 3.6v7.82h-3.04V135.6h3.01v1.69a4.13 4.13 0 0 1 3.68-2.04m-11.22 3.12h-4.96v6.3c0 1.41.5 2.35 2.01 2.35.8 0 1.78-.27 2.69-.8l.87 2.6a7.13 7.13 0 0 1-3.8 1.09c-3.59 0-4.84-1.93-4.84-5.17v-6.37h-2.83v-2.77h2.83v-4.24h3.06v4.24h4.97v2.77zm-38.87 2.98c.33-2.02 1.55-3.39 3.71-3.39 1.96 0 3.21 1.23 3.53 3.39h-7.24zm10.4 1.23c-.03-4.36-2.72-7.34-6.63-7.34-4.09 0-6.95 2.98-6.95 7.34 0 4.43 2.98 7.32 7.16 7.32 2.1 0 4.03-.53 5.72-1.96l-1.49-2.24a6.63 6.63 0 0 1-4.06 1.46c-1.96 0-3.74-.91-4.17-3.42h10.36c.03-.38.06-.76.06-1.16m13.34-3.42a8.95 8.95 0 0 0-4.35-1.2c-1.66 0-2.65.62-2.65 1.64 0 .93 1.05 1.2 2.36 1.37l1.43.2c3.04.44 4.88 1.72 4.88 4.18 0 2.66-2.34 4.55-6.37 4.55-2.27 0-4.38-.58-6.04-1.8l1.43-2.37a7.43 7.43 0 0 0 4.64 1.46c2.07 0 3.19-.61 3.19-1.7 0-.78-.8-1.22-2.46-1.45l-1.43-.2c-3.12-.45-4.82-1.85-4.82-4.12 0-2.78 2.28-4.47 5.82-4.47 2.22 0 4.23.5 5.69 1.46l-1.32 2.45zm37.45-1.03c-.62 0-1.2.11-1.74.33a4.16 4.16 0 0 0-2.32 2.34 4.9 4.9 0 0 0-.33 1.82c0 .67.11 1.27.34 1.83.22.55.53 1.02.92 1.42a4.28 4.28 0 0 0 3.13 1.24c.62 0 1.2-.1 1.74-.32a4.12 4.12 0 0 0 2.33-2.34c.23-.55.34-1.16.34-1.83a4.8 4.8 0 0 0-.34-1.82 4.18 4.18 0 0 0-2.33-2.34 4.6 4.6 0 0 0-1.74-.33m0-2.88c1.08 0 2.08.19 3 .56a7.1 7.1 0 0 1 3.98 3.88c.38.9.58 1.88.58 2.93a7.36 7.36 0 0 1-2.16 5.27 7.37 7.37 0 0 1-2.39 1.55c-.92.37-1.93.56-3.01.56s-2.08-.19-3-.56a7.24 7.24 0 0 1-4.53-6.81 7.42 7.42 0 0 1 2.14-5.27 7.28 7.28 0 0 1 2.38-1.55 7.95 7.95 0 0 1 3.01-.56m-78.93 7.33c0-2.46 1.61-4.47 4.24-4.47 2.51 0 4.2 1.92 4.2 4.47 0 2.53-1.69 4.46-4.2 4.46-2.63 0-4.24-2.01-4.24-4.46m11.3 0v-6.98h-3.03v1.69a5.3 5.3 0 0 0-4.41-2.05c-3.92 0-6.98 3.07-6.98 7.34 0 4.26 3.06 7.32 6.98 7.32a5.3 5.3 0 0 0 4.4-2.04v1.7h3.04v-6.98zm-17.1 6.97v-8.75c0-3.3-2.1-5.52-5.5-5.55a5.41 5.41 0 0 0-4.9 2.48 5.13 5.13 0 0 0-4.62-2.48c-1.49 0-2.95.44-4.09 2.07v-1.72h-3.03v13.95h3.06v-7.73c0-2.43 1.35-3.71 3.42-3.71 2.02 0 3.04 1.31 3.04 3.68v7.76h3.06v-7.73c0-2.43 1.4-3.71 3.42-3.71 2.07 0 3.07 1.31 3.07 3.68v7.76h3.07z"/>
  </g>
</svg>
