<svg version="1.1" id="Layer_1" xmlns="http://www.w3.org/2000/svg" xmlns:xlink="http://www.w3.org/1999/xlink" x="0px" y="0px" width="256px" height="168px" viewBox="0 0 256 168" enable-background="new 0 0 256 168" xml:space="preserve">
  <path fill="#FFF" d="M240 .4H16C8 .4.8 6.8.8 15.6v136.8c0 8 6.4 15.2 15.2 15.2h224c8 0 15.2-6.4 15.2-15.2V15.6C254.4 6.8 248 .4 240 .4z"/>
  <path fill="#8E8E8E" d="M240.8 2.4c7.2 0 12.8 5.6 12.8 12.8v137.6c0 7.2-5.6 12.8-12.8 12.8H15.2c-7.2 0-12.8-5.6-12.8-12.8V15.2C2.4 8 8 2.4 15.2 2.4h225.6m0-2.4H15.2C7.2 0 0 6.4 0 15.2v137.6c0 8 6.4 15.2 15.2 15.2h225.6c8 0 15.2-6.4 15.2-15.2V15.2C256 6.4 249.6 0 240.8 0z"/>
  <g>
    <path fill="#0092D0" d="M165.75 55.22h-16.8c-1.15 0-2.13.84-2.3 1.97l-6.8 43.08a1.4 1.4 0 0 0 1.38 1.62h8.62c.8 0 1.5-.58 1.62-1.38l1.93-12.21a2.33 2.33 0 0 1 2.3-1.97h5.32c11.06 0 17.45-5.36 19.12-15.97.75-4.65.03-8.3-2.15-10.85-2.38-2.8-6.62-4.29-12.24-4.29zm1.94 15.74c-.92 6.03-5.52 6.03-9.98 6.03h-2.54l1.78-11.26c.11-.69.7-1.19 1.39-1.19h1.16c3.03 0 5.9 0 7.37 1.73.89 1.04 1.15 2.57.82 4.69z"/>
    <path fill="#004C93" d="M45.92 55.22h-16.8c-1.15 0-2.13.84-2.31 1.97l-6.8 43.08a1.4 1.4 0 0 0 1.39 1.62h8.02c1.15 0 2.13-.83 2.3-1.97l1.84-11.62a2.34 2.34 0 0 1 2.3-1.97h5.32c11.07 0 17.46-5.36 19.13-15.97.75-4.65.03-8.3-2.15-10.85-2.39-2.8-6.62-4.29-12.24-4.29zm1.94 15.74c-.92 6.03-5.53 6.03-9.98 6.03h-2.54l1.78-11.26c.1-.69.7-1.19 1.38-1.19h1.17c3.03 0 5.9 0 7.37 1.73.88 1.04 1.15 2.57.82 4.69zM96.14 70.76h-8.05c-.69 0-1.27.5-1.38 1.19l-.36 2.25-.56-.82c-1.74-2.53-5.62-3.37-9.5-3.37-8.9 0-16.48 6.73-17.96 16.18-.77 4.71.32 9.22 3 12.36 2.45 2.89 5.95 4.1 10.13 4.1a15.4 15.4 0 0 0 11.14-4.61l-.36 2.23a1.4 1.4 0 0 0 1.38 1.62h7.25c1.14 0 2.12-.83 2.3-1.97l4.35-27.54a1.4 1.4 0 0 0-1.38-1.62zM84.92 86.42a8.97 8.97 0 0 1-9.08 7.68c-2.33 0-4.2-.75-5.4-2.17-1.19-1.4-1.64-3.41-1.26-5.65a9 9 0 0 1 9.02-7.74c2.28 0 4.14.76 5.36 2.2 1.23 1.44 1.72 3.46 1.36 5.68z"/>
    <path fill="#0092D0" d="M215.97 70.76h-8.05c-.68 0-1.27.5-1.38 1.19l-.35 2.25-.57-.82c-1.74-2.53-5.62-3.37-9.5-3.37-8.89 0-16.48 6.73-17.96 16.18-.77 4.71.32 9.22 3 12.36 2.45 2.89 5.96 4.1 10.13 4.1 7.17 0 11.14-4.61 11.14-4.61l-.36 2.23a1.4 1.4 0 0 0 1.38 1.62h7.25c1.15 0 2.13-.83 2.3-1.97l4.35-27.54a1.4 1.4 0 0 0-1.38-1.62zm-11.21 15.66a8.97 8.97 0 0 1-9.08 7.68c-2.34 0-4.2-.75-5.4-2.17-1.2-1.4-1.65-3.41-1.27-5.65a9 9 0 0 1 9.02-7.74c2.29 0 4.14.76 5.36 2.2 1.24 1.44 1.72 3.46 1.37 5.68z"/>
    <path fill="#004C93" d="M138.99 70.76h-8.1c-.76 0-1.49.39-1.92 1.03L117.8 88.2l-4.73-15.78a2.34 2.34 0 0 0-2.23-1.67h-7.95a1.4 1.4 0 0 0-1.33 1.86l8.9 26.13-8.37 11.82a1.4 1.4 0 0 0 1.15 2.2h8.08c.76 0 1.48-.37 1.91-1l26.9-38.8a1.4 1.4 0 0 0-1.15-2.2z"/>
    <path fill="#0092D0" d="M225.45 56.4l-6.9 43.87a1.4 1.4 0 0 0 1.4 1.62h6.93c1.15 0 2.12-.83 2.3-1.97l6.8-43.08a1.4 1.4 0 0 0-1.38-1.62h-7.76c-.7 0-1.28.5-1.39 1.18z"/>
  </g>
</svg>
