<svg version="1.1" id="Layer_1" xmlns="http://www.w3.org/2000/svg" xmlns:xlink="http://www.w3.org/1999/xlink" x="0px" y="0px" width="256px" height="168px" viewBox="0 0 256 168" enable-background="new 0 0 256 168" xml:space="preserve">
  <path fill="#FFF" d="M240 .4H16C8 .4.8 6.8.8 15.6v136.8c0 8 6.4 15.2 15.2 15.2h224c8 0 15.2-6.4 15.2-15.2V15.6C254.4 6.8 248 .4 240 .4z"/>
  <path fill="#8E8E8E" d="M240.8 2.4c7.2 0 12.8 5.6 12.8 12.8v137.6c0 7.2-5.6 12.8-12.8 12.8H15.2c-7.2 0-12.8-5.6-12.8-12.8V15.2C2.4 8 8 2.4 15.2 2.4h225.6m0-2.4H15.2C7.2 0 0 6.4 0 15.2v137.6c0 8 6.4 15.2 15.2 15.2h225.6c8 0 15.2-6.4 15.2-15.2V15.2C256 6.4 249.6 0 240.8 0z"/>
  <g>
    <path fill="#BBCE00" d="M234.1 52.7h-9.55a1.89 1.89 0 0 1-1.89-1.9v-9.67c0-1.04.85-1.88 1.9-1.88h9.55c1.04 0 1.89.85 1.89 1.89v9.67c0 1.04-.85 1.89-1.9 1.89zM221.38 39.25h-6.5c-.7 0-1.27-.58-1.27-1.29V31.4c0-.7.57-1.28 1.28-1.28h6.49c.7 0 1.28.58 1.28 1.29v6.57c0 .7-.58 1.28-1.28 1.28z"/>
    <linearGradient id="a" gradientUnits="userSpaceOnUse" x1="158.29" y1="-70.08" x2="158.29" y2="-152.36" gradientTransform="matrix(1 0 0 -1 -41.5 4)">
      <stop offset="0" stop-color="#bbce00"/>
      <stop offset="1" stop-color="#428e29"/>
    </linearGradient>
    <path fill="url(#a)" d="M44.63 57h-13.9C23.32 57 20 60.33 20 67.76v47.7c0 2.86.92 3.78 3.79 3.78h.94c2.87 0 3.79-.92 3.79-3.78V96.89h16.11c14.31 0 20.98-6.34 20.98-19.94 0-13.6-6.67-19.94-20.98-19.94zM57.1 76.96c0 7.77-1.99 11.98-12.46 11.98H28.52V68.87c0-2.78 1.03-3.81 3.81-3.81h12.3c7.9 0 12.46 1.94 12.46 11.89zm26.41-6.26c-5.5 0-8.96.69-10.26.95-2.32.5-3.3 1.14-3.3 3.78v.75c0 1.03.16 1.75.49 2.25.38.59 1 .88 1.83.88.4 0 .87-.06 1.44-.2a50.24 50.24 0 0 1 10.18-1.02c8.31 0 11.7 2.3 11.7 7.95v5.03H85.1c-13.47 0-19.75 4.55-19.75 14.3 0 9.48 6.48 14.69 18.25 14.69 13.98 0 20.22-4.76 20.22-15.43v-18.6c0-10.31-6.65-15.33-20.32-15.33zm12.08 27.1v6.54c0 5.34-1.97 8.42-12.08 8.42-6.67 0-9.91-2.41-9.91-7.38 0-5.45 3.25-7.57 11.6-7.57h10.4zm54.51-21.9l-10.8 43.2c-3.16 12.67-8.57 18.1-18.67 18.77l-.74.03c-2.17 0-2.86-1.2-3.26-3.14l-.2-.84c-.18-.88-.3-1.87.22-2.56.5-.67 1.4-.86 2.76-.98 6.76-.69 9.06-3.82 11.31-10.9-1.06.35-2.35.55-3.74.55-7.43 0-9.42-5.18-11.09-11.43l-8.92-32.68c-.3-1.1-.5-2.23.09-2.99s1.7-.86 2.83-.86h.76c2.8 0 3.88.83 4.6 3.54l8.83 32.4c1.15 4.04 2.3 4.72 5.15 4.72 2.34 0 3.7-.73 4.68-4.71l7.8-32.4c.62-2.68 1.72-3.55 4.52-3.55h.84c1.13 0 2.25.1 2.85.85.6.75.44 1.87.18 2.98zm63.49-12.62v32.76c0 5.26-1.19 9.72-3.49 13.32-4.43 6.97-13.02 10.68-25.23 10.68h-.09c-12.21 0-20.8-3.7-25.23-10.68-2.3-3.6-3.49-8.06-3.49-13.32V63.27c0-5.3 2.16-6.25 7.97-6.25h1.83c5.81 0 7.97.96 7.97 6.25V78.45l.01.27v17.3c0 2.12.41 3.8 1.25 5.11 1.59 2.44 4.72 3.55 9.74 3.55 5.02 0 8.15-1.11 9.73-3.55.84-1.31 1.25-3 1.25-5.1v-17.3l.01-.28v-2.72-12.46c0-5.3 2.16-6.25 7.97-6.25h1.83c5.8 0 7.97.96 7.97 6.25z"/>
    <path fill="#BBCE00" d="M220.12 70.8h-12.87a2.54 2.54 0 0 1-2.54-2.55V55.23c0-1.4 1.15-2.54 2.55-2.54h12.86c1.4 0 2.54 1.14 2.54 2.54v13.03c0 1.4-1.14 2.54-2.54 2.53z"/>
  </g>
</svg>
