<svg version="1.1" id="Layer_1" xmlns="http://www.w3.org/2000/svg" xmlns:xlink="http://www.w3.org/1999/xlink" x="0px" y="0px" width="256px" height="168px" viewBox="0 0 256 168" enable-background="new 0 0 256 168" xml:space="preserve">
  <path fill="#FFF" d="M240 .4H16C8 .4.8 6.8.8 15.6v136.8c0 8 6.4 15.2 15.2 15.2h224c8 0 15.2-6.4 15.2-15.2V15.6C254.4 6.8 248 .4 240 .4z"/>
  <path fill="#8E8E8E" d="M240.8 2.4c7.2 0 12.8 5.6 12.8 12.8v137.6c0 7.2-5.6 12.8-12.8 12.8H15.2c-7.2 0-12.8-5.6-12.8-12.8V15.2C2.4 8 8 2.4 15.2 2.4h225.6m0-2.4H15.2C7.2 0 0 6.4 0 15.2v137.6c0 8 6.4 15.2 15.2 15.2h225.6c8 0 15.2-6.4 15.2-15.2V15.2C256 6.4 249.6 0 240.8 0z"/>
  <g>
    <circle cx="128" cy="84" r="63"/>
    <radialGradient id="a" cx="195.94" cy="-84.65" r="39.11" gradientTransform="matrix(1 0 0 -1 -41.5 4)" gradientUnits="userSpaceOnUse">
      <stop offset="0" stop-color="#ff0"/>
      <stop offset="1" stop-color="#f90"/>
    </radialGradient>
    <path fill="url(#a)" d="M138.66 123.14c-2.6-4.75-3.33-11.02-1.59-17.85 2.84-11.15 11.43-20.48 21.02-23.92 5.6 9.5 7.35 20.79 4.24 31.37a51.38 51.38 0 0 1-23.67 10.4z"/>
    <path fill="#FD0100" d="M149.77 131.49a16.33 16.33 0 0 1-10.32-7.05 55.59 55.59 0 0 0 22.37-10.1 37.68 37.68 0 0 1-12.05 17.15z"/>
    <linearGradient id="b" gradientUnits="userSpaceOnUse" x1="214.63" y1="-101.8" x2="214.63" y2="-75.96" gradientTransform="matrix(1 0 0 -1 -41.5 4)">
      <stop offset=".31" stop-color="#ff3000"/>
      <stop offset="1" stop-color="#ffad00"/>
    </linearGradient>
    <path fill="url(#b)" d="M169.52 105.8a43.58 43.58 0 0 0-2.85-25.84c5.5.21 9.95 2.64 12.91 6.5a48.77 48.77 0 0 1-10.06 19.34z"/>
    <linearGradient id="c" gradientUnits="userSpaceOnUse" x1="193.13" y1="-126.4" x2="228.88" y2="-90.65" gradientTransform="matrix(1 0 0 -1 -41.5 4)">
      <stop offset="0" stop-color="#ff3000"/>
      <stop offset="1" stop-color="#ffad00"/>
    </linearGradient>
    <path fill="url(#c)" d="M179.43 114.64a60.32 60.32 0 0 1-9.35 11.09c-5.07 3.99-11.02 6.34-16.85 6.17h-.1a43.65 43.65 0 0 0 15.96-24.19c5.2-5.7 9.14-12.5 11.38-19.98 3.06 4.84 4.03 11.52 2.17 18.84a34.86 34.86 0 0 1-3.2 8.07z"/>
    <linearGradient id="d" gradientUnits="userSpaceOnUse" x1="202.3" y1="-121.99" x2="166.73" y2="-142.53" gradientTransform="matrix(1 0 0 -1 -41.5 4)">
      <stop offset=".25" stop-color="#ff1f00"/>
      <stop offset=".79" stop-color="#ffd900"/>
    </linearGradient>
    <path fill="url(#d)" d="M150.88 133.5l.48.02c4.18.11 8.36-.82 12.3-2.58a59.65 59.65 0 0 1-41.4 10.44 47.72 47.72 0 0 0 28.62-7.88z"/>
    <radialGradient id="e" cx="164.1" cy="-87.38" r="92.14" gradientTransform="matrix(1 0 0 -1 -41.5 4)" gradientUnits="userSpaceOnUse">
      <stop offset=".45" stop-color="#ff7d00"/>
      <stop offset=".53" stop-color="#ffeb00"/>
    </radialGradient>
    <path fill="url(#e)" d="M134.74 125.2a20.8 20.8 0 0 0 12.86 7.92c-11.5 8-27.3 9.92-41.84 3.88a59.4 59.4 0 0 1-4.47-2.13c-15.33-8.34-24.1-24.16-23.12-39.84 8.6 18.04 27.64 30.58 49.74 30.58 2.31 0 4.6-.14 6.83-.4z"/>
    <radialGradient id="f" cx="181.08" cy="-61.61" r="117.14" gradientTransform="matrix(1 0 0 -1 -41.5 4)" gradientUnits="userSpaceOnUse">
      <stop offset=".01" stop-color="#ff9c00"/>
      <stop offset=".38" stop-color="red"/>
    </radialGradient>
    <path fill="url(#f)" d="M153.73 75.22c-10.99 4.15-20.41 14.8-23.13 27.48-1.73 8.06-.43 15.47 3.1 21-1.15.07-2.3.11-3.45.11-24.57 0-45.08-16.94-49.83-39.45.32-.87.67-1.72 1.05-2.57 9.2-20.23 34.35-28.6 56.16-18.68a46 46 0 0 1 16.1 12.1z"/>
    <linearGradient id="g" gradientUnits="userSpaceOnUse" x1="110.81" y1="-81.22" x2="130.39" y2="-81.22" gradientTransform="matrix(1 0 0 -1 -41.5 4)">
      <stop offset=".25" stop-color="#ff1f00"/>
      <stop offset=".69" stop-color="#ffd900"/>
    </linearGradient>
    <path fill="url(#g)" d="M76.63 91.46c-1.15 12.6 3.37 25.24 12.26 34.7a59.78 59.78 0 0 1-19.58-44.32 59.69 59.69 0 0 1 13.23-37.56 50.35 50.35 0 0 0-5.91 47.18z"/>
    <radialGradient id="h" cx="191.09" cy="-40.98" r="86.67" gradientTransform="matrix(1 0 0 -1 -41.5 4)" gradientUnits="userSpaceOnUse">
      <stop offset=".08" stop-color="#fff"/>
      <stop offset=".38" stop-color="#ffd900"/>
      <stop offset=".81" stop-color="#ff8000"/>
    </radialGradient>
    <path fill="url(#h)" d="M180.61 81.32c-3.79-4.78-9.47-7.77-16.34-7.96h-1.13a47.7 47.7 0 0 0-20.78-17.7c-23.7-10.57-51.42-.9-61.9 21.6-.3.64-.58 1.29-.84 1.93a48.43 48.43 0 0 1-.24-4.8c0-27.3 22.78-49.44 50.86-49.44 28.1 0 50.87 22.14 50.87 49.43 0 2.36-.17 4.67-.5 6.94z"/>
    <linearGradient id="i" gradientUnits="userSpaceOnUse" x1="182.31" y1="-29.87" x2="239.29" y2="-86.86" gradientTransform="matrix(1 0 0 -1 -41.5 4)">
      <stop offset=".32" stop-color="#ffd900"/>
      <stop offset=".93" stop-color="#ff4700"/>
    </linearGradient>
    <path fill="url(#i)" d="M149.33 25.35a59.98 59.98 0 0 1 35.84 78.13c1.55-8 .12-15.3-3.5-20.7.58-3.05.88-6.18.88-9.38 0-21.57-13.7-40.1-33.22-48.05z"/>
  </g>
</svg>
