<svg version="1.1" id="Layer_1" xmlns="http://www.w3.org/2000/svg" xmlns:xlink="http://www.w3.org/1999/xlink" x="0px" y="0px" width="256px" height="168px" viewBox="0 0 256 168" enable-background="new 0 0 256 168" xml:space="preserve">
  <path fill="#FFF" d="M240 .4H16C8 .4.8 6.8.8 15.6v136.8c0 8 6.4 15.2 15.2 15.2h224c8 0 15.2-6.4 15.2-15.2V15.6C254.4 6.8 248 .4 240 .4z"/>
  <path fill="#8E8E8E" d="M240.8 2.4c7.2 0 12.8 5.6 12.8 12.8v137.6c0 7.2-5.6 12.8-12.8 12.8H15.2c-7.2 0-12.8-5.6-12.8-12.8V15.2C2.4 8 8 2.4 15.2 2.4h225.6m0-2.4H15.2C7.2 0 0 6.4 0 15.2v137.6c0 8 6.4 15.2 15.2 15.2h225.6c8 0 15.2-6.4 15.2-15.2V15.2C256 6.4 249.6 0 240.8 0z"/>
  <g>
    <path d="M195.62 126.06s.02 8.92 0 8.92.19 5.43 5.7 5.43h2.06s5.03.27 5.57-4.72v-7.53s.04-2.1-1.8-2.1h-2.63v8.36s.19 1.79-2.23 1.79c0 0-2.1.19-2.1-2.12v-5.93s.09-2.1-1.78-2.1h-2.79z"/>
    <path d="M216.53 125.7c-4.22 0-7.64 3.3-7.64 7.36 0 4.06 3.42 7.35 7.64 7.35s7.64-3.29 7.64-7.35-3.42-7.35-7.64-7.35zm0 10.57a3.2 3.2 0 1 1 0-6.38 3.2 3.2 0 0 1 0 6.38z"/>
    <path d="M228.4 135.98V128.16s.04-2.1-1.81-2.1h-2.62v14.03h8.9s2.1.04 2.1-1.81v-2.3h-6.57z"/>
    <g>
      <path d="M41.95 99.62c-4.7 0-8.47 4.85-8.47 4.85l1.1-4.4h-6.21s-1.69 7.42-3.42 13.37c0 0-3.58 12.05-4.95 16.9h7l2.43-9.7c2.1 1.61 5.15 1.4 5.15 1.4 15.27-.67 15.37-15.08 15.37-15.08 0-8.16-8-7.34-8-7.34zm-.72 13.11s-2.03 4.72-6.7 4.88c0 0-2.08 0-3.45-1.2 0 0 1.86-7.8 3.62-9.33 0 0 2.08-2.63 4.72-2.63 0 0 5.81 0 1.8 8.28zM68.48 99.6s-17.1.02-18.32 15.6c0 0-.44 6.83 7.74 6.83 0 0 4.63.37 8.25-4.7l-.57 4.16 6.32-.06c.16-2.68.42-4 .42-4 1.48-6.58 4.63-16.74 4.63-16.74s-4.22-1.12-8.47-1.1zM65.36 114s-1.64 3.23-4.99 3.29c0 0-5.67-.22-.93-8.95 0 0 2.69-4.06 6.75-4.28 0 0 1.75-.05 2.74.22 0 0-1.76 7.25-3.57 9.72zM76.96 108.17s-1.63 2.53-1.63 6.21c0 0-.48 6.9 7.63 6.9 0 0 3.68.63 7.79-3.63 0 0-1.16 8.63-8.69 8.52 0 0-3.8.22-6.74-1.1l-1.9 4.48s2.17 1.42 7.85 1.31c0 0 11.27 1.14 14.64-8.82l6.05-20.81s-16.48-6.59-25 6.94zm15.27 3.12c-2.21 5.98-6.19 5.54-6.19 5.54-3.58-.2-3.28-3.53-3.28-3.53 0-3.88 3.38-7.17 3.38-7.17 3.29-3.09 8-1.52 8-1.52l-1.91 6.68z"/>
    </g>
    <g fill="#77B800">
      <path d="M121.18 100.75l-1.95 4.1s-6.74-2.57-8.37.95c0 0-.53 1.21 1.9 2.47 0 0 4 1.8 5.15 3.16 0 0 1.42 1.66.9 3.83 0 0-.74 6.37-10.95 6.77 0 0-4.7.14-7.98-1.65l1.87-4.16s2.48 1.53 6.32 1.53c0 0 3.52-.03 3.58-2.49 0 0 .26-1.35-3.58-2.93 0 0-4.16-1.53-4.32-5.1 0 0-.42-7.15 11.21-7.6 0 0 3.95-.1 6.22 1.12zM173.13 100.22h6.95l-3.26 11.11s-1.85 5.95 1.9 5.95c0 0 4.05.15 6.36-5.9l3.37-11.16h6.95s-5.06 17.16-5.95 21.27h-6.21l1.02-4.21s-3.46 4.76-9.87 4.76c0 0-7 .5-5.37-7.5l4.11-14.32zM198.3 100.22h5.94l-.95 5.37s3.64-5.68 8.37-5.97h1.69l-1.74 5.97s-6.95-1.05-9.42 7.06l-2.58 8.9h-6.9s2.85-10.11 4.16-14.48c0 0 1.16-4.9 1.42-6.85zM145.18 108.17s-1.64 2.53-1.64 6.21c0 0-.47 6.9 7.64 6.9 0 0 3.68.63 7.79-3.63 0 0-1.16 8.63-8.69 8.52 0 0-3.8.22-6.74-1.1l-1.9 4.48s2.17 1.42 7.85 1.31c0 0 11.26 1.14 14.63-8.82l6.06-20.81s-16.48-6.59-25 6.94zm15.27 3.12c-2.21 5.98-6.19 5.54-6.19 5.54-3.58-.2-3.29-3.53-3.29-3.53 0-3.88 3.4-7.17 3.4-7.17 3.28-3.09 8-1.52 8-1.52l-1.92 6.68zM136.55 99.62s-10.74-.71-15.17 9.92c0 0-1.94 4.79.58 9 0 0 1.94 3.5 8.64 3.5 0 0 5.16.13 9.31-1.81l-.05-4.11s-2.47 1.31-6.95 1.31c0 0-5.42.64-5.58-4.36h3.95s11.93.29 12.8-6.58c0 0 1.2-6.41-7.53-6.87zm1.07 6.76s-.73 2.5-5.93 2.5h-3.44s1.77-5 6.48-5c0 0 3.39.1 2.9 2.5zM226.42 99.62h-.96s-14.22.23-15.22 14.55c0 0 .04 7.87 9.58 7.87h.97S235 121.8 236 107.47c0 0-.04-7.86-9.58-7.86zm2.17 8.48c-.79 9.27-7.22 9.47-7.22 9.47h-.24c-3.7-.1-3.6-3.98-3.6-3.98.78-9.27 7.2-9.47 7.2-9.47h.25c3.7.1 3.6 3.98 3.6 3.98z"/>
    </g>
    <g>
      <circle cx="128" cy="57.22" r="29.64"/>
      <radialGradient id="a" cx="2321.06" cy="-2148.45" r="86.86" gradientTransform="matrix(.2118 0 0 -.2118 -351.16 -395.63)" gradientUnits="userSpaceOnUse">
        <stop offset="0" stop-color="#ff0"/>
        <stop offset="1" stop-color="#f90"/>
      </radialGradient>
      <path fill="url(#a)" d="M133.01 75.63c-1.22-2.23-1.56-5.18-.74-8.4 1.34-5.24 5.37-9.63 9.89-11.25a18.7 18.7 0 0 1 2 14.76A24.18 24.18 0 0 1 133 75.63z"/>
      <path fill="#FD0100" d="M138.24 79.56a7.68 7.68 0 0 1-4.86-3.32c3.92-.8 7.5-2.46 10.53-4.75a17.69 17.69 0 0 1-5.67 8.07z"/>
      <linearGradient id="b" gradientUnits="userSpaceOnUse" x1="190.73" y1="-63.48" x2="190.73" y2="-51.32" gradientTransform="matrix(1 0 0 -1 -41.5 4)">
        <stop offset=".31" stop-color="#ff3000"/>
        <stop offset="1" stop-color="#ffad00"/>
      </linearGradient>
      <path fill="url(#b)" d="M147.53 67.48c.82-4.13.3-8.36-1.34-12.16a7.8 7.8 0 0 1 6.07 3.06 22.89 22.89 0 0 1-4.73 9.1z"/>
      <linearGradient id="c" gradientUnits="userSpaceOnUse" x1="180.61" y1="-75.05" x2="197.43" y2="-58.23" gradientTransform="matrix(1 0 0 -1 -41.5 4)">
        <stop offset="0" stop-color="#ff3000"/>
        <stop offset="1" stop-color="#ffad00"/>
      </linearGradient>
      <path fill="url(#c)" d="M152.2 71.63a28.42 28.42 0 0 1-4.4 5.22c-2.4 1.88-5.2 2.98-7.93 2.9h-.05a20.5 20.5 0 0 0 7.5-11.38 24.22 24.22 0 0 0 5.36-9.4c1.44 2.28 1.9 5.43 1.02 8.87-.34 1.33-.85 2.6-1.5 3.8z"/>
      <linearGradient id="d" gradientUnits="userSpaceOnUse" x1="184.93" y1="-72.97" x2="168.2" y2="-82.63" gradientTransform="matrix(1 0 0 -1 -41.5 4)">
        <stop offset=".25" stop-color="#ff1f00"/>
        <stop offset=".79" stop-color="#ffd900"/>
      </linearGradient>
      <path fill="url(#d)" d="M138.76 80.5l.23.02c1.97.05 3.93-.4 5.78-1.22a28.06 28.06 0 0 1-19.47 4.91c4.84.22 9.57-1.1 13.46-3.7z"/>
      <radialGradient id="e" cx="2250.34" cy="-2154.51" r="204.63" gradientTransform="matrix(.2118 0 0 -.2118 -351.16 -395.63)" gradientUnits="userSpaceOnUse">
        <stop offset=".45" stop-color="#ff7d00"/>
        <stop offset=".53" stop-color="#ffeb00"/>
      </radialGradient>
      <path fill="url(#e)" d="M131.17 76.6a9.78 9.78 0 0 0 6.05 3.73c-5.4 3.76-12.84 4.66-19.68 1.82-.72-.3-1.42-.64-2.1-1-7.21-3.92-11.34-11.36-10.88-18.74 4.05 8.48 13 14.38 23.4 14.38 1.09 0 2.16-.06 3.21-.19z"/>
      <radialGradient id="f" cx="2288.05" cy="-2097.26" r="260.16" gradientTransform="matrix(.2118 0 0 -.2118 -351.16 -395.63)" gradientUnits="userSpaceOnUse">
        <stop offset=".01" stop-color="#ff9c00"/>
        <stop offset=".38" stop-color="red"/>
      </radialGradient>
      <path fill="url(#f)" d="M140.1 53.09c-5.17 1.96-9.6 6.96-10.88 12.93-.8 3.8-.2 7.27 1.46 9.87-.54.04-1.08.06-1.62.06-11.56 0-21.2-7.97-23.44-18.56.15-.4.31-.81.5-1.21 4.32-9.52 16.15-13.45 26.41-8.79a21.6 21.6 0 0 1 7.57 5.7z"/>
      <linearGradient id="g" gradientUnits="userSpaceOnUse" x1="141.89" y1="-53.79" x2="151.1" y2="-53.79" gradientTransform="matrix(1 0 0 -1 -41.5 4)">
        <stop offset=".25" stop-color="#ff1f00"/>
        <stop offset=".69" stop-color="#ffd900"/>
      </linearGradient>
      <path fill="url(#g)" d="M103.83 60.73a21.12 21.12 0 0 0 5.77 16.32 28.12 28.12 0 0 1-9.2-20.84 28.1 28.1 0 0 1 6.22-17.67 23.7 23.7 0 0 0-2.79 22.19z"/>
      <radialGradient id="h" cx="2310.28" cy="-2051.46" r="192.49" gradientTransform="matrix(.2118 0 0 -.2118 -351.16 -395.63)" gradientUnits="userSpaceOnUse">
        <stop offset=".08" stop-color="#fff"/>
        <stop offset=".38" stop-color="#ffd900"/>
        <stop offset=".81" stop-color="#ff8000"/>
      </radialGradient>
      <path fill="url(#h)" d="M152.75 55.96a9.93 9.93 0 0 0-8.22-3.75 22.43 22.43 0 0 0-9.77-8.32c-11.15-4.97-24.2-.43-29.12 10.16l-.4.91a22.9 22.9 0 0 1-.1-2.26c0-12.84 10.7-23.26 23.92-23.26 13.21 0 23.93 10.42 23.93 23.26 0 1.1-.09 2.2-.24 3.26z"/>
      <linearGradient id="i" gradientUnits="userSpaceOnUse" x1="175.52" y1="-29.64" x2="202.33" y2="-56.45" gradientTransform="matrix(1 0 0 -1 -41.5 4)">
        <stop offset=".32" stop-color="#ffd900"/>
        <stop offset=".93" stop-color="#ff4700"/>
      </linearGradient>
      <path fill="url(#i)" d="M138.03 29.63a28.21 28.21 0 0 1 16.86 36.75c.73-3.76.06-7.19-1.64-9.74.27-1.43.41-2.9.41-4.4 0-10.15-6.44-18.86-15.63-22.61z"/>
    </g>
  </g>
</svg>
