<svg version="1.1" id="Layer_1" xmlns="http://www.w3.org/2000/svg" xmlns:xlink="http://www.w3.org/1999/xlink" x="0px" y="0px" width="256px" height="168px" viewBox="0 0 256 168" enable-background="new 0 0 256 168" xml:space="preserve">
  <path fill="#FFF" d="M240 .4H16C8 .4.8 6.8.8 15.6v136.8c0 8 6.4 15.2 15.2 15.2h224c8 0 15.2-6.4 15.2-15.2V15.6C254.4 6.8 248 .4 240 .4z"/>
  <path fill="#8E8E8E" d="M240.8 2.4c7.2 0 12.8 5.6 12.8 12.8v137.6c0 7.2-5.6 12.8-12.8 12.8H15.2c-7.2 0-12.8-5.6-12.8-12.8V15.2C2.4 8 8 2.4 15.2 2.4h225.6m0-2.4H15.2C7.2 0 0 6.4 0 15.2v137.6c0 8 6.4 15.2 15.2 15.2h225.6c8 0 15.2-6.4 15.2-15.2V15.2C256 6.4 249.6 0 240.8 0z"/>
  <g>
    <path d="M195.62 90.06s.02 8.92 0 8.92.19 5.43 5.7 5.43h2.06s5.03.27 5.57-4.72v-7.53s.04-2.1-1.8-2.1h-2.63v8.36s.19 1.79-2.23 1.79c0 0-2.1.18-2.1-2.12v-5.93s.09-2.1-1.78-2.1h-2.79z"/>
    <path d="M216.53 89.7c-4.22 0-7.64 3.3-7.64 7.36 0 4.06 3.42 7.35 7.64 7.35s7.64-3.3 7.64-7.35c0-4.07-3.42-7.36-7.64-7.36zm0 10.57a3.19 3.19 0 1 1 0-6.38 3.19 3.19 0 0 1 0 6.38z"/>
    <path d="M228.4 99.98V92.16s.04-2.1-1.81-2.1h-2.62v14.02h8.9s2.1.05 2.1-1.8v-2.3h-6.57z"/>
    <g>
      <path d="M41.95 63.62c-4.7 0-8.47 4.85-8.47 4.85l1.1-4.4h-6.21s-1.69 7.41-3.42 13.36c0 0-3.58 12.06-4.95 16.9h7l2.43-9.69c2.1 1.6 5.15 1.39 5.15 1.39 15.27-.67 15.37-15.07 15.37-15.07 0-8.16-8-7.34-8-7.34zm-.72 13.11s-2.03 4.72-6.7 4.88c0 0-2.08 0-3.45-1.2 0 0 1.86-7.8 3.62-9.33 0 0 2.08-2.63 4.72-2.63 0 0 5.81 0 1.8 8.28zM68.48 63.6s-17.1.01-18.32 15.6c0 0-.44 6.83 7.74 6.83 0 0 4.63.36 8.25-4.7l-.57 4.16 6.32-.06c.16-2.68.42-4 .42-4 1.48-6.58 4.63-16.74 4.63-16.74s-4.22-1.12-8.47-1.1zM65.36 78s-1.64 3.23-4.99 3.28c0 0-5.67-.21-.93-8.94 0 0 2.69-4.06 6.75-4.28 0 0 1.75-.05 2.74.22 0 0-1.76 7.24-3.57 9.71zM76.96 72.17s-1.63 2.53-1.63 6.21c0 0-.48 6.9 7.63 6.9 0 0 3.68.63 7.79-3.64 0 0-1.16 8.64-8.69 8.53 0 0-3.8.21-6.74-1.1l-1.9 4.47s2.17 1.42 7.85 1.32c0 0 11.27 1.14 14.64-8.83l6.05-20.8s-16.48-6.6-25 6.94zm15.27 3.11c-2.21 5.99-6.19 5.55-6.19 5.55-3.58-.2-3.28-3.54-3.28-3.54 0-3.87 3.38-7.16 3.38-7.16 3.29-3.1 8-1.52 8-1.52l-1.91 6.67z"/>
    </g>
    <g fill="#77B800">
      <path d="M121.18 64.75l-1.95 4.1s-6.74-2.58-8.37.95c0 0-.53 1.2 1.9 2.47 0 0 4 1.8 5.15 3.16 0 0 1.42 1.65.9 3.83 0 0-.74 6.37-10.95 6.77 0 0-4.7.14-7.98-1.65l1.87-4.16s2.48 1.53 6.32 1.53c0 0 3.52-.03 3.58-2.5 0 0 .26-1.35-3.58-2.92 0 0-4.16-1.53-4.32-5.1 0 0-.42-7.16 11.21-7.61 0 0 3.95-.08 6.22 1.13zM173.13 64.22h6.95l-3.26 11.1s-1.85 5.96 1.9 5.96c0 0 4.05.15 6.36-5.9l3.37-11.16h6.95s-5.06 17.16-5.95 21.27h-6.21l1.02-4.22s-3.46 4.77-9.87 4.76c0 0-7 .51-5.37-7.5l4.11-14.31zM198.3 64.22h5.94l-.95 5.37s3.64-5.69 8.37-5.98h1.69l-1.74 5.98s-6.95-1.06-9.42 7.05l-2.58 8.9h-6.9s2.85-10.11 4.16-14.48c0 0 1.16-4.9 1.42-6.84zM145.18 72.17s-1.64 2.53-1.64 6.21c0 0-.47 6.9 7.64 6.9 0 0 3.68.63 7.79-3.64 0 0-1.16 8.64-8.69 8.53 0 0-3.8.21-6.74-1.1l-1.9 4.47s2.17 1.42 7.85 1.32c0 0 11.26 1.14 14.63-8.83l6.06-20.8s-16.48-6.6-25 6.94zm15.27 3.11c-2.21 5.99-6.19 5.55-6.19 5.55-3.58-.2-3.29-3.54-3.29-3.54 0-3.87 3.4-7.16 3.4-7.16 3.28-3.1 8-1.52 8-1.52l-1.92 6.67zM136.55 63.62s-10.74-.72-15.17 9.92c0 0-1.94 4.79.58 9 0 0 1.94 3.5 8.64 3.5 0 0 5.16.13 9.31-1.82l-.05-4.1s-2.47 1.31-6.95 1.31c0 0-5.42.63-5.58-4.37h3.95s11.93.3 12.8-6.58c0 0 1.2-6.4-7.53-6.86zm1.07 6.76s-.73 2.5-5.93 2.5h-3.44s1.77-5 6.48-5c0 0 3.39.09 2.9 2.5zM226.42 63.62h-.96s-14.22.23-15.22 14.55c0 0 .04 7.86 9.58 7.86h.97S235 85.8 236 71.48c0 0-.04-7.87-9.58-7.87zm2.17 8.47c-.79 9.28-7.22 9.47-7.22 9.47h-.24c-3.7-.1-3.6-3.97-3.6-3.97.78-9.28 7.2-9.47 7.2-9.47h.25c3.7.1 3.6 3.97 3.6 3.97z"/>
    </g>
  </g>
</svg>
