<svg version="1.1" id="Layer_1" xmlns="http://www.w3.org/2000/svg" xmlns:xlink="http://www.w3.org/1999/xlink" x="0px" y="0px" width="256px" height="168px" viewBox="0 0 256 168" enable-background="new 0 0 256 168" xml:space="preserve">
  <path fill="#FFF" d="M240 .4H16C8 .4.8 6.8.8 15.6v136.8c0 8 6.4 15.2 15.2 15.2h224c8 0 15.2-6.4 15.2-15.2V15.6C254.4 6.8 248 .4 240 .4z"/>
  <path fill="#8E8E8E" d="M240.8 2.4c7.2 0 12.8 5.6 12.8 12.8v137.6c0 7.2-5.6 12.8-12.8 12.8H15.2c-7.2 0-12.8-5.6-12.8-12.8V15.2C2.4 8 8 2.4 15.2 2.4h225.6m0-2.4H15.2C7.2 0 0 6.4 0 15.2v137.6c0 8 6.4 15.2 15.2 15.2h225.6c8 0 15.2-6.4 15.2-15.2V15.2C256 6.4 249.6 0 240.8 0z"/>
  <g>
    <path fill="#0092D0" d="M170.84 53.01c1.53-9.8-.01-16.47-5.31-22.51-5.84-6.65-16.39-9.5-29.88-9.5H96.5c-2.75 0-5.1 2-5.53 4.73l-16.3 103.4a3.36 3.36 0 0 0 3.31 3.9h24.18l-1.67 10.57a2.94 2.94 0 0 0 2.9 3.4h20.38a4.9 4.9 0 0 0 4.84-4.14l.2-1.03 3.84-24.35.25-1.34a4.9 4.9 0 0 1 4.84-4.14h3.05c19.74 0 35.2-8.02 39.71-31.22 1.9-9.69.92-17.78-4.07-23.47a19.46 19.46 0 0 0-5.58-4.3"/>
    <path fill="#004489" d="M170.84 53.01c1.53-9.8-.01-16.47-5.31-22.51-5.84-6.65-16.39-9.5-29.88-9.5H96.5c-2.75 0-5.1 2-5.53 4.73l-16.3 103.4a3.36 3.36 0 0 0 3.31 3.9h24.18l6.07-38.52-.19 1.2a5.58 5.58 0 0 1 5.52-4.72h11.49c22.56 0 40.23-9.17 45.4-35.68.15-.79.28-1.55.4-2.3"/>
    <path fill="#004C93" d="M114.75 53.14a4.9 4.9 0 0 1 4.84-4.14h30.7c3.63 0 7.02.24 10.12.74a45.82 45.82 0 0 1 5.03 1.12 27.81 27.81 0 0 1 5.4 2.15c1.53-9.8-.01-16.47-5.31-22.51-5.84-6.65-16.38-9.5-29.88-9.5H96.5c-2.75 0-5.1 2-5.53 4.73l-16.3 103.4a3.36 3.36 0 0 0 3.31 3.9h24.18l6.07-38.52 6.53-41.37z"/>
  </g>
</svg>
