<svg version="1.1" id="Layer_1" xmlns="http://www.w3.org/2000/svg" xmlns:xlink="http://www.w3.org/1999/xlink" x="0px" y="0px" width="256px" height="168px" viewBox="0 0 256 168" enable-background="new 0 0 256 168" xml:space="preserve">
  <path fill="#FFF" d="M240 .4H16C8 .4.8 6.8.8 15.6v136.8c0 8 6.4 15.2 15.2 15.2h224c8 0 15.2-6.4 15.2-15.2V15.6C254.4 6.8 248 .4 240 .4z"/>
  <path fill="#8E8E8E" d="M240.8 2.4c7.2 0 12.8 5.6 12.8 12.8v137.6c0 7.2-5.6 12.8-12.8 12.8H15.2c-7.2 0-12.8-5.6-12.8-12.8V15.2C2.4 8 8 2.4 15.2 2.4h225.6m0-2.4H15.2C7.2 0 0 6.4 0 15.2v137.6c0 8 6.4 15.2 15.2 15.2h225.6c8 0 15.2-6.4 15.2-15.2V15.2C256 6.4 249.6 0 240.8 0z"/>
  <path fill="#FF7800" d="M233.69 93.09h-47.63c-6.94 0-9.89-2.7-11.09-6.31H190c10.03 0 16.2-4.42 16.2-13.97 0-9.54-6.18-14.46-16.22-14.46h-4.77c-8.99 0-19.92 5.23-22.22 17.76h-13.43V48.74h-11.37V76.1h-14.04c-13.45.06-20.94 6.87-21.92 16.98H78.74c-6.95 0-9.89-2.7-11.09-6.31h15.01c10.04 0 16.22-4.42 16.22-13.97 0-9.54-6.18-14.46-16.21-14.46H77.9c-8.99 0-19.93 5.23-22.22 17.76h-9.86c-6.17 0-11.65 1.9-14.66 5.61v-4.77H20v39.37c0 2.24.7 2.95 2.88 2.95h5.61c2.1 0 2.88-.7 2.88-2.95v-15.5c0-11.73 7.37-14.05 14.95-14.05h9.46c2.36 11.63 12.1 17.2 23.36 17.2h24.48c2.82 6.74 9.53 10.24 20.3 10.24h6.52c10.67 0 19.65-7.58 19.65-18.74v-8.7h12.98c2.36 11.63 12.1 17.2 23.36 17.2h47.25a2.35 2.35 0 0 0 2.32-2.39v-6.25a2.27 2.27 0 0 0-2.31-2.24zM77.48 69.02h5.54c2.53 0 4.28 1.05 4.28 3.6 0 2.38-1.75 3.5-4.28 3.5H67.34c.93-3.97 3.54-7.1 10.14-7.1zm60.7 26.8c0 4.43-3.37 7.59-7.72 7.59h-7.3c-5.9 0-9.76-2.32-9.76-8.15 0-5.68 3.86-8.49 9.76-8.49h15.02v9.06zm46.6-26.8h5.52c2.52 0 4.28 1.05 4.28 3.6 0 2.38-1.75 3.5-4.28 3.5H174.6c.96-3.97 3.56-7.1 10.17-7.1z"/>
</svg>
