<svg version="1.1" id="Layer_1" xmlns="http://www.w3.org/2000/svg" xmlns:xlink="http://www.w3.org/1999/xlink" x="0px" y="0px" width="256px" height="168px" viewBox="0 0 256 168" enable-background="new 0 0 256 168" xml:space="preserve">
  <path fill="#E5352C" d="M240 0H16C7.2 0 0 7.2 0 16v136c0 8.8 7.2 16 16 16h224c8.8 0 16-7.2 16-16V16c0-8.8-7.2-16-16-16z"/>
  <path fill="#FFF" d="M130.04 26.98c0 15.49 25.97 32.68 25.97 50.37 0 0 0 1.7-.72 3.53 24.29 5.12 41.48 17.2 41.48 31.35 0 19.02-30.66 34.77-68.66 34.77-38.8 0-68.89-15.48-68.89-34.04 0-14.14 18.64-25.62 41.13-31.7 0 7.8 25.59 32.56 26.2 42.56.08 1.14.3 2.11 0 3.29 5.54-2.92 5.54-12.08 5.54-12.08 0-21.7-24.89-31.34-24.89-52.68 0-8.3 3.85-14.4 7.33-16.1v5.97c0 15.5 26.93 32.81 26.93 46.96v4.64c6.26-2.43 6.26-14.03 6.26-14.03 0-19.52-25.01-30.37-25.01-52.7 0-8.28 3.85-14.38 7.33-16.09v5.98z"/>
</svg>
