<svg version="1.1" id="Layer_1" xmlns="http://www.w3.org/2000/svg" xmlns:xlink="http://www.w3.org/1999/xlink" x="0px" y="0px" width="256px" height="168px" viewBox="0 0 256 168" enable-background="new 0 0 256 168" xml:space="preserve">
  <path fill="#FFF" d="M240 .8H16C8 .8.8 7.2.8 16v136.8c0 8 6.4 15.2 15.2 15.2h224c8 0 15.2-6.4 15.2-15.2V16C254.4 7.2 248 .8 240 .8z"/>
  <path fill="#8E8E8E" d="M240.8 2.4c7.2 0 12.8 5.6 12.8 12.8v137.6c0 7.2-5.6 12.8-12.8 12.8H15.2c-7.2 0-12.8-5.6-12.8-12.8V15.2C2.4 8 8 2.4 15.2 2.4h225.6m0-2.4H15.2C7.2 0 0 6.4 0 15.2v137.6c0 8 6.4 15.2 15.2 15.2h225.6c8 0 15.2-6.4 15.2-15.2V15.2C256 6.4 249.6 0 240.8 0z"/>
  <g>
    <path fill="#F7B600" d="M27 128.79h202v18.11H27V128.8z"/>
    <path fill="#1A1F71" d="M27 39.2h202V21.1H27v18.1zM123.99 55.56l-10.13 47.33h-12.24l10.12-47.33H124zm51.5 30.56l6.45-17.77 3.7 17.77H175.5zm13.67 16.77h11.32l-9.9-47.33h-10.44a5.57 5.57 0 0 0-5.21 3.47l-18.37 43.86h12.86l2.55-7.07h15.7l1.49 7.07zM157.2 87.44c.05-12.5-17.27-13.19-17.15-18.77.04-1.7 1.65-3.5 5.19-3.96 1.75-.23 6.6-.4 12.07 2.12l2.15-10.04a33 33 0 0 0-11.45-2.1c-12.1 0-20.62 6.44-20.69 15.65-.08 6.81 6.08 10.61 10.72 12.88 4.77 2.32 6.37 3.81 6.35 5.88-.04 3.18-3.81 4.58-7.33 4.63-6.15.1-9.72-1.66-12.57-2.99l-2.22 10.38c2.86 1.31 8.14 2.45 13.6 2.5 12.87 0 21.3-6.35 21.33-16.18m-50.71-31.88l-19.84 47.33H73.71l-9.76-37.77c-.6-2.32-1.1-3.18-2.91-4.16-2.94-1.6-7.8-3.1-12.08-4.03l.29-1.37h20.84a5.7 5.7 0 0 1 5.64 4.82l5.16 27.39 12.73-32.21h12.87zM139.66 115.91h-4.98v4.63h5.56v1.4H133v-12.85h6.96v1.4h-5.28v4.05h4.98v1.37zM142.81 108.4h1.68v13.53h-1.68V108.4zM153.64 116.43c.02-1.05-.44-2.71-2.33-2.71-1.71 0-2.44 1.54-2.57 2.7h4.9zm-4.92 1.2c.04 2.26 1.47 3.2 3.16 3.2 1.2 0 1.95-.21 2.56-.48l.3 1.2c-.59.27-1.62.6-3.09.6-2.83 0-4.53-1.9-4.53-4.68s1.64-4.95 4.33-4.95c3.03 0 3.8 2.63 3.8 4.33 0 .34-.01.59-.05.78h-6.48zM164.38 121.61c-.44.21-1.4.53-2.65.53-2.78 0-4.59-1.88-4.59-4.7a4.7 4.7 0 0 1 4.96-4.92c.99 0 1.86.25 2.32.5l-.38 1.27a4.1 4.1 0 0 0-1.94-.44c-2.12 0-3.26 1.58-3.26 3.5 0 2.13 1.37 3.44 3.2 3.44.95 0 1.58-.23 2.06-.44l.28 1.26zM169.09 110.5v2.21h2.4v1.28h-2.4v4.97c0 1.15.32 1.8 1.25 1.8.46 0 .73-.05.97-.12l.08 1.28c-.32.11-.84.22-1.48.22a2.4 2.4 0 0 1-1.81-.7c-.46-.52-.65-1.33-.65-2.42V114h-1.43v-1.28h1.43V111l1.64-.5zM173.83 115.59c0-1.09-.02-2.02-.08-2.88h1.47l.08 1.83h.05c.42-1.24 1.45-2.02 2.58-2.02.17 0 .3.02.45.04v1.58c-.17-.04-.34-.04-.57-.04-1.18 0-2.02.88-2.25 2.14-.04.23-.05.51-.05.78v4.92h-1.68v-6.35zM181.4 117.34c0 2.02 1.14 3.55 2.77 3.55 1.6 0 2.8-1.5 2.8-3.59 0-1.56-.78-3.52-2.76-3.52-1.96 0-2.82 1.83-2.82 3.56m7.3-.1c0 3.42-2.38 4.9-4.6 4.9-2.47 0-4.41-1.83-4.41-4.74 0-3.07 2.04-4.88 4.57-4.88 2.65 0 4.44 1.92 4.44 4.73M191.26 115.2c0-.96-.02-1.73-.07-2.5h1.48l.1 1.54h.03a3.41 3.41 0 0 1 3.05-1.72c1.28 0 3.26.76 3.26 3.92v5.5h-1.67v-5.32c0-1.49-.56-2.73-2.14-2.73a2.42 2.42 0 0 0-2.36 2.5v5.54h-1.68v-6.72z"/>
  </g>
</svg>
