<svg version="1.1" id="Layer_1" xmlns="http://www.w3.org/2000/svg" xmlns:xlink="http://www.w3.org/1999/xlink" x="0px" y="0px" width="256px" height="168px" viewBox="0 0 256 168" enable-background="new 0 0 256 168" xml:space="preserve">
  <path fill="#FFF" d="M240 .8H16C8 .8.8 7.2.8 16v136.8c0 8 6.4 15.2 15.2 15.2h224c8 0 15.2-6.4 15.2-15.2V16C254.4 7.2 248 .8 240 .8z"/>
  <path fill="#8E8E8E" d="M240.8 2.4c7.2 0 12.8 5.6 12.8 12.8v137.6c0 7.2-5.6 12.8-12.8 12.8H15.2c-7.2 0-12.8-5.6-12.8-12.8V15.2C2.4 8 8 2.4 15.2 2.4h225.6m0-2.4H15.2C7.2 0 0 6.4 0 15.2v137.6c0 8 6.4 15.2 15.2 15.2h225.6c8 0 15.2-6.4 15.2-15.2V15.2C256 6.4 249.6 0 240.8 0z"/>
  <g>
    <path fill="#005098" d="M97.25 114.36l10-61.5h16.9l-10.75 61.5zM174.12 54.4c-3.08-1.53-8.46-2.3-14.6-2.3-16.15 0-27.68 8.46-28.45 19.98 0 8.46 8.46 13.84 14.6 16.91 6.16 3.08 8.46 4.62 8.46 7.7 0 3.83-5.38 6.14-9.99 6.14-6.92 0-10-.77-15.37-3.07l-2.3-.77-2.31 13.83c3.84 1.54 10.76 3.08 18.44 3.08 17.68 0 29.21-8.46 29.21-20.76 0-6.92-4.6-12.3-13.83-16.9-6.15-3.08-9.23-4.62-9.23-7.7 0-2.3 3.08-5.38 9.23-5.38 5.38 0 9.22.77 12.3 2.3l1.53.78 2.3-13.83zM216.4 53.64h-13.07c-3.85 0-6.92.77-8.46 5.38l-24.6 56.11h17.68s3.08-7.69 3.85-9.22h21.52c.77 2.3 2.3 9.22 2.3 9.22H231l-14.6-61.5zm-19.99 39.2c1.54-3.85 6.92-16.91 6.92-16.91s1.53-3.84 2.3-6.15l.77 5.38s3.08 14.6 3.85 17.68H196.4zM83.42 53.64l-16.14 41.5-1.54-8.45c-3.08-10-12.3-19.98-23.06-25.36l14.6 53.03h17.68l26.14-60.72H83.42z"/>
    <path fill="#F6A500" d="M51.9 52.87H25v1.54c20.75 5.38 34.59 16.9 40.74 32.28l-6.15-28.44c-1.54-3.84-4.61-4.61-7.69-5.38z"/>
  </g>
</svg>
