<svg version="1.1" id="Layer_1" xmlns="http://www.w3.org/2000/svg" xmlns:xlink="http://www.w3.org/1999/xlink" x="0px" y="0px" width="256px" height="168px" viewBox="0 0 256 168" enable-background="new 0 0 256 168" xml:space="preserve">
  <path fill="#FFF" d="M240 .8H16C8 .8.8 7.2.8 16v136.8c0 8 6.4 15.2 15.2 15.2h224c8 0 15.2-6.4 15.2-15.2V16C254.4 7.2 248 .8 240 .8z"/>
  <path fill="#8E8E8E" d="M240.8 2.4c7.2 0 12.8 5.6 12.8 12.8v137.6c0 7.2-5.6 12.8-12.8 12.8H15.2c-7.2 0-12.8-5.6-12.8-12.8V15.2C2.4 8 8 2.4 15.2 2.4h225.6m0-2.4H15.2C7.2 0 0 6.4 0 15.2v137.6c0 8 6.4 15.2 15.2 15.2h225.6c8 0 15.2-6.4 15.2-15.2V15.2C256 6.4 249.6 0 240.8 0z"/>
  <g fill-rule="evenodd" clip-rule="evenodd">
    <path fill="#005197" d="M228.95 117.91L229 147H27.26L27 21.02l8.83-.02v87.09a9.8 9.8 0 0 0 9.74 9.82h183.39z"/>
    <path fill="#005197" d="M103.5 95.84l8.95-55.3h14.3l-8.95 55.3h-14.3zM169.63 41.9a35.29 35.29 0 0 0-12.82-2.36c-14.12 0-24.07 7.53-24.13 18.3-.11 7.94 7.12 12.35 12.54 15 5.53 2.7 7.4 4.47 7.4 6.88-.05 3.7-4.46 5.41-8.58 5.41-5.7 0-8.77-.88-13.41-2.94l-1.89-.88-2 12.41c3.36 1.53 9.53 2.89 15.95 2.94 15 0 24.77-7.4 24.88-18.88.06-6.3-3.76-11.12-12-15.06-5-2.53-8.06-4.24-8.06-6.82.06-2.36 2.59-4.77 8.24-4.77 4.64-.12 8.06 1 10.64 2.12l1.3.59 1.94-11.95zM188.63 76.25l5.71-15.47c-.06.11 1.18-3.24 1.88-5.3l1 4.77s2.71 13.23 3.3 16h-11.89zm17.66-35.7h-11.07c-3.4 0-6 1-7.47 4.58l-21.24 50.7h15s2.48-6.81 3-8.29h18.36c.41 1.95 1.7 8.3 1.7 8.3h13.24l-11.53-55.3zM91.56 40.54l-14 37.71-1.53-7.65c-2.6-8.82-10.71-18.41-19.77-23.17l12.82 48.35H84.2l22.48-55.24H91.56z"/>
    <path fill="#F6A800" d="M64.56 40.54h-23l-.24 1.12c17.94 4.59 29.83 15.65 34.7 28.94l-5-25.41c-.82-3.53-3.35-4.53-6.46-4.65z"/>
    <path fill="#FFF" d="M109.96 140.22h2.37v-.01l6.26-.04.31-2.35-6.25.04.69-5.04 4.76-.03.31-2.35-4.75.03.62-4.52 6.05-.04.31-2.35-8.41.05-2.27 16.61zm22.86 0h2.37v-.01l6.26-.04.31-2.35-6.25.04.69-5.04 4.76-.03.31-2.35-4.75.03.62-4.52 6.05-.04.31-2.35-8.41.05-2.27 16.61zm-11.3 0h2.36v-.01l6.26-.04.32-2.35-6.25.04 2.2-14.3-2.63.05-2.27 16.61zm41.4 0h2.37v-.01l.17-.04 1.81-14.22 5.2-.04.3-2.35-12.23.05-.32 2.34h4.67l-1.97 14.27zm10.1 0l2.38-.05h.17l.87-7.03h1.28l3.83 7.03h2.56l-3.75-7.02c4.7-1.16 6.07-9.64.19-9.59l-5.05.05-2.47 16.61zm3.75-9.12h2.73c2.18 0 3.52-5.44.9-5.47l-2.92-.04-.7 5.5zm18.82-8.1c3.98 0 6.75 3.94 6.19 8.8s-4.25 8.8-8.23 8.8c-3.98 0-6.75-3.94-6.19-8.8.56-4.86 4.25-8.8 8.23-8.8zm-.28 1.98c2.88 0 4.88 3.3 4.48 6.82-.41 3.51-3.11 6.81-6 6.81-2.87 0-4.84-3.3-4.43-6.81s3.07-6.82 5.95-6.82zm8.67 15.24l2.37-.05h.18l1.82-12.84 6.23 12.84h1.98l2.3-16.56h-2.23l-1.9 11.95-5.76-11.95h-2.3l-2.69 16.61zM153.47 123c1.8 0 3.35.74 4.5 1.98l-1.27 2.2a4.39 4.39 0 0 0-3.53-1.75c-2.99 0-5.76 2.85-6.18 6.37-.43 3.51 1.66 6.36 4.65 6.36 1.48 0 2.91-.7 4.03-1.83v2.8a7.46 7.46 0 0 1-4.32 1.46c-4.14 0-7.02-3.94-6.44-8.8.59-4.85 4.42-8.79 8.56-8.79z"/>
  </g>
</svg>
