<svg version="1.1" id="Layer_1" xmlns="http://www.w3.org/2000/svg" xmlns:xlink="http://www.w3.org/1999/xlink" x="0px" y="0px" width="256px" height="168px" viewBox="0 0 256 168" enable-background="new 0 0 256 168" xml:space="preserve">
  <path fill="#FFF" d="M240 .8H16C8 .8.8 7.2.8 16v136.8c0 8 6.4 15.2 15.2 15.2h224c8 0 15.2-6.4 15.2-15.2V16C254.4 7.2 248 .8 240 .8z"/>
  <path fill="#8E8E8E" d="M240.8 2.4c7.2 0 12.8 5.6 12.8 12.8v137.6c0 7.2-5.6 12.8-12.8 12.8H15.2c-7.2 0-12.8-5.6-12.8-12.8V15.2C2.4 8 8 2.4 15.2 2.4h225.6m0-2.4H15.2C7.2 0 0 6.4 0 15.2v137.6c0 8 6.4 15.2 15.2 15.2h225.6c8 0 15.2-6.4 15.2-15.2V15.2C256 6.4 249.6 0 240.8 0z"/>
  <g>
    <path fill="#1A1F71" d="M127 39.32l-13.76 64.35H96.59l13.76-64.35H127zm70.03 41.55l8.76-24.16 5.04 24.16h-13.8zm18.58 22.8h15.4l-13.46-64.35h-14.2c-3.2 0-5.89 1.86-7.09 4.72l-24.97 59.63h17.48l3.46-9.61h21.36l2.02 9.6zm-43.46-21c.07-16.99-23.47-17.93-23.32-25.52.06-2.3 2.26-4.76 7.06-5.39 2.39-.3 8.97-.55 16.42 2.88L175.23 41c-4-1.44-9.16-2.84-15.57-2.84-16.46 0-28.03 8.74-28.13 21.27-.1 9.26 8.27 14.43 14.57 17.51 6.49 3.15 8.66 5.18 8.63 8-.04 4.31-5.18 6.22-9.95 6.3-8.37.13-13.23-2.27-17.1-4.07l-3.02 14.1c3.9 1.79 11.07 3.34 18.5 3.42 17.5 0 28.94-8.64 29-22.02M103.2 39.32l-26.97 64.35h-17.6L45.38 52.32c-.8-3.16-1.5-4.32-3.95-5.65-4-2.18-10.61-4.21-16.42-5.48l.4-1.87h28.32c3.6 0 6.85 2.4 7.68 6.56l7 37.24 17.32-43.8h17.5zM148.3 121.38h-6.76v6.3h7.56v1.89h-9.84V112.1h9.46v1.9h-7.18v5.51h6.76v1.87zM152.6 111.17h2.28v18.4h-2.28v-18.4zM167.31 122.08c.03-1.43-.59-3.68-3.16-3.68-2.33 0-3.31 2.1-3.5 3.68h6.66zm-6.68 1.63c.05 3.08 2 4.35 4.3 4.35a8.2 8.2 0 0 0 3.47-.64l.42 1.63c-.8.36-2.2.8-4.2.8-3.86 0-6.16-2.56-6.16-6.35 0-3.78 2.22-6.73 5.88-6.73 4.12 0 5.18 3.57 5.18 5.88 0 .47-.03.8-.08 1.06h-8.81zM181.92 129.13c-.6.28-1.91.72-3.6.72-3.78 0-6.24-2.56-6.24-6.4 0-3.86 2.64-6.69 6.73-6.69 1.35 0 2.54.34 3.17.68l-.52 1.74c-.55-.29-1.4-.6-2.65-.6-2.87 0-4.43 2.15-4.43 4.74 0 2.9 1.87 4.69 4.35 4.69 1.3 0 2.16-.31 2.8-.6l.4 1.72zM188.32 114.02v3h3.26v1.74h-3.26v6.76c0 1.56.44 2.44 1.7 2.44.63 0 1-.05 1.33-.16l.1 1.74c-.44.15-1.14.31-2.02.31a3.26 3.26 0 0 1-2.46-.96c-.62-.7-.88-1.81-.88-3.29v-6.84h-1.94v-1.74h1.94v-2.33l2.23-.67zM194.77 120.94c0-1.48-.03-2.75-.1-3.92h1.99l.1 2.5h.08c.57-1.7 1.97-2.76 3.5-2.76.23 0 .41.03.62.06v2.15c-.24-.05-.47-.05-.78-.05-1.6 0-2.75 1.18-3.06 2.9-.05.3-.07.7-.07 1.06v6.69h-2.28v-8.63zM205.05 123.32c0 2.75 1.55 4.82 3.78 4.82 2.18 0 3.8-2.05 3.8-4.87 0-2.13-1.05-4.8-3.75-4.8-2.66 0-3.83 2.5-3.83 4.85m9.92-.13c0 4.64-3.24 6.66-6.24 6.66-3.37 0-6.01-2.49-6.01-6.45 0-4.17 2.77-6.64 6.22-6.64 3.6 0 6.03 2.62 6.03 6.43M218.47 120.42c0-1.32-.03-2.36-.1-3.4h2.01l.13 2.08h.06a4.64 4.64 0 0 1 4.14-2.34c1.74 0 4.43 1.04 4.43 5.34v7.46h-2.28v-7.22c0-2.02-.75-3.71-2.9-3.71a3.29 3.29 0 0 0-3.21 3.4v7.53h-2.28v-9.14z"/>
  </g>
</svg>
